<svg width="966" height="978" fill="none" xmlns="http://www.w3.org/2000/svg"><g opacity=".7"><path d="M416.728 68.848l327.3 76.268c38.835 9.098 69.621 37.66 80.774 75.136l93.002 313.911c11.118 37.236.794 77.783-27.169 105.956L656.338 877.763c-27.716 28.138-69.074 40.156-107.909 31.058l-327.333-76.506c-38.835-9.098-69.622-37.661-80.774-75.136L47.32 443.267c-11.119-37.236-.795-77.782 27.168-105.956L308.786 99.667c27.716-28.138 68.861-39.882 107.942-30.82z" fill="#CDF4FF"/><path d="M416.728 68.848l327.3 76.268c38.835 9.098 69.621 37.66 80.774 75.136l93.002 313.911c11.118 37.236.794 77.783-27.169 105.956L656.338 877.763c-27.716 28.138-69.074 40.156-107.909 31.058l-327.333-76.506c-38.835-9.098-69.622-37.661-80.774-75.136L47.32 443.267c-11.119-37.236-.795-77.782 27.168-105.956L308.786 99.667c27.716-28.138 68.861-39.882 107.942-30.82z" fill="url(#paint0_linear)"/></g><defs><linearGradient id="paint0_linear" x1="61.282" y1="549.042" x2="903.866" y2="428.556" gradientUnits="userSpaceOnUse"><stop stop-color="#ADFDC0"/><stop offset="1" stop-color="#fff" stop-opacity="0"/></linearGradient></defs></svg>