<svg width="890" height="836" fill="none" xmlns="http://www.w3.org/2000/svg"><path d="M236.447 401.026h-8.064v20.448h-5.76v-20.448h-8.028v-4.752h21.852v4.752zm19.46 15.048h-11.7l-2.232 5.4h-5.976l11.232-25.2h5.76l11.268 25.2h-6.12l-2.232-5.4zm-1.836-4.428l-3.996-9.648-3.996 9.648h7.992zm24.438-15.372c2.232 0 4.164.372 5.796 1.116 1.656.744 2.928 1.8 3.816 3.168.888 1.368 1.332 2.988 1.332 4.86 0 1.848-.444 3.468-1.332 4.86-.888 1.368-2.16 2.424-3.816 3.168-1.632.72-3.564 1.08-5.796 1.08h-5.076v6.948h-5.832v-25.2h10.908zm-.324 13.5c1.752 0 3.084-.372 3.996-1.116.912-.768 1.368-1.848 1.368-3.24 0-1.416-.456-2.496-1.368-3.24-.912-.768-2.244-1.152-3.996-1.152h-4.752v8.748h4.752zm32.863-8.748H299.06l.036 20.448H293.3v-25.2h17.784l-.036 4.752zm23.104 15.768v4.68H314.64v-25.2h19.044v4.68h-13.248v5.472h11.7v4.536h-11.7v5.832h13.716zm23.97-15.768h-8.064v20.448h-5.76v-20.448h-8.028v-4.752h21.852v4.752z" fill="#53F0BF"/><path d="M812.241 274.458L597.773 60.002c-25.42-25.59-62.882-35.88-97.889-27.06l312.357 241.516zm0 0c25.395 25.37 35.126 62.192 25.538 96.601l-25.538-96.601zM389.174 800.534l.004-.001 295.104-73.707-295.108 73.708zm0 0c-34.33 8.649-71.057-1.448-95.965-26.523l-.005-.005m95.97 26.528l-95.97-26.528m0 0L78.736 559.551v-.001m214.468 214.456L78.735 559.55m0 0c-24.885-24.861-34.658-61.13-25.243-94.615v-.001m25.243 94.616l-25.242-94.616m0 0l80.861-288.186M53.492 464.934l80.862-288.186m366.039-141.87l-.004.002-295.104 73.707 295.108-73.708zm0 0c34.33-8.649 71.057 1.448 95.965 26.523l.005.005m-95.97-26.527l95.97 26.527m0 0l214.468 214.456h.001M596.363 61.406l214.469 214.456m0 0c24.877 24.853 34.413 60.925 25.018 94.644l-80.637 288.159m55.619-382.803l-55.619 382.803m0 0c-9.418 33.493-36.373 59.485-70.929 68.16l70.929-68.16zM134.354 176.748c9.418-33.494 36.373-59.486 70.929-68.161l-70.929 68.161z" stroke="#3AEEB6" stroke-width="4"/></svg>