<svg width="775" height="738" fill="none" xmlns="http://www.w3.org/2000/svg"><path d="M186.526 356.8V382h-5.796v-20.448h-11.376V382h-5.796v-25.2h22.968zm17.155 0c2.232 0 4.164.372 5.796 1.116 1.656.744 2.928 1.8 3.816 3.168.888 1.368 1.332 2.988 1.332 4.86 0 1.848-.444 3.468-1.332 4.86-.888 1.368-2.16 2.424-3.816 3.168-1.632.72-3.564 1.08-5.796 1.08h-5.076V382h-5.832v-25.2h10.908zm-.324 13.5c1.752 0 3.084-.372 3.996-1.116.912-.768 1.368-1.848 1.368-3.24 0-1.416-.456-2.496-1.368-3.24-.912-.768-2.244-1.152-3.996-1.152h-4.752v8.748h4.752zm27.49 12.132c-2.616 0-4.98-.564-7.092-1.692-2.088-1.128-3.732-2.676-4.932-4.644-1.176-1.992-1.764-4.224-1.764-6.696 0-2.472.588-4.692 1.764-6.66 1.2-1.992 2.844-3.552 4.932-4.68 2.112-1.128 4.476-1.692 7.092-1.692 2.616 0 4.968.564 7.056 1.692 2.088 1.128 3.732 2.688 4.932 4.68 1.2 1.968 1.8 4.188 1.8 6.66 0 2.472-.6 4.704-1.8 6.696-1.2 1.968-2.844 3.516-4.932 4.644-2.088 1.128-4.44 1.692-7.056 1.692zm0-4.968c1.488 0 2.832-.336 4.032-1.008a7.363 7.363 0 002.808-2.88c.696-1.224 1.044-2.616 1.044-4.176s-.348-2.952-1.044-4.176a7.116 7.116 0 00-2.808-2.844c-1.2-.696-2.544-1.044-4.032-1.044s-2.832.348-4.032 1.044a7.361 7.361 0 00-2.844 2.844c-.672 1.224-1.008 2.616-1.008 4.176s.336 2.952 1.008 4.176a7.621 7.621 0 002.844 2.88c1.2.672 2.544 1.008 4.032 1.008zm36.029-15.912h-11.988l.036 20.448h-5.796v-25.2h17.784l-.036 4.752zm14.5-4.752c2.232 0 4.164.372 5.796 1.116 1.656.744 2.928 1.8 3.816 3.168.888 1.368 1.332 2.988 1.332 4.86 0 1.848-.444 3.468-1.332 4.86-.888 1.368-2.16 2.424-3.816 3.168-1.632.72-3.564 1.08-5.796 1.08H276.3V382h-5.832v-25.2h10.908zm-.324 13.5c1.752 0 3.084-.372 3.996-1.116.912-.768 1.368-1.848 1.368-3.24 0-1.416-.456-2.496-1.368-3.24-.912-.768-2.244-1.152-3.996-1.152H276.3v8.748h4.752zm30.914 6.3h-11.7l-2.232 5.4h-5.976l11.232-25.2h5.76l11.268 25.2h-6.12l-2.232-5.4zm-1.836-4.428l-3.996-9.648-3.996 9.648h7.992zM346.591 382l-.036-15.084-7.416 12.42h-2.592l-7.416-12.132V382h-5.472v-25.2h4.824l9.432 15.66 9.288-15.66h4.824l.036 25.2h-5.472zm34.664 0l-.036-15.084-7.416 12.42h-2.592l-7.416-12.132V382h-5.472v-25.2h4.824l9.432 15.66 9.288-15.66h4.824l.036 25.2h-5.472zm11.732-25.2h5.796v16.416l12.024-16.416h5.472V382h-5.76v-16.38L398.495 382h-5.508v-25.2zm40.475 0c2.232 0 4.164.372 5.796 1.116 1.656.744 2.928 1.8 3.816 3.168.888 1.368 1.332 2.988 1.332 4.86 0 1.848-.444 3.468-1.332 4.86-.888 1.368-2.16 2.424-3.816 3.168-1.632.72-3.564 1.08-5.796 1.08h-5.076V382h-5.832v-25.2h10.908zm-.324 13.5c1.752 0 3.084-.372 3.996-1.116.912-.768 1.368-1.848 1.368-3.24 0-1.416-.456-2.496-1.368-3.24-.912-.768-2.244-1.152-3.996-1.152h-4.752v8.748h4.752zm27.491 12.132c-2.616 0-4.98-.564-7.092-1.692-2.088-1.128-3.732-2.676-4.932-4.644-1.176-1.992-1.764-4.224-1.764-6.696 0-2.472.588-4.692 1.764-6.66 1.2-1.992 2.844-3.552 4.932-4.68 2.112-1.128 4.476-1.692 7.092-1.692 2.616 0 4.968.564 7.056 1.692 2.088 1.128 3.732 2.688 4.932 4.68 1.2 1.968 1.8 4.188 1.8 6.66 0 2.472-.6 4.704-1.8 6.696-1.2 1.968-2.844 3.516-4.932 4.644-2.088 1.128-4.44 1.692-7.056 1.692zm0-4.968c1.488 0 2.832-.336 4.032-1.008a7.363 7.363 0 002.808-2.88c.696-1.224 1.044-2.616 1.044-4.176s-.348-2.952-1.044-4.176a7.116 7.116 0 00-2.808-2.844c-1.2-.696-2.544-1.044-4.032-1.044s-2.832.348-4.032 1.044a7.361 7.361 0 00-2.844 2.844c-.672 1.224-1.008 2.616-1.008 4.176s.336 2.952 1.008 4.176a7.621 7.621 0 002.844 2.88c1.2.672 2.544 1.008 4.032 1.008zm35.74-8.604c1.536.456 2.712 1.2 3.528 2.232.816 1.032 1.224 2.304 1.224 3.816 0 2.232-.852 3.972-2.556 5.22-1.68 1.248-4.092 1.872-7.236 1.872h-12.42v-25.2h11.736c2.928 0 5.208.564 6.84 1.692 1.632 1.128 2.448 2.736 2.448 4.824 0 1.248-.312 2.352-.936 3.312-.624.936-1.5 1.68-2.628 2.232zm-11.664-1.62h5.436c1.272 0 2.232-.252 2.88-.756.648-.528.972-1.296.972-2.304 0-.984-.336-1.74-1.008-2.268-.648-.528-1.596-.792-2.844-.792h-5.436v6.12zm6.408 10.44c2.736 0 4.104-1.08 4.104-3.24 0-2.088-1.368-3.132-4.104-3.132h-6.408v6.372h6.408zm31.685-1.08h-11.7l-2.232 5.4h-5.976l11.232-25.2h5.76L531.15 382h-6.12l-2.232-5.4zm-1.836-4.428l-3.996-9.648-3.996 9.648h7.992zm36.641-15.372V382h-5.832v-10.332h-11.448V382h-5.832v-25.2h5.832v9.936h11.448V356.8h5.832zm6.314 0h5.796v16.416l12.024-16.416h5.472V382h-5.76v-16.38L569.425 382h-5.508v-25.2zm49.079 20.52V382h-19.512v-25.2h19.044v4.68H599.28v5.472h11.7v4.536h-11.7v5.832h13.716z" fill="#53F0BF"/><path d="M151.372 500.469l.004.002 169.637 121.003c19.694 14.012 45.614 16.956 68.081 7.823l194.869-79.477c22.588-9.24 38.271-29.121 41.159-52.152v-.001l25.233-200.482.001-.007c2.996-23.137-7.341-46.061-26.919-59.966l-.004-.002-169.637-121.003-302.424 384.262zm0 0c-19.578-13.905-29.915-36.829-26.919-59.966l.001-.007m26.918 59.973l-26.918-59.973m0 0l25.233-200.482v-.001m-25.233 200.483l25.233-200.483m0 0c2.889-23.041 18.581-43.125 41.044-52.256h.001m-41.045 52.256l41.045-52.256m0 0l194.983-79.373m-194.983 79.373l194.983-79.373m0 0c22.467-9.132 48.385-6.189 68.079 7.822l-68.079-7.822z" stroke="#3AEEB6" stroke-width="4"/></svg>