<svg width="1341" height="1478" fill="none" xmlns="http://www.w3.org/2000/svg"><path d="M842.867 1213.35h.002l259.201-304.078c30.56-35.929 39.19-85.867 22.83-131.162l-282.033 435.24zm0 0c-30.327 35.73-78.117 51.97-125.026 42.22h-.005m125.031-42.22l-125.031 42.22m0 0l-399.072-81.54h-.001m399.073 81.54l-399.073-81.54m0 0c-46.721-9.52-86.127-43.47-102.496-88.77h0m102.496 88.77l-102.496-88.77m0 0L76.622 699.45m139.645 385.81L76.622 699.45m0 0c-16.368-45.295-7.73-95.234 22.82-131.163L76.622 699.45zM985.03 392.495l139.861 385.613L99.443 568.285l259.205-304.073.002-.002c30.327-35.73 78.117-51.974 125.026-42.225l.005.001 399.073 81.542.3-1.47-.3 1.47c46.714 9.523 85.704 43.431 102.275 88.967z" stroke="#3AEEB6" stroke-width="3"/><path d="M842.867 1213.35h.002l259.201-304.078c30.56-35.929 39.19-85.867 22.83-131.162l-282.033 435.24zm0 0c-30.327 35.73-78.117 51.97-125.026 42.22h-.005m125.031-42.22l-125.031 42.22m0 0l-399.072-81.54h-.001m399.073 81.54l-399.073-81.54m0 0c-46.721-9.52-86.127-43.47-102.496-88.77h0m102.496 88.77l-102.496-88.77m0 0L76.622 699.45m139.645 385.81L76.622 699.45m0 0c-16.368-45.295-7.73-95.234 22.82-131.163L76.622 699.45zM985.03 392.495l139.861 385.613L99.443 568.285l259.205-304.073.002-.002c30.327-35.73 78.117-51.974 125.026-42.225l.005.001 399.073 81.542.3-1.47-.3 1.47c46.714 9.523 85.704 43.431 102.275 88.967z" stroke="url(#paint0_linear)" stroke-width="3"/><defs><linearGradient id="paint0_linear" x1="258.598" y1="347.923" x2="942.764" y2="1129.77" gradientUnits="userSpaceOnUse"><stop stop-color="#00D1FF"/><stop offset="1" stop-color="#fff" stop-opacity="0"/></linearGradient></defs></svg>