<svg width="538" height="509" fill="none" xmlns="http://www.w3.org/2000/svg"><path d="M226.626 229.552h-8.064V250h-5.76v-20.448h-8.028V224.8h21.852v4.752zm19.461 15.048h-11.7l-2.232 5.4h-5.976l11.232-25.2h5.76l11.268 25.2h-6.12l-2.232-5.4zm-1.836-4.428l-3.996-9.648-3.996 9.648h7.992zM257.78 224.8h5.796v16.416L275.6 224.8h5.472V250h-5.76v-16.38L263.288 250h-5.508v-25.2zm11.628-1.62c-4.608 0-6.936-1.836-6.984-5.508h3.996c.048 1.752 1.044 2.628 2.988 2.628.96 0 1.692-.216 2.196-.648.504-.456.768-1.116.792-1.98h3.996c-.024 1.8-.612 3.168-1.764 4.104-1.152.936-2.892 1.404-5.22 1.404zM310.279 250l-.036-15.084-7.416 12.42h-2.592l-7.416-12.132V250h-5.472v-25.2h4.824l9.432 15.66 9.288-15.66h4.824l.036 25.2h-5.472zm10.472-12.384h10.188v4.5h-10.188v-4.5zM148.701 286l-.036-15.084-7.416 12.42h-2.592l-7.416-12.132V286h-5.472v-25.2h4.824l9.432 15.66 9.288-15.66h4.824l.036 25.2h-5.472zm31.244-4.68V286h-19.512v-25.2h19.044v4.68h-13.248v5.472h11.7v4.536h-11.7v5.832h13.716zm27.822-20.52V286h-5.832v-10.332h-11.448V286h-5.832v-25.2h5.832v9.936h11.448V260.8h5.832zm25.826 20.52V286h-19.512v-25.2h19.044v4.68h-13.248v5.472h11.7v4.536h-11.7v5.832h13.716zm30.703-.072v9.972h-5.4V286h-17.784v5.22h-5.4l.036-9.972h1.008c1.512-.048 2.58-1.152 3.204-3.312.624-2.16 1.008-5.244 1.152-9.252l.288-7.884h19.368v20.448h3.528zm-18.036-12.024c-.12 3-.372 5.52-.756 7.56-.384 2.016-.972 3.504-1.764 4.464h11.268v-15.696h-8.64l-.108 3.672zm44.822 6.624h-3.672V286h-5.724v-10.152h-3.744L272.29 286h-6.732l7.56-13.176-7.092-12.024h6.156l5.652 10.188h3.852V260.8h5.724v10.188h3.744l5.688-10.188h6.156l-7.056 12.024L303.466 286h-6.732l-5.652-10.152zM329.193 286l-.036-15.084-7.416 12.42h-2.592l-7.416-12.132V286h-5.472v-25.2h4.824l9.432 15.66 9.288-15.66h4.824l.036 25.2h-5.472zm31.244-4.68V286h-19.512v-25.2h19.044v4.68h-13.248v5.472h11.7v4.536h-11.7v5.832h13.716zm27.823-20.52V286h-5.832v-10.332H370.98V286h-5.832v-25.2h5.832v9.936h11.448V260.8h5.832zm25.573 4.752h-8.064V286h-5.76v-20.448h-8.028V260.8h21.852v4.752z" fill="#53F0BF"/><path d="M302.907 447.124l.004-.002 131.164-78.645c15.046-9.047 23.764-25.235 22.969-42.493l-154.137 121.14zm0 0c-14.939 9-33.968 9.444-49.744 1.086l-.006-.003-138.336-72.715h-.001c-15.736-8.263-26.09-24.106-26.885-41.359v-.001l-7.066-151.404v-.001c-.796-17.259 7.921-33.448 22.969-42.495l131.163-78.645.004-.002c14.939-9 33.968-9.444 49.744-1.086l.006.004 138.337 72.714v.001c15.726 8.257 25.939 24.036 26.781 41.406l7.171 151.357-154.137 121.143z" stroke="#3AEEB6" stroke-width="4"/></svg>