<svg width="349" height="328" fill="none" xmlns="http://www.w3.org/2000/svg"><path d="M120.876 155.8h5.796v16.416l12.024-16.416h5.472V181h-5.76v-16.38L126.384 181h-5.508v-25.2zm11.628-1.62c-4.608 0-6.936-1.836-6.984-5.508h3.996c.048 1.752 1.044 2.628 2.988 2.628.96 0 1.692-.216 2.196-.648.504-.456.768-1.116.792-1.98h3.996c-.024 1.8-.612 3.168-1.764 4.104-1.152.936-2.892 1.404-5.22 1.404zm29.962 27.252c-2.616 0-4.98-.564-7.092-1.692-2.088-1.128-3.732-2.676-4.932-4.644-1.176-1.992-1.764-4.224-1.764-6.696 0-2.472.588-4.692 1.764-6.66 1.2-1.992 2.844-3.552 4.932-4.68 2.112-1.128 4.476-1.692 7.092-1.692 2.616 0 4.968.564 7.056 1.692 2.088 1.128 3.732 2.688 4.932 4.68 1.2 1.968 1.8 4.188 1.8 6.66 0 2.472-.6 4.704-1.8 6.696-1.2 1.968-2.844 3.516-4.932 4.644-2.088 1.128-4.44 1.692-7.056 1.692zm0-4.968c1.488 0 2.832-.336 4.032-1.008a7.363 7.363 0 002.808-2.88c.696-1.224 1.044-2.616 1.044-4.176s-.348-2.952-1.044-4.176a7.116 7.116 0 00-2.808-2.844c-1.2-.696-2.544-1.044-4.032-1.044s-2.832.348-4.032 1.044a7.361 7.361 0 00-2.844 2.844c-.672 1.224-1.008 2.616-1.008 4.176s.336 2.952 1.008 4.176a7.621 7.621 0 002.844 2.88c1.2.672 2.544 1.008 4.032 1.008zm36.029-15.912h-11.988l.036 20.448h-5.796v-25.2h17.784l-.036 4.752zm15.769 15.048h-11.7l-2.232 5.4h-5.976l11.232-25.2h5.76l11.268 25.2h-6.12l-2.232-5.4zm-1.836-4.428l-3.996-9.648-3.996 9.648h7.992z" fill="#53F0BF"/><path d="M108.463 287.254h.005l110.032 8.014-110.037-8.014zm0 0c-12.359-.875-23.258-8.194-28.465-19.158l-.003-.006m28.468 19.164L79.995 268.09m0 0l-46.694-97.45v-.001m46.694 97.451l-46.694-97.451m0 0c-5.226-10.892-4.103-23.902 3.001-33.908v-.001m-3.001 33.909l3.002-33.909m0 0l63.42-89.418s0 0 0 0c7.11-10.012 19.106-15.66 31.548-14.77l110.033 8.015h.004M36.303 136.73l205.005-96.173m0 0c12.36.875 23.259 8.194 28.466 19.158l.003.006m-28.469-19.164l28.469 19.164m0 0l46.694 97.45v.001m-46.694-97.451l46.694 97.451m0 0c5.22 10.882 4.049 23.799-3.082 33.893l3.082-33.893zm-66.422 123.327l63.339-89.432-63.339 89.432zm0 0c-7.109 10.012-19.105 15.66-31.546 14.77l31.546-14.77z" stroke="#3AEEB6" stroke-width="4"/></svg>