<svg width="42" height="42" viewBox="0 0 42 42" fill="none" xmlns="http://www.w3.org/2000/svg">
<g opacity="0.7">
<path d="M17.7733 2.93635L31.7324 6.18913C33.3887 6.57716 34.7017 7.79535 35.1774 9.39365L39.1439 22.7818C39.6181 24.3699 39.1778 26.0992 37.9852 27.3008L27.9925 37.4362C26.8104 38.6363 25.0465 39.1488 23.3903 38.7608L9.42963 35.4978C7.77334 35.1098 6.46032 33.8916 5.98466 32.2933L2.01816 18.9051C1.54396 17.317 1.98428 15.5878 3.1769 14.3862L13.1696 4.25078C14.3517 3.05071 16.1065 2.54983 17.7733 2.93635Z" fill="#0FF1FF"/>
<path d="M17.7733 2.93635L31.7324 6.18913C33.3887 6.57716 34.7017 7.79535 35.1774 9.39365L39.1439 22.7818C39.6181 24.3699 39.1778 26.0992 37.9852 27.3008L27.9925 37.4362C26.8104 38.6363 25.0465 39.1488 23.3903 38.7608L9.42963 35.4978C7.77334 35.1098 6.46032 33.8916 5.98466 32.2933L2.01816 18.9051C1.54396 17.317 1.98428 15.5878 3.1769 14.3862L13.1696 4.25078C14.3517 3.05071 16.1065 2.54983 17.7733 2.93635Z" fill="url(#paint0_linear)"/>
</g>
<path d="M17.3781 11.7834H23.8581L22.7781 22.1514H18.4581L17.3781 11.7834ZM20.6181 28.8234C19.6901 28.8234 18.9301 28.5434 18.3381 27.9834C17.7461 27.4234 17.4501 26.7434 17.4501 25.9434C17.4501 25.1274 17.7461 24.4554 18.3381 23.9274C18.9301 23.3834 19.6901 23.1114 20.6181 23.1114C21.5461 23.1114 22.3061 23.3834 22.8981 23.9274C23.4901 24.4554 23.7861 25.1274 23.7861 25.9434C23.7861 26.7434 23.4901 27.4234 22.8981 27.9834C22.3061 28.5434 21.5461 28.8234 20.6181 28.8234Z" fill="white"/>
<defs>
<linearGradient id="paint0_linear" x1="2.13964e-05" y1="7.55007" x2="41.2984" y2="33.3174" gradientUnits="userSpaceOnUse">
<stop stop-color="#FFF500"/>
<stop offset="1" stop-color="white" stop-opacity="0"/>
</linearGradient>
</defs>
</svg>
