<svg width="37" height="37" viewBox="0 0 37 37" fill="none" xmlns="http://www.w3.org/2000/svg">
<path d="M21.8181 26.7848C20.8854 26.7787 19.9527 26.9942 19.0451 27.2035C18.1754 27.4067 17.2742 27.6099 16.3982 27.6161C16.1966 27.6161 16.1524 27.5853 16.1083 27.4129C15.8878 26.5324 15.5411 25.6088 15.0244 24.5066C14.7345 23.8847 14.4194 23.2628 14.1105 22.6655C13.6442 21.7542 13.1652 20.806 12.7682 19.8454C12.1821 18.423 12.0056 17.2962 12.1947 16.194C12.409 14.9564 12.9888 13.8173 13.8711 12.8998C14.7534 11.9885 15.8688 11.3605 17.1041 11.0957C19.6943 10.5354 22.3223 11.5698 23.7844 13.7249C24.6919 15.0549 25.0259 16.4403 24.7864 17.8442C24.6478 18.6447 24.3201 19.4144 23.9986 20.1594L23.9545 20.2641C23.4062 21.551 22.7508 22.8194 22.1206 24.0448L22.0513 24.1741C21.7488 24.7652 21.9504 25.4425 22.5302 25.7381C22.8201 25.892 23.1668 25.9228 23.4756 25.8304C23.7655 25.7381 24.0049 25.5472 24.1436 25.2824C25.1519 23.3551 26.0468 21.6126 26.7086 19.7161C27.1686 18.3984 27.3199 17.2593 27.1812 16.1263C26.8976 13.8173 25.6687 11.7607 23.7276 10.3383C21.8181 8.94059 19.3918 8.34947 17.0789 8.72508C14.4761 9.14994 12.2262 10.6708 10.9027 12.9121C9.6108 15.0919 9.37762 17.678 10.2662 20.0055C10.7452 21.2554 11.3502 22.4685 11.9363 23.6384C12.138 24.0448 12.3522 24.4635 12.5476 24.876C13.2787 26.3784 13.9467 27.8685 14.0412 29.5557C14.0601 29.8882 14.2366 29.9559 14.4887 29.9497C15.6294 29.9436 16.6881 29.7712 17.8099 29.5926L17.999 29.5618C18.5095 29.4571 18.9569 29.3463 19.3918 29.2416C19.9905 29.0939 20.5577 28.9584 21.2257 28.8476C21.5597 28.7921 21.8118 28.8352 21.9819 28.9892C22.1584 29.1493 22.2025 29.3956 22.1899 29.5249C22.171 29.7158 22.0513 29.8327 21.8496 29.8574C21.8118 29.8635 21.7047 29.9005 20.961 30.1591C19.7762 30.5778 17.791 31.2797 16.6881 31.5876C16.039 31.797 15.1315 32.191 14.5265 32.8684C13.9467 33.5149 13.7765 34.2846 14.0286 35.0974C14.4004 36.2734 15.4277 36.9877 16.7764 37C16.789 37 16.7953 37 16.8079 37C18.0305 37 20.2867 36.2857 21.0303 36.0518C21.1249 36.021 21.2068 35.9963 21.2257 35.9902L21.2383 35.984C22.0765 35.7316 22.234 35.473 22.2655 34.8695C22.2845 34.5617 22.1962 34.3154 22.0135 34.1245C21.7992 33.9028 21.4463 33.7797 20.9988 33.7797C20.3056 33.7735 19.6186 34.0075 18.9506 34.2292C18.3078 34.4447 17.6398 34.6663 16.9969 34.6663C16.6692 34.6663 16.4613 34.6171 16.3667 34.5247C16.31 34.4693 16.2848 34.3954 16.2911 34.2846C16.2911 34.0629 16.4108 34.0013 16.8016 33.8228C16.8457 33.8043 16.8898 33.7858 16.9339 33.7612C17.5704 33.5395 18.3393 33.3117 19.1523 33.0716C20.1543 32.776 21.1879 32.4681 22.0072 32.1664C23.986 31.4829 24.591 30.8549 24.5784 29.4756C24.5847 27.9855 23.3621 26.7971 21.8181 26.7848Z" fill="#4F4F4F"/>
<path d="M19.2657 12.3272C19.1964 12.3272 19.1271 12.3333 19.0577 12.3333C19.0325 12.3333 19.0136 12.3395 18.9884 12.3395C17.5452 12.4257 16.2029 13.0353 15.2134 14.0513C14.2366 15.0488 13.682 16.3603 13.6379 17.7396C13.6253 18.0721 13.7198 18.3676 13.9026 18.5831C14.0979 18.8109 14.3752 18.9403 14.7029 18.9464C14.7156 18.9464 14.7282 18.9464 14.7408 18.9464C15.371 18.9464 15.7869 18.5215 15.8247 17.8442C15.8815 16.859 16.2218 16.0771 16.8772 15.4551C17.5452 14.8209 18.3456 14.4946 19.3098 14.47C19.6312 14.4638 19.9211 14.3407 20.1228 14.1251C20.3182 13.9219 20.419 13.6449 20.4064 13.3493C20.3812 12.7705 19.9022 12.3395 19.2657 12.3272Z" fill="#4F4F4F"/>
<path d="M6.85045 19.3528C7.05842 19.1434 7.17186 18.8664 7.16556 18.5523C7.15926 17.875 6.65508 17.4194 5.90513 17.4194C5.37575 17.4194 4.84636 17.4194 4.32328 17.4194H2.82967C2.3192 17.4194 1.81502 17.4194 1.30455 17.4194C0.529382 17.4194 0.00630216 17.875 0 18.5462C0 18.8602 0.107137 19.1373 0.315108 19.3466C0.548288 19.5745 0.882303 19.6976 1.28564 19.6976C2.00409 19.6976 2.72884 19.6976 3.46619 19.6976C4.27917 19.6976 5.09845 19.6976 5.91773 19.6915C6.30216 19.6976 6.62357 19.5745 6.85045 19.3528Z" fill="#4F4F4F"/>
<path d="M35.7333 17.4194C34.2586 17.4194 32.7019 17.4194 31.1075 17.4194C30.3575 17.4194 29.847 17.8689 29.8281 18.5339C29.8218 18.8479 29.929 19.125 30.1369 19.3343C30.3701 19.5683 30.7041 19.6915 31.1012 19.6976C31.618 19.7038 32.141 19.6976 32.6515 19.6976H32.8721C33.017 19.6976 33.1557 19.6976 33.3006 19.6976C33.5716 19.6976 33.8426 19.6976 34.1136 19.6976C34.3468 19.6976 34.58 19.6976 34.8195 19.6976C35.122 19.6976 35.4308 19.6976 35.7396 19.6976C36.4895 19.6915 36.9937 19.2358 37 18.5585C36.9874 17.8873 36.4706 17.4194 35.7333 17.4194Z" fill="#4F4F4F"/>
<path d="M8.79152 26.4277C8.55834 26.6494 8.32516 26.8772 8.10458 27.0989C7.97224 27.2343 7.83359 27.3636 7.70124 27.4991C7.50588 27.69 7.31051 27.8808 7.11514 28.0717L7.10884 28.0779C6.75592 28.4227 6.38409 28.7798 6.02487 29.137C5.65934 29.4941 5.57111 29.9497 5.77908 30.4177C5.96185 30.8303 6.32107 31.0704 6.79373 31.0889C6.81894 31.0889 6.84415 31.0889 6.86936 31.0889C7.17816 31.0889 7.44916 30.9719 7.70124 30.7194C8.07307 30.3561 8.4386 29.999 8.81042 29.6357L8.85454 29.5926C9.37132 29.0877 9.907 28.5643 10.4427 28.0409C10.7011 27.7885 10.846 27.4683 10.8397 27.1543C10.8397 26.8587 10.7074 26.5816 10.4805 26.36C10.0015 25.9105 9.3083 25.9351 8.79152 26.4277Z" fill="#4F4F4F"/>
<path d="M28.9269 27.1296C28.6811 26.8895 28.4354 26.6494 28.1833 26.4092C27.9312 26.1629 27.6413 26.0459 27.2884 26.0459C27.2821 26.0459 27.2758 26.0459 27.2695 26.0459H27.2569C26.7842 26.0767 26.425 26.3292 26.2485 26.7663C26.0658 27.2097 26.154 27.6469 26.5006 27.9794C27.3892 28.8537 28.3534 29.7958 29.3303 30.744C29.5634 30.9657 29.8597 31.095 30.1748 31.095C30.471 31.095 30.7546 30.978 30.9751 30.7687C31.202 30.5532 31.3218 30.2699 31.3281 29.9682C31.3281 29.6542 31.202 29.3586 30.9751 29.1308C30.2882 28.4535 29.595 27.7762 28.9269 27.1296Z" fill="#4F4F4F"/>
<path d="M17.6713 5.90498C17.8855 6.10817 18.1754 6.219 18.5032 6.219H18.5221C19.1838 6.20669 19.6438 5.73257 19.6501 5.06757C19.6501 4.60576 19.6501 4.15011 19.6501 3.70062C19.6501 3.52205 19.6501 3.33733 19.6501 3.15876C19.6501 2.95557 19.6501 2.75237 19.6501 2.54302C19.6501 2.09968 19.6501 1.63788 19.6501 1.18838C19.6501 0.517224 19.1586 0.00615743 18.5095 0C18.2006 0 17.9108 0.110834 17.6965 0.320186C17.4696 0.541854 17.3436 0.843568 17.3436 1.16991C17.3373 2.51223 17.3373 3.82992 17.3436 5.07988C17.3373 5.40622 17.457 5.70178 17.6713 5.90498Z" fill="#4F4F4F"/>
<path d="M27.9627 10.4553C28.2715 10.4553 28.5551 10.3383 28.7757 10.129C29.6139 9.32235 30.4521 8.49725 31.265 7.69679L31.536 7.43202C31.7818 7.18572 31.889 6.89632 31.8763 6.48377V6.4653C31.8448 6.1759 31.6558 5.8003 31.2146 5.5971C30.7483 5.38159 30.2882 5.44933 29.9416 5.77567C28.9269 6.74854 28.0005 7.65369 27.1119 8.54651C26.6645 8.99601 26.6834 9.67332 27.1497 10.1351C27.3703 10.3383 27.6539 10.4553 27.9627 10.4553Z" fill="#4F4F4F"/>
<path d="M8.23063 10.1351C8.4449 10.3445 8.7285 10.4553 9.0247 10.4553C9.19486 10.4553 9.36502 10.4184 9.52257 10.3445C9.98893 10.129 10.178 9.74105 10.1906 9.45166V9.43934C10.2032 8.9098 9.98893 8.62656 9.77466 8.41721C9.45955 8.10934 9.15074 7.80762 8.83563 7.49975C8.28104 6.9579 7.71385 6.39757 7.14665 5.84956C6.65509 5.36928 5.95554 5.35081 5.47658 5.79414C5.2434 6.01581 5.11105 6.29905 5.10475 6.59461C5.09845 6.90248 5.2371 7.20419 5.48288 7.45049C6.4093 8.36795 7.34832 9.27925 8.23063 10.1351Z" fill="#4F4F4F"/>
</svg>
