<svg width="1678" height="1028" viewBox="0 0 1678 1028" fill="none" xmlns="http://www.w3.org/2000/svg">
<g opacity="0.7">
<path d="M389.751 69.0026L717.393 147.667C756.268 157.051 787.147 186.255 798.408 224.492L892.322 544.776C903.548 582.768 893.333 624.075 865.437 652.719L631.708 894.339C604.059 922.948 562.719 935.086 523.843 925.702L196.166 846.794C157.291 837.41 126.412 808.205 115.151 769.969L21.2373 449.685C10.0108 411.693 20.226 370.385 48.122 341.741L281.851 100.121C309.5 71.5128 350.628 59.6546 389.751 69.0026Z" fill="#E3F9FF"/>
<path d="M389.751 69.0026L717.393 147.667C756.268 157.051 787.147 186.255 798.408 224.492L892.322 544.776C903.548 582.768 893.333 624.075 865.437 652.719L631.708 894.339C604.059 922.948 562.719 935.086 523.843 925.702L196.166 846.794C157.291 837.41 126.412 808.205 115.151 769.969L21.2373 449.685C10.0108 411.693 20.226 370.385 48.122 341.741L281.851 100.121C309.5 71.5128 350.628 59.6546 389.751 69.0026Z" fill="url(#paint0_linear)"/>
</g>
<g opacity="0.7">
<path d="M1412.11 921.247L1247.35 770.271C1227.82 752.329 1219.3 725.734 1225.06 700.381L1273.59 488.147C1279.3 462.944 1298.51 442.819 1323.9 435.618L1537.19 374.361C1562.43 367.1 1590.32 373.629 1609.85 391.571L1774.56 542.698C1794.09 560.64 1802.61 587.234 1796.85 612.587L1748.32 824.821C1742.61 850.024 1723.4 870.149 1698.01 877.351L1484.71 938.607C1459.47 945.868 1431.8 939.25 1412.11 921.247Z" fill="#CDF4FF"/>
<path d="M1412.11 921.247L1247.35 770.271C1227.82 752.329 1219.3 725.734 1225.06 700.381L1273.59 488.147C1279.3 462.944 1298.51 442.819 1323.9 435.618L1537.19 374.361C1562.43 367.1 1590.32 373.629 1609.85 391.571L1774.56 542.698C1794.09 560.64 1802.61 587.234 1796.85 612.587L1748.32 824.821C1742.61 850.024 1723.4 870.149 1698.01 877.351L1484.71 938.607C1459.47 945.868 1431.8 939.25 1412.11 921.247Z" fill="url(#paint1_linear)"/>
</g>
<defs>
<linearGradient id="paint0_linear" x1="35.4999" y1="557.559" x2="878.084" y2="437.073" gradientUnits="userSpaceOnUse">
<stop stop-color="#ADE0FD"/>
<stop offset="1" stop-color="white" stop-opacity="0"/>
</linearGradient>
<linearGradient id="paint1_linear" x1="1774.74" y1="758.976" x2="1247.21" y2="553.888" gradientUnits="userSpaceOnUse">
<stop stop-color="#DEF3FF"/>
<stop offset="1" stop-color="white" stop-opacity="0"/>
</linearGradient>
</defs>
</svg>
