<svg width="1184" height="1247" viewBox="0 0 1184 1247" fill="none" xmlns="http://www.w3.org/2000/svg">
<path d="M450.775 23.2363L451.326 25.1589L450.775 23.2363ZM701.694 43.1327C702.746 42.7967 703.327 41.6714 702.991 40.6191L697.516 23.472C697.18 22.4197 696.055 21.8391 695.002 22.175C693.95 22.511 693.37 23.6364 693.705 24.6886L698.572 39.9305L683.33 44.7971C682.278 45.133 681.697 46.2584 682.033 47.3106C682.369 48.3629 683.494 48.9435 684.547 48.6075L701.694 43.1327ZM255.842 164.025C281.015 126.477 332.085 59.3361 451.326 25.1589L450.224 21.3137C329.746 55.8456 277.99 123.806 252.519 161.798L255.842 164.025ZM451.326 25.1589C559.225 -5.76778 651.62 17.9553 700.168 43.0048L702.003 39.4501C652.667 13.9943 559.224 -9.92859 450.224 21.3137L451.326 25.1589Z" fill="black"/>
<path d="M208.662 514.257L208.664 514.257L342.596 467.824L208.662 514.257ZM208.662 514.257C193.13 519.68 175.771 516.1 163.298 504.801L163.296 504.799M208.662 514.257L163.296 504.799M163.296 504.799L55.8762 408.14L55.8759 408.14M163.296 504.799L55.8759 408.14M55.8759 408.14C43.4173 396.94 37.5195 379.638 40.6225 363.001L40.6226 363.001M55.8759 408.14L40.6226 363.001M40.6226 363.001L67.2384 219.89C67.2384 219.89 67.2385 219.889 67.2385 219.889C70.3417 203.252 81.845 189.668 97.484 184.225L231.416 137.792L231.418 137.791M40.6226 363.001L231.418 137.791M231.418 137.791C246.95 132.369 264.309 135.948 276.782 147.247L276.784 147.25M231.418 137.791L276.784 147.25M276.784 147.25L384.204 243.908L384.204 243.908M276.784 147.25L384.204 243.908M384.204 243.908C396.659 255.105 402.439 272.319 399.354 289.068L384.204 243.908ZM372.842 432.159L399.354 289.069L372.842 432.159ZM372.842 432.159C369.739 448.795 358.236 462.38 342.597 467.823L372.842 432.159Z" fill="white" stroke="#00D1FF" stroke-width="2"/>
<g clip-path="url(#clip0)">
<path d="M271.276 402.813C265.282 403.799 259.173 404.729 253.092 405.868C250.524 406.377 248.286 407.52 246.527 409.883C245.215 411.583 242.881 412.525 241.056 413.828C240.309 414.387 239.458 414.96 239.062 415.758C236.925 420.164 233.648 423.186 228.93 424.684C228.278 424.875 227.589 425.604 227.351 426.24C224.95 432.745 220.346 436.508 213.488 437.427C212.928 437.499 212.293 437.545 211.795 437.823C206.102 440.871 200.343 440.366 194.629 438.004C192.107 436.941 189.742 435.429 187.333 434.137C186.263 433.563 185.218 432.914 184.113 432.344C180.616 430.622 178.036 427.999 176.403 424.435C175.86 423.259 175.251 422.127 174.582 421.073C171.855 416.76 169.601 412.243 169.392 407.035C169.282 404.521 169.692 401.905 170.191 399.419C170.668 397.043 171.622 394.784 172.353 392.446C174.053 386.85 177.633 383.149 183.16 381.297C183.807 381.072 184.501 380.377 184.739 379.741C186.472 374.96 189.59 371.531 194.354 369.565C194.897 369.352 195.415 368.68 195.662 368.114C196.825 365.258 198.589 362.93 201.179 361.208C201.799 360.772 202.308 360.03 202.682 359.34C204.907 354.781 205.295 349.781 206.121 344.868C207.307 337.771 207.984 330.598 209.463 323.571C214.848 298.236 229.788 281.32 254.622 273.528C268.647 269.122 282.858 268.929 296.644 274.275C318.668 282.797 332.704 298.651 338.094 321.707C343.729 345.836 333.765 373.47 314.304 388.44C305.948 394.858 296.511 398.958 286.181 400.822C281.316 401.734 276.318 402.164 271.276 402.813ZM241.659 380.385C246.524 387.485 250.248 394.84 249.577 403.721C252.057 403.082 254.4 402.21 256.811 401.864C265.025 400.699 273.256 399.674 281.488 398.649C291.011 397.423 299.997 394.52 307.998 389.217C328.039 375.988 336.936 356.646 336.553 333.229C336.127 307.539 318.579 284.589 294.192 276.514C276.24 270.601 258.95 272.863 242.587 281.772C225.526 291.056 215.88 305.972 212.222 324.818C211.153 330.332 210.772 335.936 209.886 341.498C208.885 347.538 207.66 353.5 206.535 359.414C217.177 358.862 225.496 364.592 233.463 371.186C237.448 367.859 241.336 364.617 245.234 361.444C249.939 357.633 254.856 354.08 260.49 351.68C261.399 351.278 262.387 350.937 263.346 350.921C265.124 350.905 266.458 351.873 267.24 353.517C268.078 355.332 267.607 356.924 266.378 358.435C260.356 365.834 253.379 372.181 245.576 377.637C244.261 378.483 242.995 379.43 241.659 380.385ZM236.344 414.827C235.775 414.829 235.591 414.781 235.46 414.869C230.844 417.992 225.917 417.594 221.15 415.68C207.342 410.159 197.856 400.342 193.218 386.162C191.858 381.957 191.898 377.572 194.633 373.659C194.785 373.462 194.78 373.142 194.853 372.883C194.634 372.84 194.515 372.749 194.415 372.797C194.24 372.82 194.074 372.912 193.943 373C190.714 374.734 188.557 377.326 187.51 380.808C186.213 385.106 186.759 389.344 188.316 393.417C192.805 405.337 201.034 413.963 212.313 419.738C216.239 421.761 220.407 422.897 224.881 422.535C229.984 422.091 233.797 419.641 236.344 414.827ZM182.963 384.741C182.84 384.615 182.687 384.528 182.563 384.401C181.293 385.312 179.895 386.062 178.787 387.131C174.158 391.537 173.597 397.129 175.252 402.791C179.718 417.848 189.7 427.921 204.261 433.488C208.229 435.006 212.425 435.249 216.504 433.762C219.941 432.536 222.419 430.223 224.138 426.441C222.569 427.248 221.521 427.953 220.337 428.426C216.231 429.987 212.157 429.301 208.324 427.73C196.016 422.799 187.269 414.026 182.009 401.921C179.531 396.222 178.659 390.281 182.963 384.741ZM218.342 398.024C220.593 395.882 222.727 393.934 224.807 391.85C231.651 385.022 238.916 378.709 246.758 372.998C253.071 368.411 258.642 363.028 263.602 357.048C264.216 356.292 265.19 355.562 264.336 354.461C263.522 353.391 262.517 353.876 261.656 354.379C258.34 356.266 254.892 357.956 251.832 360.167C247.404 363.372 243.316 366.997 239.016 370.364C236.82 372.106 234.493 373.652 232.301 375.43C230.752 376.663 229.413 378.152 227.903 379.415C224.303 382.407 220.658 385.334 217.062 388.361C215.617 389.579 214.226 390.934 212.825 392.218C214.715 394.182 216.413 396.029 218.342 398.024ZM220.242 425.482C201.249 419.775 189.271 407.466 183.866 388.435C182.254 391.669 182.63 394.861 183.561 397.946C186.642 408.054 193.225 415.503 201.776 421.38C205.6 423.986 209.732 425.946 214.383 426.415C216.402 426.618 218.42 426.536 220.242 425.482ZM222.388 380.802C219.776 379.038 217.721 377.451 215.452 376.141C211.836 374.043 208.004 372.471 203.731 372.452C200.456 372.446 199.837 373.167 200.326 376.416C200.389 376.906 200.944 377.618 201.382 377.704C206.496 379.004 210.767 381.765 214.934 384.825C215.443 385.186 216.425 385.63 216.718 385.414C218.574 384.071 220.232 382.576 222.388 380.802ZM230.457 390.125C228.904 391.607 227.653 392.943 226.274 394.118C225.279 394.958 225.29 395.598 225.99 396.611C228.38 399.971 230.242 403.648 231.22 407.653C231.532 408.966 232.129 409.459 233.411 409.187C234.658 408.919 236.298 409.491 236.433 407.231C236.741 400.781 233.959 395.478 230.457 390.125ZM228.785 414.162C212.608 407.664 201.501 396.312 195.375 379.973C195.191 387.938 199.007 394.354 203.981 400.087C210.542 407.646 218.178 413.606 228.785 414.162ZM202.913 369.423C205.323 369.896 207.531 370.182 209.639 370.8C214.627 372.223 218.898 374.985 222.938 378.168C223.377 378.538 224.272 378.85 224.674 378.656C225.635 378.105 226.446 377.217 227.471 376.337C222.13 371.898 216.618 368.335 209.763 367.615C207.42 367.383 204.955 367.594 202.913 369.423ZM202.423 365.89C213.613 362.419 221.684 368.43 229.793 374.471C230.273 374.053 230.688 373.68 231.163 373.227C230.873 372.908 230.688 372.576 230.446 372.358C226.603 369.043 222.433 366.233 217.732 364.274C214.162 362.811 210.525 361.927 206.625 362.322C204.341 362.545 203.141 363.732 202.423 365.89ZM235.526 385.27C234.763 385.974 234.235 386.576 233.65 387.007C232.576 387.787 232.496 388.545 233.345 389.61C234.15 390.611 234.728 391.782 235.372 392.91C237.589 396.862 238.989 401.097 239.339 405.752C241.062 405.032 241.345 403.642 241.414 402.245C241.836 395.852 238.993 390.628 235.526 385.27ZM237.699 383.352C238.056 383.912 238.369 384.405 238.647 384.904C242.295 390.843 245.286 396.939 243.983 404.228C243.928 404.627 244.604 405.181 244.947 405.635C245.401 405.292 246.224 405.044 246.279 404.645C246.562 402.97 246.84 401.261 246.698 399.606C246.2 393.26 243.294 387.83 239.785 382.692C239.649 382.46 239.386 382.352 239.104 382.103C238.634 382.591 238.179 382.934 237.699 383.352ZM213.98 387.369C210.094 384.273 206.03 381.734 201.23 380.394C201.231 382.887 202.386 384.946 204.198 386.03C205.471 386.791 206.674 387.562 207.885 388.403C210.976 390.569 210.976 390.569 213.658 387.909C213.75 387.79 213.806 387.676 213.98 387.369ZM223.492 397.111C219.759 399.907 219.759 399.907 221.83 403.272C222.187 403.831 222.574 404.351 222.791 404.929C223.803 407.54 226.177 407.733 228.264 408.461C228.46 408.329 228.652 408.162 228.849 408.029C227.106 404.444 225.363 400.858 223.492 397.111ZM211.148 394.393C212.89 398.797 214.244 400.19 216.212 399.722C214.445 397.885 212.796 396.139 211.148 394.393Z" fill="#00D1FF"/>
<path d="M293.69 362.964C292.587 362.964 291.471 363.143 290.441 362.884C289.118 362.556 287.636 362.106 286.67 361.234C284.341 359.183 285.121 355.843 287.993 354.654C291.639 353.116 296.329 354.719 297.456 358.491C297.518 358.697 297.685 358.889 297.826 359.156C301.983 358.549 306.069 357.667 309.81 355.76C313.179 354.009 313.638 351.493 311.035 348.694C307.98 345.42 303.98 343.657 299.737 342.494C298.777 342.226 297.766 342.107 296.815 341.909C293.494 341.269 290.614 341.568 287.716 343.936C283.53 347.359 278.334 348.741 272.976 349.146C272.272 349.201 271.553 349.151 270.861 349.027C269.547 348.769 268.28 348.327 267.976 346.799C267.673 345.271 268.575 344.265 269.781 343.682C272.189 342.482 274.614 341.137 277.199 340.483C280.816 339.554 284.589 339.282 288.308 338.589C289.214 338.437 290.263 338.017 290.821 337.375C292.783 335.2 294.639 332.753 293.488 329.625C292.4 326.703 289.487 326.188 286.827 325.712C281.658 324.811 276.537 325.399 271.472 326.693C270.405 326.973 269.794 327.479 269.32 328.501C267.804 331.652 265.489 334.122 262.268 335.641C260.157 336.661 258.668 336.425 257.673 335.058C256.678 333.69 256.742 331.973 258.549 330.529C260.932 328.584 263.61 326.993 266.297 325.472C267.323 324.877 267.89 324.305 268.1 323.174C269.005 318.037 266.186 314.946 260.948 315.443C260.492 315.502 260.007 315.6 259.543 315.588C257.245 315.706 255.597 316.453 254.774 318.909C254.342 320.246 253.322 321.446 252.363 322.567C250.881 324.324 249.069 324.629 247.721 323.556C246.25 322.357 245.785 319.853 247.154 318.324C248.436 316.948 250.011 315.641 251.734 314.921C253.622 314.108 254.103 312.871 254.167 311.153C254.264 309.147 253.605 308.448 251.68 308.981C250.167 309.389 248.681 310.008 247.322 310.789C243.286 313.16 239.983 316.256 237.819 320.452C237.367 321.365 236.792 322.151 235.651 321.586C234.401 320.999 234.7 319.999 235.217 319.042C238.596 312.945 243.509 308.538 250.125 306.297C254.287 304.906 257.867 306.724 257.103 311.843C257.038 312.172 257.048 312.527 257.042 313.026C260.686 312.307 264.257 311.847 267.518 313.956C271.016 316.247 271.428 319.719 271.019 323.724C271.745 323.56 272.335 323.448 272.926 323.336C278.399 322.168 283.87 321.82 289.357 323.249C292.601 324.113 295.421 325.566 296.486 329.132C297.231 331.6 296.635 333.885 295.462 336.101C295.031 336.904 294.491 337.686 293.934 338.612C295.384 338.817 296.72 338.966 298.065 339.184C302.862 339.955 307.296 341.77 311.143 344.835C312.452 345.877 313.652 347.182 314.546 348.598C316.7 352.06 315.931 355.755 312.335 357.678C309.372 359.271 306.03 360.128 302.839 361.323C302.362 361.491 301.802 361.563 301.277 361.631C299.041 361.955 297.296 362.5 296.08 364.936C294.702 367.784 291.581 368.969 288.73 370.048C288.289 370.212 287.127 369.756 287.042 369.376C286.9 368.824 287.163 367.829 287.617 367.486C288.591 366.755 289.829 366.417 290.846 365.752C291.929 365.043 292.885 364.172 293.915 363.327C293.862 363.192 293.778 363.095 293.69 362.964ZM285.095 342.101C280.433 342.381 276.055 343.479 272.12 346.087C276.848 346.048 281.111 344.608 285.095 342.101ZM294.585 359.965C293.845 357.532 292.129 356.649 289.759 357.311C289.243 357.448 288.816 358.002 288.362 358.345C288.744 358.83 289.098 359.639 289.531 359.69C291.161 359.907 292.794 359.875 294.585 359.965ZM265.371 329.615C265.239 329.418 265.076 329.261 264.944 329.065C263.36 330.301 261.74 331.543 260.156 332.779C260.327 333.007 260.494 333.199 260.666 333.426C262.246 332.154 263.791 330.887 265.371 329.615Z" fill="#00D1FF"/>
<path d="M332.9 329.178C332.921 330.172 333.602 331.865 331.786 332.134C329.9 332.413 330.099 330.642 329.906 329.421C329.069 323.475 326.816 318.139 322.814 313.598C322.106 312.799 321.464 311.956 322.445 311.011C323.558 309.977 324.349 310.872 325.092 311.667C329.472 316.658 331.863 322.51 332.9 329.178Z" fill="#00D1FF"/>
<path d="M334.179 338.556C333.894 341.869 333.609 345.181 333.289 348.498C333.205 349.506 332.788 350.415 331.558 350.253C330.217 350.069 330.27 349.101 330.34 347.988C330.591 344.68 330.766 341.346 330.907 338.016C330.942 336.908 330.858 335.708 332.272 335.632C333.686 335.557 333.905 336.704 333.874 337.847C333.871 338.097 333.898 338.307 333.895 338.557C333.995 338.508 334.07 338.534 334.179 338.556Z" fill="#00D1FF"/>
</g>
<path d="M208.637 1080.2L208.639 1080.2L342.881 1033.66L208.637 1080.2ZM208.637 1080.2C193.067 1085.63 175.668 1082.04 163.165 1070.72L163.163 1070.72M208.637 1080.2L163.163 1070.72M163.163 1070.72L55.4939 973.834L55.4936 973.834M163.163 1070.72L55.4936 973.834M55.4936 973.834C43.0055 962.607 37.0937 945.264 40.2041 928.588L40.2042 928.587M55.4936 973.834L40.2042 928.587M40.2042 928.587L66.8817 785.144C66.8818 785.144 66.8818 785.144 66.8818 785.144C69.9924 768.468 81.523 754.851 97.199 749.395L231.441 702.854L231.443 702.853M40.2042 928.587L231.443 702.853M231.443 702.853C247.013 697.418 264.413 701.006 276.915 712.332L276.917 712.334M231.443 702.853L276.917 712.334M276.917 712.334L384.586 809.217L384.587 809.217M276.917 712.334L384.587 809.217M384.587 809.217C397.071 820.44 402.865 837.695 399.773 854.484L384.587 809.217ZM373.198 997.907L399.773 854.485L373.198 997.907ZM373.198 997.907C370.088 1014.58 358.558 1028.2 342.882 1033.66L373.198 997.907Z" fill="white" stroke="#00D1FF" stroke-width="2"/>
<g clip-path="url(#clip1)">
<path d="M217.469 894.621L346.638 969.597C346.168 969.284 345.437 969.337 344.706 969.806L215.537 894.777C216.268 894.36 216.947 894.308 217.469 894.621Z" fill="white"/>
<path d="M344.706 970.796C344.549 970.796 344.341 970.744 344.184 970.64L215.015 895.716C214.702 895.507 214.493 895.194 214.493 894.829C214.493 894.465 214.702 894.1 215.015 893.943C216.059 893.317 217.156 893.265 217.991 893.735L347.16 968.659C347.682 968.972 347.839 969.597 347.525 970.067C347.212 970.536 346.586 970.744 346.116 970.431C345.959 970.327 345.646 970.379 345.228 970.64C345.072 970.744 344.863 970.796 344.706 970.796Z" fill="#00D1FF"/>
<path d="M344.393 969.962L215.224 894.986C215.328 894.882 215.433 894.829 215.537 894.777L344.706 969.754C344.602 969.806 344.497 969.91 344.393 969.962Z" fill="white"/>
<path d="M344.393 971.005C344.236 971.005 344.027 970.953 343.871 970.849L214.702 895.924C214.389 895.768 214.18 895.403 214.18 895.09C214.18 894.725 214.336 894.412 214.597 894.204C214.754 894.1 214.859 893.995 215.015 893.943C215.328 893.735 215.746 893.735 216.059 893.943L345.228 968.919C345.541 969.128 345.75 969.441 345.75 969.806C345.75 970.171 345.541 970.536 345.228 970.692C345.124 970.744 345.072 970.796 344.967 970.849C344.811 970.953 344.602 971.005 344.393 971.005Z" fill="#00D1FF"/>
<path d="M251.563 1036.65L122.394 961.672L215.224 894.986L344.393 969.962L251.563 1036.65Z" fill="white"/>
<path d="M251.563 1037.69C251.406 1037.69 251.197 1037.64 251.04 1037.53L121.872 962.558C121.558 962.402 121.349 962.037 121.349 961.724C121.349 961.359 121.506 961.046 121.767 960.838L214.597 894.152C214.911 893.891 215.381 893.891 215.746 894.1L344.915 969.076C345.228 969.232 345.437 969.597 345.437 969.91C345.437 970.275 345.28 970.588 345.019 970.796L252.189 1037.48C251.98 1037.64 251.771 1037.69 251.563 1037.69ZM124.325 961.568L251.51 1035.4L342.461 970.067L215.276 896.237L124.325 961.568Z" fill="#00D1FF"/>
<path d="M249.996 1042.75L120.827 967.825C120.253 967.46 119.94 966.677 120.096 965.53C120.305 964.071 121.245 962.558 122.394 961.724L251.563 1036.7C250.414 1037.53 249.474 1039.1 249.265 1040.51C249.109 1041.6 249.422 1042.44 249.996 1042.75Z" fill="white"/>
<path d="M249.996 1043.79C249.84 1043.79 249.631 1043.74 249.474 1043.64L120.305 968.711C119.313 968.137 118.843 966.886 119.052 965.322C119.313 963.601 120.41 961.776 121.767 960.786C122.08 960.525 122.55 960.525 122.916 960.734L252.085 1035.71C252.398 1035.87 252.607 1036.23 252.607 1036.54C252.607 1036.91 252.45 1037.22 252.189 1037.43C251.249 1038.11 250.466 1039.36 250.309 1040.56C250.205 1041.29 250.362 1041.71 250.518 1041.81C251.04 1042.12 251.197 1042.75 250.884 1043.22C250.727 1043.64 250.362 1043.79 249.996 1043.79ZM122.498 962.923C121.819 963.653 121.245 964.644 121.088 965.635C120.984 966.365 121.141 966.782 121.297 966.886L248.117 1040.51C248.117 1040.45 248.117 1040.35 248.169 1040.3C248.325 1039.1 248.952 1037.85 249.787 1036.86L122.498 962.923Z" fill="#00D1FF"/>
<path d="M344.706 969.754C345.907 969.024 347.003 969.389 347.317 970.588L350.084 982.111C350.501 983.831 349.196 986.386 347.473 987.429L251.928 1042.59C250.257 1043.58 248.952 1042.54 249.265 1040.45C249.474 1038.99 250.414 1037.48 251.563 1036.65L344.393 969.962C344.497 969.91 344.602 969.806 344.706 969.754Z" fill="white"/>
<path d="M250.675 1044C250.205 1044 249.735 1043.84 249.318 1043.58C248.378 1042.96 248.012 1041.76 248.221 1040.3C248.482 1038.58 249.579 1036.75 250.936 1035.76L343.766 969.076C343.923 968.972 344.027 968.867 344.184 968.815C345.124 968.294 346.064 968.137 346.899 968.502C347.63 968.815 348.152 969.441 348.361 970.327L351.128 981.85C351.65 983.988 350.188 987.064 348.048 988.315L252.45 1043.48C251.824 1043.84 251.249 1044 250.675 1044ZM345.907 970.431C345.75 970.431 345.541 970.484 345.228 970.64C345.124 970.692 345.072 970.744 344.967 970.796L252.189 1037.48C251.249 1038.16 250.466 1039.41 250.31 1040.61C250.205 1041.29 250.362 1041.76 250.518 1041.86C250.675 1041.97 251.04 1041.91 251.406 1041.71L347.003 986.595C348.309 985.813 349.405 983.675 349.092 982.424L346.325 970.901C346.272 970.796 346.22 970.588 346.064 970.484C346.011 970.431 345.959 970.431 345.907 970.431Z" fill="#00D1FF"/>
<path d="M341.051 973.143L211.883 898.166C211.256 897.801 210.943 896.863 211.204 895.612L340.373 970.64C340.112 971.839 340.425 972.778 341.051 973.143Z" fill="white"/>
<path d="M341.051 974.185C340.895 974.185 340.686 974.133 340.529 974.029L211.36 899.105C210.316 898.479 209.846 897.071 210.16 895.455C210.212 895.142 210.473 894.829 210.734 894.725C211.047 894.569 211.413 894.621 211.674 894.777L340.895 969.702C341.26 969.91 341.469 970.379 341.417 970.796C341.26 971.631 341.417 972.1 341.574 972.204C342.096 972.517 342.252 973.143 341.939 973.612C341.782 974.029 341.417 974.185 341.051 974.185Z" fill="#00D1FF"/>
<path d="M236.369 783.147L365.538 858.123C365.277 857.967 364.964 858.019 364.598 858.228L235.43 783.251C235.795 782.991 236.16 782.991 236.369 783.147Z" fill="white"/>
<path d="M364.598 859.218C364.442 859.218 364.233 859.166 364.076 859.062L234.907 784.138C234.594 783.929 234.385 783.616 234.385 783.251C234.385 782.886 234.594 782.521 234.907 782.365C235.586 781.948 236.317 781.948 236.891 782.261L366.06 857.237C366.582 857.55 366.739 858.176 366.426 858.645C366.165 859.114 365.59 859.27 365.12 859.114H365.068C364.964 859.166 364.807 859.218 364.598 859.218Z" fill="#00D1FF"/>
<path d="M340.373 970.64L211.204 895.664L234.124 785.076L363.293 860.053L340.373 970.64Z" fill="white"/>
<path d="M340.373 971.683C340.216 971.683 340.007 971.631 339.851 971.526L210.682 896.55C210.316 896.341 210.107 895.872 210.16 895.455L233.08 784.92C233.132 784.607 233.393 784.294 233.654 784.19C233.968 784.033 234.333 784.086 234.594 784.242L363.867 859.166C364.233 859.375 364.442 859.844 364.389 860.261L341.469 970.796C341.417 971.109 341.156 971.422 340.895 971.526C340.686 971.631 340.529 971.683 340.373 971.683ZM212.405 895.142L339.694 969.024L362.197 860.626L234.855 786.745L212.405 895.142Z" fill="#00D1FF"/>
<path d="M363.293 860.053L234.124 785.076C234.281 784.294 234.803 783.564 235.43 783.199L364.598 858.176C364.024 858.541 363.45 859.323 363.293 860.053Z" fill="white"/>
<path d="M363.293 861.095C363.136 861.095 362.928 861.043 362.771 860.939L233.602 786.015C233.237 785.806 233.028 785.337 233.08 784.92C233.289 783.877 234.02 782.834 234.855 782.365C235.168 782.156 235.586 782.156 235.899 782.365L365.068 857.341C365.381 857.55 365.59 857.863 365.59 858.228C365.59 858.593 365.381 858.958 365.068 859.114C364.755 859.27 364.389 859.792 364.285 860.313C364.233 860.626 363.972 860.939 363.711 861.043C363.606 861.095 363.45 861.095 363.293 861.095ZM235.429 784.659L362.823 858.54C362.875 858.488 362.875 858.436 362.928 858.384L235.534 784.503C235.534 784.555 235.482 784.607 235.429 784.659Z" fill="#00D1FF"/>
<path d="M364.598 858.175C365.434 857.706 366.06 858.228 365.904 859.27L349.092 968.972C348.831 970.588 347.734 972.204 346.533 972.882C346.168 973.091 345.75 973.247 345.385 973.247L341.782 973.351C340.634 973.403 340.059 972.256 340.373 970.64L363.293 860.105C363.45 859.323 364.024 858.54 364.598 858.175Z" fill="white"/>
<path d="M341.73 974.394C340.999 974.394 340.373 974.081 339.903 973.56C339.276 972.83 339.067 971.683 339.328 970.431L362.249 859.896C362.458 858.853 363.189 857.811 364.024 857.341C364.755 856.924 365.538 856.924 366.112 857.289C366.739 857.706 367 858.54 366.896 859.427L350.084 969.128C349.823 971.005 348.517 972.934 347.003 973.82C346.481 974.133 345.907 974.29 345.385 974.29L341.782 974.394C341.782 974.394 341.782 974.394 341.73 974.394ZM364.859 859.323C364.651 859.583 364.442 859.896 364.337 860.261L341.417 970.796C341.26 971.526 341.365 971.996 341.521 972.152C341.573 972.204 341.626 972.256 341.782 972.256L345.385 972.152C345.594 972.152 345.803 972.048 346.011 971.943C347.003 971.37 347.891 970.014 348.1 968.763L364.859 859.323Z" fill="#00D1FF"/>
<path d="M170.219 980.442L198.83 961.672L233.393 980.442L204.312 1000.88L170.219 980.442Z" fill="white"/>
<path d="M204.312 1001.92C204.103 1001.92 203.947 1001.87 203.79 1001.77L169.749 981.329C169.435 981.12 169.227 980.807 169.227 980.442C169.227 980.077 169.383 979.764 169.696 979.556L198.256 960.786C198.569 960.577 198.987 960.577 199.352 960.734L233.915 979.504C234.229 979.66 234.438 980.025 234.438 980.338C234.438 980.703 234.281 981.068 234.02 981.276L204.939 1001.72C204.73 1001.87 204.521 1001.92 204.312 1001.92ZM172.203 980.39L204.26 999.63L231.409 980.547L198.882 962.871L172.203 980.39Z" fill="#00D1FF"/>
<path d="M171.367 935.915L287.275 1000.88L322.569 975.802L207.184 910.106L171.367 935.915Z" fill="white"/>
<path d="M287.275 1001.92C287.118 1001.92 286.909 1001.87 286.752 1001.77L170.897 936.802C170.584 936.645 170.375 936.332 170.375 935.967C170.375 935.602 170.532 935.29 170.793 935.081L206.557 909.272C206.87 909.011 207.34 909.011 207.706 909.22L323.143 974.915C323.456 975.072 323.665 975.437 323.665 975.75C323.665 976.115 323.509 976.427 323.248 976.636L287.901 1001.72C287.692 1001.87 287.483 1001.92 287.275 1001.92ZM173.351 935.811L287.222 999.682L320.689 975.958L207.236 911.358L173.351 935.811Z" fill="#00D1FF"/>
<path d="M237.466 794.566L217.104 892.692L335.883 961.672L356.662 864.432L237.466 794.566Z" fill="white"/>
<path d="M335.883 962.715C335.726 962.715 335.517 962.663 335.36 962.558L216.581 893.578C216.216 893.37 216.007 892.9 216.059 892.483L236.421 794.357C236.474 794.044 236.735 793.731 236.996 793.627C237.309 793.471 237.675 793.523 237.936 793.679L357.132 863.494C357.498 863.702 357.707 864.172 357.602 864.589L336.875 961.881C336.822 962.193 336.561 962.506 336.3 962.611C336.144 962.663 335.987 962.715 335.883 962.715ZM218.304 892.17L335.152 960.056L355.461 864.954L238.197 796.234L218.304 892.17Z" fill="#00D1FF"/>
<path d="M335.099 960.994C335.099 960.994 335.047 960.994 335.099 960.994C334.473 960.942 334.003 960.473 334.055 959.899C334.473 951.453 334.838 942.693 333.272 934.247C332.071 927.677 329.043 918.605 321.577 912.4C318.81 910.106 315.52 908.281 312.283 906.561C307.689 904.058 302.938 901.451 299.544 897.332C297.769 895.194 296.933 893.109 296.933 891.128C296.986 888.886 298.134 886.956 299.335 885.132C300.693 883.15 302.155 881.221 303.564 879.396C306.123 876.059 308.785 872.618 310.665 868.864C313.223 863.702 314.633 856.299 310.822 850.876C308.159 847.122 303.094 844.828 297.612 844.932C291.974 845.036 286.7 847.278 282.732 849.26C278.869 851.189 274.065 853.952 271.35 858.28C269.105 861.825 268.374 865.996 267.643 870.428C267.382 871.94 267.121 873.505 266.756 875.069C266.599 875.851 266.234 877.519 264.824 878.353C263.78 878.979 262.631 878.875 261.535 878.666C259.133 878.249 256.731 877.571 254.434 876.894C252.711 876.372 250.988 875.903 249.213 875.486C243.157 874.13 237.257 874.234 232.192 875.903C226.502 877.728 221.803 881.482 219.296 886.227C219.035 886.748 218.409 886.956 217.887 886.644C217.365 886.383 217.156 885.757 217.469 885.236C220.236 880.022 225.405 875.851 231.618 873.869C237.048 872.149 243.313 871.992 249.735 873.452C251.563 873.869 253.338 874.391 255.061 874.912C257.306 875.59 259.603 876.268 261.9 876.633C262.579 876.737 263.31 876.841 263.728 876.581C264.25 876.268 264.511 875.486 264.667 874.652C264.981 873.192 265.242 871.628 265.503 870.115C266.286 865.684 267.069 861.095 269.523 857.237C272.551 852.492 277.668 849.52 281.74 847.487C285.917 845.401 291.451 843.055 297.508 842.951C303.669 842.847 309.412 845.454 312.44 849.781C316.774 855.934 315.259 864.172 312.44 869.907C310.456 873.87 307.741 877.363 305.131 880.804C303.721 882.629 302.259 884.506 300.954 886.435C299.753 888.208 298.918 889.72 298.918 891.284C298.918 892.744 299.596 894.412 301.058 896.133C304.191 899.991 308.576 902.338 313.171 904.84C316.46 906.613 319.854 908.49 322.778 910.941C330.714 917.51 333.899 927.104 335.152 933.986C336.77 942.641 336.352 951.557 335.935 960.108C336.091 960.577 335.621 960.994 335.099 960.994Z" fill="#00D1FF"/>
<path d="M287.222 901.92C282.523 901.92 278.085 901.034 274.17 899.209C265.085 895.038 259.342 885.601 260.491 876.737C260.543 876.164 261.065 875.746 261.639 875.851C262.214 875.903 262.631 876.424 262.527 876.998C261.483 884.975 266.756 893.474 275.005 897.28C282.158 900.565 291.19 900.617 300.432 897.489C300.954 897.28 301.58 897.593 301.737 898.114C301.946 898.636 301.632 899.261 301.11 899.418C296.359 901.086 291.66 901.92 287.222 901.92Z" fill="#00D1FF"/>
<path d="M313.067 863.754C313.014 863.754 312.962 863.754 312.91 863.754C309.829 863.389 307.01 861.46 305.548 858.749C305.444 858.541 305.339 858.332 305.235 858.176C304.974 857.654 304.765 857.185 304.452 856.872C303.669 856.038 302.155 855.986 300.693 856.038C300.118 856.038 299.596 856.09 299.022 856.142C295.994 856.299 292.809 856.455 289.728 855.881C285.395 855.099 282.001 852.805 280.331 849.677C280.069 849.155 280.278 848.53 280.748 848.269C281.27 848.008 281.897 848.217 282.158 848.686C283.515 851.241 286.387 853.118 290.094 853.796C292.965 854.317 295.941 854.161 298.865 854.004C299.44 853.952 299.962 853.952 300.536 853.9C302.52 853.796 304.504 853.9 305.861 855.36C306.436 855.934 306.749 856.611 307.062 857.185C307.167 857.341 307.219 857.55 307.323 857.706C308.472 859.844 310.717 861.356 313.119 861.669C313.693 861.721 314.111 862.242 314.006 862.816C314.059 863.389 313.589 863.754 313.067 863.754Z" fill="#00D1FF"/>
<path d="M281.375 879.813C279.6 879.813 277.824 879.553 276.154 878.979C275.632 878.771 275.318 878.197 275.475 877.676C275.684 877.154 276.258 876.841 276.78 876.998C280.748 878.353 285.186 877.832 288.789 875.694C289.259 875.381 289.937 875.538 290.198 876.059C290.512 876.529 290.355 877.206 289.833 877.467C287.327 879.031 284.351 879.813 281.375 879.813Z" fill="#00D1FF"/>
</g>
<path d="M889.839 514.262L889.841 514.261L1023.77 467.828L889.839 514.262ZM889.839 514.262C874.306 519.684 856.947 516.105 844.474 504.806L844.472 504.803M889.839 514.262L844.472 504.803M844.472 504.803L737.051 408.144L737.05 408.144M844.472 504.803L737.05 408.144M737.05 408.144C724.592 396.943 718.694 379.641 721.797 363.004L721.797 363.003M737.05 408.144L721.797 363.003M721.797 363.003L748.413 219.891C748.413 219.891 748.413 219.891 748.413 219.89C751.516 203.253 763.02 189.669 778.659 184.226L912.592 137.792L912.594 137.791M721.797 363.003L912.594 137.791M912.594 137.791C928.127 132.369 945.486 135.949 957.959 147.248L957.961 147.25M912.594 137.791L957.961 147.25M957.961 147.25L1065.38 243.91L1065.38 243.91M957.961 147.25L1065.38 243.91M1065.38 243.91C1077.84 255.107 1083.62 272.32 1080.53 289.07L1065.38 243.91ZM1054.02 432.163L1080.53 289.071L1054.02 432.163ZM1054.02 432.163C1050.92 448.799 1039.41 462.384 1023.77 467.828L1054.02 432.163Z" fill="white" stroke="#00D1FF" stroke-width="2"/>
<g clip-path="url(#clip2)">
<path d="M850.161 428.931C850.161 428.931 895.296 398.684 904.699 369.138C914.101 339.592 911.361 289.936 911.361 289.936L1028.71 295.058C1028.71 295.058 1031.45 356.899 1014.96 404.183C999.266 449.311 964.394 466.78 964.394 466.78L850.161 428.931Z" fill="white"/>
<path d="M964.394 467.858C964.287 467.858 964.179 467.858 964.072 467.804L849.839 429.955C849.463 429.847 849.14 429.47 849.087 429.093C849.033 428.661 849.194 428.284 849.57 428.068C850 427.745 894.49 397.66 903.731 368.815C912.919 339.754 910.34 290.475 910.287 289.99C910.287 289.667 910.394 289.397 910.609 289.181C910.824 288.966 911.093 288.858 911.415 288.858L1028.76 293.98C1029.3 293.98 1029.79 294.465 1029.79 295.004C1029.84 295.651 1032.36 357.6 1015.98 404.507C1007.76 428.068 994.322 443.973 984.49 453.193C973.797 463.221 965.2 467.588 964.824 467.75C964.716 467.804 964.555 467.858 964.394 467.858ZM852.525 428.553L964.287 465.593C968.102 463.491 999.481 445.429 1013.99 403.752C1029.09 360.458 1027.96 304.17 1027.69 296.029L912.49 291.068C912.812 298.832 914.263 342.612 905.719 369.462C897.284 395.988 861.176 422.515 852.525 428.553Z" fill="#00D1FF"/>
<path d="M901.958 423.755C901.851 423.647 902.066 423.324 902.442 423.108C902.818 422.892 903.248 422.731 903.355 422.892C903.463 423.054 903.248 423.324 902.872 423.539C902.496 423.755 902.066 423.863 901.958 423.755Z" fill="white"/>
<path d="M902.119 424.887C901.743 424.887 901.421 424.779 901.206 424.51C900.937 424.24 900.83 423.917 900.884 423.539C900.937 422.892 901.475 422.461 901.904 422.191C902.818 421.598 903.624 421.598 904.161 422.084C904.43 422.353 904.537 422.677 904.484 423.054C904.43 423.701 903.893 424.132 903.463 424.402C902.979 424.725 902.549 424.887 902.119 424.887ZM902.334 422.731C902.281 423 902.334 423.324 902.603 423.593C902.71 423.701 902.872 423.809 902.979 423.809C903.033 423.539 902.979 423.216 902.71 422.946C902.603 422.838 902.442 422.784 902.334 422.731Z" fill="#00D1FF"/>
<path d="M903.409 422.892C903.409 422.838 903.409 422.838 903.409 422.892C903.248 422.73 902.872 422.838 902.442 423.108C902.066 423.377 901.851 423.647 901.958 423.755C900.884 422.569 899.755 421.329 898.681 420.143C898.466 419.873 898.896 419.28 899.755 418.741C900.561 418.202 901.475 417.986 901.69 418.255C901.69 418.255 901.743 418.309 901.743 418.363C902.334 419.819 902.872 421.329 903.409 422.892Z" fill="white"/>
<path d="M901.958 424.833C901.69 424.833 901.367 424.725 901.152 424.456L897.875 420.843C897.606 420.574 897.498 420.142 897.552 419.765C897.66 418.849 898.627 418.148 899.164 417.824C900.239 417.123 901.69 416.692 902.442 417.447C902.603 417.608 902.657 417.77 902.764 417.932L904.376 422.515C904.591 423.054 904.269 423.701 903.731 423.863C903.516 423.917 903.301 423.97 903.087 423.917C903.033 423.917 903.033 423.97 902.979 423.97C902.979 423.97 902.979 423.97 902.925 423.97C902.872 424.186 902.764 424.348 902.603 424.51C902.496 424.725 902.227 424.833 901.958 424.833ZM899.97 419.873L901.958 422.083C901.958 422.083 901.958 422.083 902.012 422.083L900.991 419.226C900.83 419.28 900.615 419.388 900.346 419.549C900.185 419.711 900.024 419.819 899.97 419.873Z" fill="#00D1FF"/>
<path d="M901.958 423.755C900.884 422.569 899.755 421.329 898.681 420.142L901.958 423.755Z" fill="white"/>
<path d="M901.958 424.833C901.743 424.833 901.475 424.779 901.313 424.617C901.26 424.564 901.206 424.564 901.206 424.51L897.928 420.897C897.552 420.466 897.552 419.819 897.982 419.388C898.412 419.01 899.057 419.01 899.487 419.388L899.54 419.442L902.764 423.054C903.14 423.485 903.14 424.132 902.764 424.51C902.549 424.725 902.227 424.833 901.958 424.833Z" fill="#00D1FF"/>
<path d="M901.743 418.255C902.281 419.765 902.818 421.329 903.355 422.838C903.409 423 903.194 423.216 902.818 423.485C902.442 423.755 902.012 423.863 901.904 423.701L898.627 420.088C898.896 420.358 899.755 420.088 900.561 419.603C901.421 419.118 901.851 418.579 901.743 418.255Z" fill="white"/>
<path d="M902.119 424.887C901.743 424.887 901.421 424.779 901.206 424.51L897.928 420.843C897.552 420.412 897.552 419.765 897.982 419.334C898.304 419.01 898.788 418.956 899.164 419.118C899.325 419.064 899.701 418.956 900.131 418.687C900.454 418.471 900.669 418.309 900.722 418.202C900.776 417.77 901.045 417.393 901.421 417.285C901.958 417.069 902.603 417.393 902.818 417.932L904.43 422.515C904.645 423.162 904.322 423.863 903.463 424.402C902.979 424.725 902.549 424.887 902.119 424.887ZM900.776 420.789L902.012 422.191L901.367 420.412C901.313 420.466 901.26 420.466 901.206 420.52C901.099 420.628 900.937 420.736 900.776 420.789Z" fill="#00D1FF"/>
<path d="M901.743 418.525C901.797 418.417 901.797 418.309 901.69 418.202C901.421 417.932 900.561 418.202 899.755 418.687C898.949 419.172 898.466 419.873 898.681 420.089C898.573 420.089 896.048 419.549 893.791 417.77C893.039 417.177 891.91 416.099 890.782 414.967C889.815 413.996 888.902 413.026 888.74 412.864C888.149 412.271 887.612 411.678 887.021 411.031C886.322 410.276 886 409.899 885.946 409.845C884.872 408.766 886.86 406.124 890.352 403.86C893.845 401.596 897.552 400.679 898.573 401.703C898.681 401.811 898.734 401.919 898.788 402.081C898.842 402.296 899.057 402.782 899.272 403.536C899.54 404.291 900.024 405.855 900.239 406.556C900.937 408.712 901.313 410.006 901.475 410.707C901.69 411.516 901.904 412.271 902.012 412.972C902.119 413.565 902.227 414.589 902.173 415.883C902.173 416.746 902.012 417.77 901.743 418.525Z" fill="white"/>
<path d="M898.681 421.221C898.627 421.221 898.519 421.221 898.466 421.221C898.197 421.167 895.51 420.574 893.093 418.687C892.394 418.148 891.319 417.123 889.976 415.775C888.955 414.751 888.042 413.781 887.934 413.673L887.397 413.08C887.021 412.648 886.645 412.271 886.269 411.84C885.624 411.139 885.301 410.761 885.194 410.653C884.764 410.222 884.549 409.575 884.657 408.928C884.872 406.879 887.504 404.561 889.869 403.051C893.254 400.895 897.713 399.331 899.433 401.056C899.648 401.272 899.809 401.542 899.916 401.811C899.97 402.027 900.185 402.566 900.4 403.267C900.669 404.076 901.206 405.585 901.421 406.286C902.119 408.443 902.496 409.737 902.657 410.438C902.872 411.3 903.087 412.055 903.194 412.756C903.301 413.403 903.463 414.481 903.355 415.937C903.301 416.962 903.087 418.094 902.818 418.902C902.603 419.442 902.012 419.765 901.475 419.603C901.313 419.549 901.152 419.442 901.045 419.334C900.884 419.388 900.615 419.496 900.4 419.657C900.131 419.819 899.97 419.981 899.863 420.089C899.863 420.304 899.809 420.466 899.755 420.682C899.433 421.005 899.11 421.221 898.681 421.221ZM886.752 409.144C886.806 409.198 887.128 409.575 887.827 410.33C888.203 410.761 888.579 411.139 888.955 411.57L889.493 412.163C889.654 412.325 890.513 413.241 891.481 414.212C892.77 415.506 893.737 416.422 894.382 416.962C895.672 417.986 897.069 418.525 897.928 418.849C898.304 418.417 898.788 418.04 899.11 417.824C899.648 417.447 900.346 417.177 900.937 417.069C900.991 416.638 901.045 416.207 901.099 415.775C901.152 414.589 901.045 413.673 900.991 413.134C900.884 412.487 900.722 411.786 900.507 410.977C900.293 410.276 899.97 409.036 899.272 406.879C899.057 406.232 898.573 404.669 898.304 403.914C898.09 403.267 897.875 402.728 897.821 402.512C897.337 402.189 894.49 402.512 890.943 404.831C887.827 406.825 886.699 408.659 886.752 409.144Z" fill="#00D1FF"/>
<path d="M893.845 417.824C894.221 418.148 894.973 418.741 896.316 419.334C897.284 419.765 898.304 420.089 898.896 420.196C898.788 420.196 898.734 420.142 898.681 420.089C898.573 420.089 896.048 419.549 893.791 417.77C893.039 417.177 891.91 416.099 890.782 414.967C891.481 415.667 892.931 417.123 893.845 417.824Z" fill="white"/>
<path d="M898.896 421.383C898.842 421.383 898.788 421.49 898.734 421.49C898.09 421.49 897.015 420.951 895.887 420.412C894.49 419.765 893.63 419.064 893.2 418.741C892.716 418.363 892.072 417.77 891.481 417.177C891.051 416.746 890.567 416.261 889.976 415.721C889.546 415.29 889.546 414.589 889.976 414.212C890.406 413.78 891.051 413.78 891.481 414.212C891.857 414.589 892.394 415.128 892.931 415.668C893.522 416.207 894.006 416.638 894.382 416.961C896.424 418.579 898.734 419.064 898.842 419.064C898.949 419.064 899.057 419.118 899.164 419.172C899.648 419.334 899.97 419.927 899.863 420.412C899.863 420.951 899.433 421.383 898.896 421.383Z" fill="#00D1FF"/>
<path d="M890.782 414.967C888.525 412.702 886.161 410.06 885.946 409.845C886 409.899 886.591 410.546 886.698 410.653C887.397 411.408 887.827 411.839 887.827 411.839C888.149 412.163 888.418 412.486 888.74 412.81C889.063 413.133 889.385 413.511 889.761 413.834C890.03 414.212 890.46 414.643 890.782 414.967Z" fill="white"/>
<path d="M890.782 416.045C890.513 416.045 890.245 415.937 890.03 415.721C889.707 415.398 889.385 415.074 889.063 414.751C889.009 414.697 889.009 414.697 888.955 414.643C888.901 414.589 888.848 414.481 888.74 414.427C888.472 414.158 888.203 413.888 887.988 413.619L887.934 413.565C887.719 413.349 887.558 413.133 887.343 412.972L887.021 412.594L886.967 412.54C886.86 412.379 886.484 412.001 885.893 411.354C885.785 411.246 885.14 410.546 885.087 410.492C884.71 410.06 884.764 409.359 885.194 408.982C885.624 408.605 886.322 408.605 886.698 409.036C887.128 409.521 888.203 410.707 889.493 412.055L889.815 412.433C889.976 412.594 890.084 412.702 890.245 412.864C890.352 412.972 890.406 413.026 890.513 413.133C890.782 413.457 891.158 413.834 891.481 414.104C891.91 414.535 891.91 415.182 891.481 415.614C891.319 415.937 891.051 416.045 890.782 416.045Z" fill="#00D1FF"/>
<path d="M898.896 420.196C898.251 420.089 897.445 419.819 896.961 419.603C895.887 419.172 895.134 418.741 894.973 418.579C894.167 418.04 893.898 417.878 893.093 417.123C892.77 416.854 892.125 416.207 890.782 414.913C888.525 412.648 886.161 410.006 885.946 409.791C887.021 410.869 890.675 409.899 894.167 407.634C897.337 405.639 899.218 403.213 898.788 402.027C899.594 404.345 900.293 406.448 900.293 406.448C900.346 406.664 900.454 406.933 900.507 407.149C900.561 407.418 900.83 408.281 900.937 408.551C901.206 409.467 901.313 409.737 901.528 410.599C901.69 411.193 901.904 412.001 902.066 412.81C902.496 415.182 902.066 417.447 901.743 418.417C901.636 418.741 901.26 419.172 900.669 419.549C899.97 420.035 899.272 420.25 898.896 420.196Z" fill="white"/>
<path d="M899.057 421.383C898.949 421.383 898.842 421.49 898.734 421.49C897.767 420.951 896.854 420.843 896.585 420.736C895.403 420.25 894.597 419.711 894.382 419.549C893.469 418.956 893.2 418.741 892.394 417.986C892.072 417.716 891.373 417.069 890.03 415.721C887.988 413.619 885.785 411.246 885.194 410.599C884.818 410.168 884.818 409.467 885.248 409.09C885.678 408.712 886.322 408.658 886.752 409.09C887.182 409.467 890.03 409.09 893.63 406.825C896.8 404.777 897.928 402.889 897.821 402.458C897.606 401.919 897.928 401.272 898.466 401.11C899.003 400.895 899.648 401.218 899.809 401.757C900.615 404.076 901.313 406.232 901.313 406.232C901.367 406.34 901.421 406.502 901.475 406.664L901.528 406.879C901.582 407.149 901.904 408.011 901.958 408.281C902.227 409.198 902.334 409.521 902.549 410.33C902.71 410.923 902.925 411.786 903.087 412.648C903.516 415.074 903.14 417.447 902.71 418.795C902.442 419.549 901.636 420.25 901.152 420.52C900.937 420.789 899.97 421.383 899.057 421.383ZM888.687 411.246C889.546 412.163 890.567 413.187 891.534 414.212C892.824 415.506 893.469 416.099 893.791 416.368C894.597 417.069 894.758 417.177 895.564 417.716C895.672 417.824 896.37 418.202 897.391 418.633C897.821 418.795 898.519 419.064 899.11 419.172C899.218 419.172 899.648 419.064 900.131 418.741C900.561 418.471 900.776 418.202 900.776 418.148C901.045 417.393 901.421 415.29 901.045 413.133C900.884 412.379 900.722 411.57 900.561 410.977C900.346 410.168 900.239 409.845 899.97 408.982C899.863 408.712 899.594 407.85 899.54 407.58L899.487 407.364C899.433 407.203 899.379 407.041 899.325 406.879C899.325 406.879 899.11 406.232 898.788 405.262C897.767 406.502 896.263 407.742 894.812 408.712C892.824 409.845 890.621 410.923 888.687 411.246Z" fill="#00D1FF"/>
<path d="M898.734 401.919C898.681 401.865 898.627 401.811 898.573 401.757C897.499 400.679 893.845 401.649 890.352 403.914C887.021 406.017 885.087 408.551 885.785 409.683L862.627 370.756C861.928 369.57 863.863 367.089 867.194 364.987C870.687 362.722 874.394 361.806 875.415 362.83C875.469 362.884 875.522 362.938 875.576 362.992C882.561 374.692 891.803 390.273 898.734 401.919Z" fill="white"/>
<path d="M885.839 410.761C885.463 410.761 885.087 410.546 884.872 410.222L861.713 371.295C860.478 369.246 863.325 366.173 866.603 364.07C869.988 361.914 874.448 360.35 876.167 362.075C876.275 362.183 876.382 362.345 876.49 362.453L899.648 401.38C899.97 401.865 899.809 402.566 899.272 402.836C898.788 403.159 898.143 402.997 897.821 402.458C897.391 402.081 894.543 402.458 890.943 404.723C887.773 406.771 886.645 408.658 886.752 409.09C887.075 409.575 886.86 410.222 886.376 410.546C886.215 410.707 886 410.761 885.839 410.761ZM874.125 363.477C873.051 363.477 870.687 364.07 867.839 365.903C864.669 367.952 863.54 369.839 863.648 370.271L885.409 406.933C886.376 405.531 887.988 404.13 889.761 402.997C891.91 401.649 894.436 400.517 896.478 400.302L874.663 363.585C874.609 363.477 874.394 363.477 874.125 363.477Z" fill="#00D1FF"/>
<path d="M885.785 409.683L862.627 370.756C862.681 370.81 862.734 370.864 862.788 370.917L885.946 409.845C885.893 409.791 885.839 409.737 885.785 409.683Z" fill="white"/>
<path d="M885.946 410.923C885.678 410.923 885.409 410.815 885.194 410.599C885.087 410.492 884.979 410.33 884.872 410.222L861.713 371.295C861.391 370.81 861.552 370.109 862.09 369.839C862.627 369.516 863.272 369.677 863.54 370.217C863.594 370.271 863.648 370.324 863.701 370.378L886.86 409.305C887.128 409.791 887.021 410.384 886.591 410.707C886.43 410.869 886.161 410.923 885.946 410.923Z" fill="#00D1FF"/>
<path d="M875.576 362.992L898.734 401.919C899.433 403.105 897.498 405.585 894.167 407.688C890.675 409.952 886.967 410.869 885.946 409.845L862.788 370.917C863.863 371.996 867.516 371.025 871.009 368.761C874.34 366.712 876.275 364.178 875.576 362.992Z" fill="white"/>
<path d="M887.397 411.354C886.484 411.354 885.731 411.139 885.194 410.599C885.14 410.546 885.087 410.492 885.033 410.384L861.875 371.457C861.606 370.971 861.713 370.378 862.143 370.055C862.573 369.731 863.164 369.785 863.54 370.163C863.97 370.54 866.818 370.163 870.418 367.898C873.588 365.849 874.716 363.962 874.609 363.531C874.287 363.046 874.501 362.399 874.985 362.075C875.469 361.752 876.167 361.967 876.49 362.453L899.648 401.38C900.884 403.429 898.036 406.502 894.758 408.605C892.394 410.168 889.493 411.354 887.397 411.354ZM886.752 409.144C887.343 409.413 890.137 409.036 893.576 406.825C896.746 404.777 897.875 402.889 897.767 402.458L875.952 365.742C874.985 367.143 873.373 368.545 871.6 369.677C869.451 371.025 866.925 372.158 864.937 372.373L886.752 409.144Z" fill="#00D1FF"/>
<path d="M864.131 371.457C862.734 371.726 861.66 371.618 861.176 371.079L862.842 370.917C863.272 371.349 864.185 371.457 865.313 371.241C864.884 371.349 864.507 371.403 864.131 371.457Z" fill="white"/>
<path d="M862.842 372.697C861.767 372.697 860.961 372.427 860.37 371.834C860.101 371.511 859.994 371.079 860.101 370.702C860.263 370.324 860.585 370.055 861.015 370.001L862.681 369.839C863.003 369.839 863.325 369.947 863.54 370.163C863.594 370.217 864.078 370.217 865.045 370.217C865.636 370.217 866.173 370.486 866.281 371.079C866.388 371.672 866.012 372.212 865.421 372.319L864.239 372.535C863.809 372.643 863.272 372.697 862.842 372.697Z" fill="#00D1FF"/>
<path d="M874.77 365.58C875.684 364.394 876.006 363.423 875.415 362.83C874.34 361.752 870.687 362.722 867.194 364.987C863.701 367.251 861.713 369.893 862.788 370.971L861.122 371.133C859.887 369.839 862.251 366.658 866.442 363.962C870.633 361.267 875.039 360.134 876.328 361.428C876.973 362.129 876.651 363.315 875.522 364.717C875.307 364.933 875.039 365.31 874.77 365.58Z" fill="white"/>
<path d="M861.176 372.158C860.907 372.158 860.639 372.05 860.424 371.834C860.101 371.457 859.672 370.864 859.779 369.893C860.048 367.521 863.11 364.771 865.904 362.992C870.042 360.35 875.2 358.679 877.081 360.566C877.564 361.051 878.531 362.561 876.382 365.31L875.63 366.227C875.254 366.712 874.609 366.766 874.125 366.389C873.642 366.011 873.588 365.364 873.964 364.879C874.555 364.124 874.663 363.693 874.663 363.531C874.125 363.208 871.331 363.585 867.785 365.849C864.669 367.844 863.54 369.677 863.594 370.163C863.863 370.432 863.97 370.864 863.809 371.241C863.648 371.618 863.325 371.888 862.896 371.942L861.23 372.104C861.23 372.158 861.176 372.158 861.176 372.158Z" fill="#00D1FF"/>
<path d="M865.313 371.241C864.937 371.295 864.561 371.403 864.131 371.457C866.066 371.133 868.591 370.055 871.009 368.491C872.997 367.251 874.555 365.849 875.522 364.609L874.77 365.526C873.964 366.55 872.675 367.683 871.009 368.761C869.021 370.109 866.872 370.971 865.313 371.241Z" fill="white"/>
<path d="M864.131 372.535C863.594 372.535 863.164 372.158 863.057 371.672C862.949 371.079 863.325 370.54 863.916 370.432C865.743 370.109 868.215 369.031 870.418 367.629C872.191 366.496 873.696 365.202 874.663 364.016C875.039 363.531 875.684 363.477 876.167 363.855C876.651 364.232 876.704 364.879 876.328 365.364L875.576 366.281C874.663 367.467 873.212 368.653 871.546 369.731C869.451 371.079 867.248 371.996 865.421 372.319L864.293 372.535C864.239 372.535 864.185 372.535 864.131 372.535Z" fill="#00D1FF"/>
<path d="M876.49 361.59C876.436 361.536 876.382 361.428 876.328 361.374C875.093 360.08 870.633 361.267 866.442 363.908C862.466 366.442 860.155 369.462 860.961 370.864C851.881 355.39 842.746 339.97 833.612 324.496C832.806 323.148 835.116 320.183 838.985 317.703C843.069 315.061 847.421 313.929 848.657 315.223C848.71 315.277 848.764 315.384 848.818 315.438C858.06 330.804 867.248 346.17 876.49 361.59Z" fill="white"/>
<path d="M860.961 371.942C860.585 371.942 860.263 371.726 860.048 371.403L832.699 325.035C831.355 322.717 834.579 319.212 838.394 316.786C842.424 314.198 847.528 312.527 849.409 314.414C849.516 314.522 849.624 314.683 849.731 314.845L877.403 360.997C877.94 361.482 877.672 362.183 877.134 362.453C876.651 362.776 875.791 362.615 875.791 362.075H875.684C875.093 361.482 871.331 362.075 867.087 364.771C862.842 367.467 861.713 369.839 861.928 370.271C862.251 370.81 862.036 371.457 861.552 371.726C861.337 371.888 861.176 371.942 860.961 371.942ZM847.045 315.762C845.648 315.762 842.746 316.571 839.576 318.619C835.493 321.207 834.364 323.58 834.579 323.957L860.531 367.952C861.606 366.227 863.648 364.448 865.904 362.992C868.645 361.267 871.815 359.919 874.179 359.757L847.904 315.977C847.743 315.816 847.475 315.762 847.045 315.762Z" fill="#00D1FF"/>
<path d="M860.961 370.864C851.881 355.39 842.746 339.97 833.612 324.496C833.666 324.55 833.719 324.658 833.773 324.712L861.122 371.079C861.069 371.025 861.015 370.918 860.961 370.864Z" fill="white"/>
<path d="M861.176 372.158C860.907 372.158 860.639 372.05 860.424 371.834C860.316 371.726 860.155 371.565 860.101 371.403H860.155L832.86 325.035C832.322 324.496 832.591 323.849 833.128 323.58C833.666 323.256 834.472 323.472 834.472 323.957C834.472 324.011 834.687 324.119 834.687 324.173L862.09 370.54C862.358 371.025 862.251 371.618 861.821 371.942C861.606 372.104 861.391 372.158 861.176 372.158Z" fill="#00D1FF"/>
<path d="M848.818 315.438C858.06 330.804 867.248 346.224 876.49 361.59C877.349 362.992 874.985 366.011 871.009 368.545C866.818 371.241 862.412 372.373 861.122 371.079L833.773 324.712C835.009 325.952 839.307 324.82 843.445 322.232C847.367 319.698 849.624 316.786 848.818 315.438Z" fill="white"/>
<path d="M862.842 372.643C861.821 372.643 860.961 372.373 860.37 371.834C860.316 371.78 860.263 371.726 860.209 371.618L832.86 325.251C832.591 324.766 832.699 324.173 833.128 323.849C833.558 323.526 834.149 323.58 834.525 323.957C835.116 324.55 838.716 323.957 842.854 321.315C846.937 318.673 848.066 316.355 847.851 315.977C847.528 315.492 847.69 314.791 848.227 314.522C848.71 314.198 849.409 314.36 849.678 314.899L877.349 361.051C878.746 363.369 875.415 366.982 871.546 369.462C868.698 371.295 865.313 372.643 862.842 372.643ZM861.982 370.378C862.734 370.864 866.334 370.27 870.418 367.629C874.609 364.933 875.791 362.507 875.522 362.129L849.301 318.296C848.227 319.967 846.239 321.746 844.036 323.148C841.403 324.82 838.287 326.114 835.976 326.275L861.982 370.378Z" fill="#00D1FF"/>
<path d="M848.925 315.6C848.872 315.438 848.764 315.33 848.657 315.223C847.421 313.983 843.122 315.115 838.985 317.703C834.955 320.291 832.645 323.364 833.719 324.658C833.451 324.334 832.699 323.202 833.236 320.992C833.343 320.452 833.666 319.644 834.203 318.673C834.472 318.242 834.794 317.811 834.794 317.811C835.17 317.325 835.385 317.11 835.707 316.786C835.922 316.57 836.352 316.139 836.621 315.977C837.158 315.546 837.373 315.384 837.803 315.115C837.964 315.007 838.824 314.468 839.952 314.036C841.564 313.389 843.122 313.174 844.627 313.282C846.185 313.443 847.045 313.929 847.367 314.09C847.69 314.144 848.549 314.683 848.925 315.6Z" fill="white"/>
<path d="M833.773 325.736C833.451 325.736 833.182 325.628 832.967 325.359C832.591 324.927 831.624 323.418 832.269 320.722C832.43 320.129 832.752 319.212 833.343 318.134C833.612 317.703 833.934 317.217 834.042 317.164C834.472 316.624 834.687 316.409 835.009 316.031C835.224 315.762 835.707 315.33 836.03 315.115C836.621 314.63 836.836 314.468 837.319 314.198C837.481 314.09 838.448 313.497 839.63 313.012C841.403 312.311 843.122 312.042 844.788 312.203C846.615 312.365 847.582 312.904 847.958 313.12C848.388 313.336 849.355 313.983 849.839 315.115C849.839 315.169 849.893 315.223 849.893 315.277C850.107 315.816 849.839 316.463 849.301 316.678C848.764 316.894 848.119 316.624 847.904 316.085C847.313 315.492 843.713 316.085 839.576 318.727C836.46 320.722 834.633 322.825 834.472 323.903C834.472 324.011 834.418 324.065 834.418 324.119C834.955 324.55 834.848 325.251 834.364 325.628C834.149 325.628 833.988 325.736 833.773 325.736ZM843.606 314.252C842.531 314.252 841.457 314.522 840.382 314.953C839.361 315.384 838.555 315.87 838.448 315.924C838.018 316.193 837.857 316.301 837.319 316.732C837.104 316.894 836.675 317.271 836.513 317.487C836.191 317.811 836.03 317.972 835.707 318.458C835.6 318.619 835.331 318.943 835.17 319.212C835.17 319.266 835.116 319.32 835.116 319.374C836.03 318.511 837.158 317.649 838.448 316.84C840.06 315.708 841.94 314.845 843.606 314.252Z" fill="#00D1FF"/>
<path d="M848.281 314.683C848.388 314.791 848.71 315.169 848.925 315.6C849.463 317.002 847.206 319.859 843.498 322.232C839.415 324.873 835.063 326.006 833.827 324.712C833.773 324.658 832.806 323.526 834.042 320.668C835.224 317.811 838.448 315.6 838.609 315.492C838.448 315.6 835.224 317.811 834.042 320.668C832.86 323.526 833.827 324.658 833.827 324.712L833.773 324.658C833.128 323.849 832.913 322.501 833.29 321.045C833.451 320.452 833.612 320.075 833.612 320.075C833.719 319.805 833.881 319.482 833.988 319.212C834.042 319.051 834.149 318.835 834.257 318.673C834.364 318.458 834.848 317.703 835.707 316.84C836.513 315.977 837.427 315.384 837.588 315.277C837.964 315.007 838.824 314.468 840.006 313.983C842.209 313.12 843.821 313.174 844.842 313.282C845.809 313.389 846.507 313.605 846.83 313.767C847.636 314.036 848.066 314.468 848.281 314.683Z" fill="white"/>
<path d="M835.493 326.275C834.472 326.275 833.612 326.006 833.075 325.467C833.021 325.413 833.021 325.413 832.967 325.359C832.054 324.28 831.785 322.555 832.269 320.776C832.43 320.183 832.591 319.698 832.645 319.59C832.752 319.32 832.913 318.943 833.021 318.727C833.128 318.565 833.236 318.296 833.343 318.134C833.558 317.811 834.042 317.002 834.955 316.031C835.869 315.115 836.836 314.468 836.997 314.306C837.427 314.037 838.34 313.39 839.63 312.904C842.048 311.934 843.821 311.988 844.949 312.096C846.024 312.203 846.884 312.473 847.26 312.635C848.227 313.066 848.818 313.551 849.087 313.821C849.248 313.983 849.678 314.468 849.946 315.115C850.913 317.595 847.367 320.938 844.09 323.04C841.188 324.927 837.857 326.275 835.493 326.275ZM834.633 324.011C835.331 324.496 838.878 323.903 842.907 321.315C846.884 318.781 848.119 316.463 847.904 315.977C847.851 315.816 847.69 315.654 847.528 315.438C847.421 315.33 847.045 315.007 846.4 314.737C846.131 314.63 845.54 314.414 844.681 314.306C843.767 314.198 842.37 314.198 840.382 314.953C840.113 315.061 839.845 315.169 839.63 315.277C839.63 315.33 839.63 315.384 839.63 315.438C839.63 315.762 839.469 316.139 839.146 316.301C838.018 317.11 835.815 318.997 834.955 321.046C834.525 322.016 834.418 322.717 834.418 323.202C834.472 323.687 834.579 323.903 834.633 324.011Z" fill="#00D1FF"/>
<path d="M836.836 325.251C836.836 325.251 838.77 339.215 843.391 347.895C846.669 354.096 853.009 359.218 856.394 361.59C857.254 362.237 857.039 363.585 856.072 363.908C855.534 364.07 854.997 364.016 854.513 363.747C852.042 362.291 844.251 357.115 840.382 349.136C835.761 339.592 833.29 324.82 833.29 324.82L836.836 325.251Z" fill="white"/>
<path d="M855.427 365.095C854.89 365.095 854.406 364.933 853.922 364.663C851.504 363.208 843.391 357.87 839.361 349.621C834.794 340.024 832.322 325.574 832.215 324.981C832.161 324.658 832.269 324.28 832.484 324.065C832.699 323.795 833.075 323.687 833.397 323.741L836.943 324.173C837.427 324.227 837.803 324.604 837.857 325.089C837.857 325.251 839.845 338.945 844.304 347.356C847.475 353.341 853.6 358.301 856.985 360.673C857.737 361.213 858.113 362.075 857.952 362.992C857.791 363.908 857.2 364.609 856.34 364.933C856.072 365.041 855.749 365.095 855.427 365.095ZM834.579 326.06C835.331 329.995 837.642 341.102 841.296 348.65C845.003 356.414 852.74 361.428 854.997 362.776C855.212 362.884 855.427 362.938 855.642 362.83C855.749 362.776 855.803 362.722 855.803 362.614C855.803 362.507 855.803 362.453 855.696 362.399C852.149 359.865 845.755 354.689 842.37 348.327C838.394 340.725 836.406 329.348 835.869 326.221L834.579 326.06Z" fill="#00D1FF"/>
<path d="M1007.16 325.413H1007.11L927.427 320.884C926.836 320.83 926.406 320.345 926.406 319.752C926.46 319.158 926.943 318.727 927.534 318.727L1007.22 323.256C1007.81 323.31 1008.24 323.795 1008.24 324.388C1008.19 324.981 1007.76 325.413 1007.16 325.413Z" fill="#00D1FF"/>
<path d="M1007.16 345.361C1007.11 345.361 1007.11 345.361 1007.06 345.361L927.373 336.681C926.782 336.627 926.352 336.088 926.406 335.495C926.46 334.902 926.997 334.471 927.588 334.524L1007.27 343.205C1007.86 343.259 1008.29 343.798 1008.24 344.391C1008.19 344.984 1007.7 345.361 1007.16 345.361Z" fill="#00D1FF"/>
<path d="M1002.87 367.036C1002.81 367.036 1002.76 367.036 1002.7 367.036L924.579 353.988C923.988 353.88 923.612 353.341 923.719 352.748C923.827 352.155 924.364 351.777 924.955 351.885L1003.03 364.879C1003.62 364.987 1003.99 365.526 1003.89 366.119C1003.83 366.658 1003.35 367.036 1002.87 367.036Z" fill="#00D1FF"/>
<path d="M998.137 388.278C998.084 388.278 997.976 388.278 997.869 388.225L919.743 370.109C919.152 370.001 918.83 369.408 918.937 368.815C919.045 368.222 919.636 367.898 920.227 368.006L998.352 386.122C998.943 386.23 999.266 386.823 999.158 387.416C999.051 387.955 998.621 388.278 998.137 388.278Z" fill="#00D1FF"/>
<path d="M908.621 416.315L910.985 430.926L939.516 409.683" fill="white"/>
<path d="M910.985 432.004C910.824 432.004 910.716 432.004 910.555 431.95C910.233 431.788 909.964 431.519 909.91 431.141L907.546 416.476C907.439 415.883 907.869 415.344 908.46 415.236C909.051 415.128 909.588 415.56 909.696 416.153L911.791 429.039L938.925 408.82C939.409 408.443 940.054 408.551 940.43 409.036C940.806 409.521 940.699 410.168 940.215 410.546L911.684 431.842C911.469 431.95 911.2 432.004 910.985 432.004Z" fill="#00D1FF"/>
</g>
<path d="M874.178 1088.08L874.18 1088.08L1014 1039.6L874.178 1088.08ZM874.178 1088.08C857.947 1093.74 839.808 1090 826.775 1078.2L826.772 1078.19M874.178 1088.08L826.772 1078.19M826.772 1078.19L714.628 977.285L714.628 977.285M826.772 1078.19L714.628 977.285M714.628 977.285C701.61 965.582 695.448 947.504 698.69 930.12L698.69 930.12M714.628 977.285L698.69 930.12M698.69 930.12L726.476 780.715C726.476 780.714 726.476 780.714 726.477 780.714C729.719 763.33 741.739 749.136 758.081 743.448L897.903 694.972L897.905 694.972M698.69 930.12L897.905 694.972M897.905 694.972C914.136 689.306 932.275 693.046 945.308 704.853L945.311 704.855M897.905 694.972L945.311 704.855M945.311 704.855L1057.45 805.765L1057.46 805.765M945.311 704.855L1057.46 805.765M1057.46 805.765C1070.47 817.464 1076.51 835.451 1073.29 852.952L1057.46 805.765ZM1045.61 1002.34L1073.29 852.953L1045.61 1002.34ZM1045.61 1002.34C1042.36 1019.72 1030.34 1033.91 1014 1039.6L1045.61 1002.34Z" fill="white" stroke="#00D1FF" stroke-width="2"/>
<g clip-path="url(#clip3)">
<path d="M869.407 805.561L875.927 801.759C877.685 800.738 880.066 800.908 882.731 802.44L876.211 806.242C873.546 804.71 871.108 804.539 869.407 805.561Z" fill="white"/>
<path d="M876.211 807.376C876.041 807.376 875.814 807.32 875.644 807.206C873.432 805.901 871.391 805.674 869.974 806.525C869.407 806.866 868.726 806.639 868.443 806.128C868.103 805.561 868.329 804.88 868.84 804.596L875.36 800.794C877.571 799.546 880.35 799.773 883.298 801.475C883.638 801.702 883.865 802.043 883.865 802.44C883.865 802.837 883.638 803.234 883.298 803.404L876.778 807.206C876.607 807.32 876.381 807.376 876.211 807.376ZM874.169 804.142C874.85 804.312 875.53 804.596 876.211 804.993L880.293 802.61C878.819 802.156 877.515 802.213 876.494 802.78L874.169 804.142Z" fill="#00D1FF"/>
<path d="M1015.92 963.81L1009.4 967.612C1011.1 966.591 1012.18 964.491 1012.18 961.427L1018.7 957.626C1018.7 960.69 1017.62 962.846 1015.92 963.81Z" fill="white"/>
<path d="M1009.4 968.747C1009 968.747 1008.6 968.52 1008.43 968.179C1008.09 967.612 1008.32 966.931 1008.83 966.647C1010.25 965.796 1011.04 963.981 1011.04 961.484C1011.04 961.087 1011.27 960.69 1011.61 960.519L1018.13 956.718C1018.47 956.491 1018.92 956.491 1019.26 956.718C1019.6 956.945 1019.83 957.285 1019.83 957.682C1019.83 961.03 1018.64 963.583 1016.48 964.832L1009.96 968.633C1009.79 968.69 1009.57 968.747 1009.4 968.747ZM1013.31 962.108C1013.25 962.846 1013.2 963.527 1013.03 964.208L1015.35 962.846C1016.37 962.278 1017.05 961.2 1017.34 959.782L1013.31 962.108Z" fill="#00D1FF"/>
<path d="M1012.4 895.949L1018.87 892.204L1018.7 957.682L1012.18 961.427L1012.4 895.949Z" fill="white"/>
<path d="M1012.18 962.562C1012.01 962.562 1011.78 962.505 1011.61 962.392C1011.27 962.165 1011.04 961.825 1011.04 961.427L1011.21 895.949C1011.21 895.551 1011.44 895.154 1011.78 894.984L1018.3 891.182C1018.64 890.955 1019.09 890.955 1019.43 891.182C1019.77 891.409 1020 891.75 1020 892.147L1019.83 957.682C1019.83 958.08 1019.6 958.477 1019.26 958.647L1012.74 962.449C1012.57 962.562 1012.4 962.562 1012.18 962.562ZM1013.54 896.629L1013.37 959.498L1017.62 957.058L1017.79 894.19L1013.54 896.629Z" fill="#00D1FF"/>
<path d="M876.211 806.242L882.731 802.44L1009.34 875.579L1002.82 879.38L876.211 806.242Z" fill="white"/>
<path d="M1002.82 880.515C1002.65 880.515 1002.42 880.458 1002.25 880.345L875.644 807.206C875.303 806.979 875.077 806.639 875.077 806.241C875.077 805.844 875.303 805.447 875.644 805.277L882.164 801.475C882.504 801.248 882.958 801.248 883.298 801.475L1009.91 874.614C1010.25 874.841 1010.47 875.181 1010.47 875.579C1010.47 875.976 1010.25 876.373 1009.91 876.543L1003.39 880.345C1003.22 880.458 1002.99 880.515 1002.82 880.515ZM878.479 806.241L1002.82 878.075L1007.07 875.579L882.731 803.745L878.479 806.241Z" fill="#00D1FF"/>
<path d="M1002.82 879.38L1009.34 875.579C1014.61 878.643 1018.92 886.076 1018.92 892.147L1012.4 895.949C1012.4 889.877 1008.09 882.444 1002.82 879.38Z" fill="white"/>
<path d="M1012.4 897.083C1012.23 897.083 1012.01 897.027 1011.84 896.913C1011.5 896.686 1011.27 896.346 1011.27 895.949C1011.27 890.218 1007.24 883.239 1002.25 880.345C1001.91 880.118 1001.69 879.777 1001.69 879.38C1001.69 878.983 1001.91 878.586 1002.25 878.416L1008.77 874.614C1009.11 874.387 1009.57 874.387 1009.91 874.614C1015.52 877.848 1020.06 885.735 1020.06 892.147C1020.06 892.544 1019.83 892.941 1019.49 893.112L1012.97 896.913C1012.8 897.027 1012.57 897.083 1012.4 897.083ZM1004.97 879.437C1009.28 882.728 1012.74 888.629 1013.42 894.019L1017.79 891.466C1017.51 886.076 1013.88 879.777 1009.34 876.884L1004.97 879.437Z" fill="#00D1FF"/>
<path d="M1002.82 879.38C1008.09 882.444 1012.4 889.877 1012.4 895.949L1012.23 961.427C1012.23 967.499 1007.92 969.995 1002.59 966.931L875.984 893.792C870.711 890.728 866.402 883.295 866.402 877.224L866.572 811.745C866.572 805.674 870.881 803.177 876.211 806.241L1002.82 879.38Z" fill="white"/>
<path d="M1006.9 969.371C1005.37 969.371 1003.73 968.86 1002.03 967.896L875.417 894.757C869.804 891.523 865.268 883.636 865.268 877.167L865.438 811.689C865.438 808.341 866.628 805.788 868.84 804.539C871.051 803.291 873.829 803.518 876.778 805.22L1003.39 878.416C1009 881.65 1013.54 889.537 1013.54 895.949L1013.37 961.427C1013.37 964.775 1012.18 967.328 1009.96 968.577C1009 969.144 1007.98 969.371 1006.9 969.371ZM871.901 806.071C871.164 806.071 870.541 806.241 869.974 806.582C868.556 807.433 867.762 809.249 867.706 811.745L867.536 877.224C867.536 882.955 871.561 889.934 876.551 892.828L1003.16 965.967C1005.37 967.215 1007.36 967.499 1008.83 966.647C1010.25 965.796 1011.1 963.981 1011.1 961.484L1011.27 896.005C1011.27 890.274 1007.24 883.295 1002.25 880.402L875.644 807.206C874.283 806.468 873.035 806.071 871.901 806.071Z" fill="#00D1FF"/>
<path d="M991.083 876.033L877.174 810.213C872.752 807.66 869.18 809.703 869.18 814.753L869.01 877.962C869.01 883.012 872.582 889.196 876.948 891.75L990.857 957.569C995.279 960.122 998.851 958.08 998.851 953.03L999.021 889.821C999.021 884.714 995.449 878.586 991.083 876.033Z" fill="white"/>
<path d="M994.429 959.782C993.125 959.782 991.707 959.385 990.29 958.534L876.381 892.714C871.618 889.934 867.876 883.466 867.876 877.962L868.046 814.753C868.046 811.916 869.066 809.703 870.938 808.625C872.809 807.547 875.247 807.717 877.741 809.192L991.65 875.011C996.413 877.791 1000.16 884.26 1000.16 889.764L999.985 952.973C999.985 955.81 998.965 958.023 997.093 959.101C996.243 959.555 995.336 959.782 994.429 959.782ZM873.602 810.27C873.035 810.27 872.525 810.384 872.072 810.667C870.938 811.348 870.314 812.823 870.314 814.809L870.144 877.962C870.144 882.671 873.432 888.402 877.515 890.728L991.424 956.548C993.181 957.569 994.826 957.796 995.959 957.115C997.093 956.434 997.717 955.016 997.717 952.973L997.887 889.764C997.887 885.054 994.599 879.323 990.516 876.997L876.607 811.178C875.53 810.554 874.51 810.27 873.602 810.27Z" fill="#00D1FF"/>
<path d="M1004.24 913.992C1002.71 913.141 1001.52 913.822 1001.52 915.581L1001.46 929.766C1001.46 931.525 1002.65 933.624 1004.18 934.475C1005.71 935.327 1006.9 934.646 1006.9 932.887L1006.96 918.702C1006.9 916.999 1005.71 914.9 1004.24 913.992Z" fill="white"/>
<path d="M1005.37 936.064C1004.86 936.064 1004.29 935.951 1003.61 935.554C1001.74 934.475 1000.33 932.036 1000.33 929.823L1000.38 915.638C1000.38 914.389 1000.89 913.368 1001.74 912.857C1002.59 912.347 1003.67 912.403 1004.8 913.027C1006.68 914.106 1008.09 916.545 1008.09 918.758L1008.04 932.943C1008.04 934.192 1007.53 935.213 1006.68 935.724C1006.34 935.894 1005.94 936.064 1005.37 936.064ZM1002.99 914.786C1002.93 914.786 1002.88 914.786 1002.88 914.786C1002.82 914.843 1002.65 915.07 1002.65 915.581L1002.59 929.766C1002.59 931.128 1003.56 932.83 1004.75 933.511C1005.14 933.738 1005.43 933.795 1005.54 933.681C1005.6 933.624 1005.77 933.397 1005.77 932.887L1005.83 918.702C1005.83 917.34 1004.86 915.638 1003.67 914.957C1003.39 914.843 1003.16 914.786 1002.99 914.786Z" fill="#00D1FF"/>
<path d="M966.249 943.441C966.192 943.441 966.079 943.441 966.022 943.441C965.399 943.327 965.002 942.703 965.172 942.079C967.383 931.752 967.667 923.014 965.909 915.297C963.811 905.935 958.595 898.048 951.507 893.792L951.054 893.509C949.523 892.601 947.822 891.58 947.085 889.707C946.971 889.367 946.631 888.969 946.348 888.572C946.064 888.175 945.724 887.721 945.497 887.267C943.853 884.033 945.781 882.274 947.595 880.515C948.559 879.607 949.579 878.586 950.487 877.224C953.548 872.571 952.698 868.373 951.394 865.706C949.409 861.393 944.93 857.932 940.734 857.422C940.167 857.365 939.657 857.308 939.09 857.195C934.044 856.514 929.678 855.946 927.297 859.691C925.652 862.301 925.482 866.33 925.255 870.245C925.085 873.196 924.972 876.26 924.178 878.699C923.838 879.721 923.271 881.196 921.91 881.934C920.89 882.501 919.756 882.501 918.962 882.501C916.297 882.331 913.916 881.366 911.591 880.402C909.777 879.664 908.076 878.983 906.318 878.643C901.782 877.792 896.622 879.494 892.823 883.012C889.478 886.132 886.983 890.672 885.679 896.119C885.509 896.743 884.942 897.083 884.319 896.97C883.695 896.8 883.355 896.232 883.468 895.608C884.886 889.707 887.55 884.827 891.236 881.366C895.545 877.338 901.498 875.465 906.715 876.43C908.699 876.827 910.627 877.565 912.441 878.302C914.709 879.21 916.864 880.061 919.132 880.231C919.926 880.288 920.436 880.175 920.833 880.004C921.343 879.721 921.74 879.097 922.08 878.018C922.761 875.862 922.931 873.082 923.044 870.132C923.271 865.933 923.498 861.564 925.426 858.5C928.544 853.506 934.044 854.244 939.43 854.925C939.997 854.982 940.508 855.038 941.075 855.152C946.064 855.776 951.167 859.691 953.548 864.741C955.646 869.28 955.249 874.16 952.471 878.472C951.451 880.061 950.203 881.196 949.239 882.161C947.312 883.976 946.745 884.6 947.595 886.246C947.765 886.53 947.992 886.87 948.219 887.21C948.616 887.721 949.012 888.232 949.239 888.856C949.693 889.991 950.94 890.728 952.244 891.523L952.698 891.806C960.296 896.402 965.909 904.8 968.12 914.786C969.935 922.844 969.651 931.922 967.383 942.533C967.213 943.1 966.759 943.441 966.249 943.441Z" fill="#00D1FF"/>
<path d="M943.966 894.984C934.838 894.984 925.709 890.672 920.266 883.352C919.982 883.012 919.586 882.444 919.302 882.388C918.678 882.331 918.225 881.763 918.281 881.139C918.338 880.515 918.905 880.061 919.529 880.118C920.833 880.231 921.57 881.253 922.08 881.934C928.431 890.445 940.054 894.53 950.317 891.863C950.94 891.693 951.564 892.09 951.677 892.658C951.847 893.282 951.451 893.906 950.884 894.019C948.616 894.7 946.291 894.984 943.966 894.984Z" fill="#00D1FF"/>
<path d="M950.26 871.493C947.425 871.493 945.781 870.245 944.647 869.337C944.023 868.827 943.569 868.543 943.286 868.543C943.002 868.543 942.605 868.713 942.209 868.883L941.925 868.997C935.518 871.664 928.261 868.429 924.348 863.89C923.951 863.436 924.008 862.699 924.462 862.301C924.915 861.904 925.652 861.961 926.049 862.415C929.395 866.387 935.631 869.167 941.018 866.897L941.245 866.784C941.755 866.557 942.379 866.33 943.059 866.273C944.25 866.216 945.1 866.897 945.951 867.521C947.425 868.656 949.069 869.905 953.322 868.713C953.945 868.543 954.569 868.883 954.739 869.507C954.909 870.132 954.569 870.756 953.945 870.926C952.528 871.323 951.337 871.493 950.26 871.493Z" fill="#00D1FF"/>
<path d="M938.75 883.239C936.822 883.239 934.951 882.898 933.137 882.161C932.57 881.934 932.286 881.253 932.513 880.685C932.74 880.118 933.42 879.834 933.987 880.061C936.198 880.912 938.637 881.196 941.018 880.742C941.642 880.629 942.209 881.026 942.322 881.65C942.435 882.274 942.038 882.841 941.415 882.955C940.508 883.182 939.6 883.239 938.75 883.239Z" fill="#00D1FF"/>
<path d="M917.091 938.901C917.091 938.901 892.54 951.725 881.37 968.804C870.2 985.883 858.18 1018 858.18 1018L864.927 1021.35C864.927 1021.35 883.355 980.492 890.102 971.244C896.849 961.995 923.271 943.27 923.271 943.27C923.271 943.27 936.255 979.301 940.734 996.38C945.214 1013.46 944.703 1046.71 944.703 1046.71H953.378C953.378 1046.71 953.378 1014.25 950.033 992.748C946.688 971.244 933.363 945.029 933.363 945.029C933.363 945.029 945.837 950.249 960.693 970.676C975.548 991.103 978.043 1007.95 978.043 1007.95L984.79 1007.39C984.79 1007.39 978.723 974.364 964.548 960.973C950.373 947.583 939.43 938.901 939.43 938.901H917.091Z" fill="white"/>
<path d="M953.322 1047.84H944.647C944.363 1047.84 944.08 1047.73 943.853 1047.5C943.626 1047.28 943.513 1046.99 943.513 1046.71C943.513 1046.37 944.023 1013.4 939.6 996.72C935.631 981.797 925.085 951.952 922.647 945.143C917.374 948.944 896.679 964.151 890.952 971.981C884.375 981.003 866.118 1021.46 865.891 1021.86C865.778 1022.14 865.551 1022.37 865.268 1022.48C864.984 1022.59 864.644 1022.59 864.36 1022.42L857.613 1019.02C857.103 1018.74 856.876 1018.17 857.046 1017.6C857.16 1017.26 869.293 985.145 880.35 968.179C891.519 951.044 915.503 938.391 916.524 937.88C916.694 937.823 916.864 937.766 917.034 937.766H939.317C939.6 937.766 939.827 937.88 939.997 937.993C940.111 938.107 951.11 946.845 965.172 960.122C979.46 973.627 985.527 1005.8 985.754 1007.16C985.81 1007.5 985.754 1007.78 985.527 1008.07C985.357 1008.3 985.017 1008.47 984.733 1008.52L977.986 1009.09C977.419 1009.15 976.852 1008.69 976.795 1008.12C976.795 1007.95 974.187 991.273 959.672 971.357C949.466 957.342 940.394 950.533 935.858 947.753C939.487 955.47 948.445 975.556 951.054 992.578C954.342 1013.97 954.399 1046.37 954.399 1046.71C954.399 1046.99 954.286 1047.28 954.059 1047.5C953.832 1047.73 953.605 1047.84 953.322 1047.84ZM945.837 1045.57H952.188C952.131 1039.67 951.791 1011.87 948.842 992.918C945.554 971.811 932.456 945.824 932.286 945.597C932.059 945.2 932.116 944.632 932.456 944.292C932.796 943.951 933.307 943.838 933.704 944.008C934.214 944.235 946.631 949.569 961.486 970.052C974.414 987.812 978.043 1002.73 978.836 1006.76L983.316 1006.42C982.068 1000.35 975.831 973.4 963.641 961.825C950.94 949.796 940.791 941.568 938.92 940.036H917.318C914.766 941.398 892.54 953.711 882.277 969.428C872.412 984.578 861.639 1011.98 859.541 1017.49L864.304 1019.87C867.309 1013.23 882.901 979.13 889.081 970.619C895.829 961.314 921.4 943.157 922.477 942.362C922.761 942.136 923.158 942.079 923.498 942.192C923.838 942.306 924.121 942.533 924.235 942.873C924.348 943.214 937.276 979.13 941.755 996.096C945.894 1011.53 945.894 1039.45 945.837 1045.57Z" fill="#00D1FF"/>
<path d="M936.936 932.546L917.147 921.028L921.683 918.418L941.528 929.936L936.936 932.546Z" fill="white"/>
<path d="M936.936 933.681C936.765 933.681 936.539 933.624 936.369 933.511L916.58 921.993C916.24 921.766 916.013 921.425 916.013 921.028C916.013 920.631 916.24 920.234 916.58 920.063L921.116 917.453C921.457 917.226 921.91 917.226 922.25 917.453L942.038 928.972C942.379 929.199 942.605 929.539 942.605 929.936C942.605 930.333 942.379 930.731 942.038 930.901L937.503 933.511C937.332 933.624 937.162 933.681 936.936 933.681ZM919.415 921.028L936.936 931.241L939.204 929.936L921.683 919.723L919.415 921.028Z" fill="#00D1FF"/>
<path d="M932.74 947.81L912.895 936.291L912.838 910.417L932.626 921.936L932.74 947.81Z" fill="white"/>
<path d="M932.74 948.944C932.57 948.944 932.343 948.888 932.173 948.774L912.385 937.256C912.045 937.029 911.818 936.688 911.818 936.291L911.761 910.417C911.761 910.02 911.988 909.623 912.328 909.453C912.668 909.226 913.122 909.226 913.462 909.453L933.25 920.971C933.59 921.198 933.817 921.539 933.817 921.936L933.874 947.81C933.874 948.207 933.647 948.604 933.307 948.774C933.08 948.888 932.91 948.944 932.74 948.944ZM914.029 935.61L931.549 945.824L931.492 922.56L913.972 912.347L914.029 935.61Z" fill="#00D1FF"/>
<path d="M932.626 921.936L912.838 910.417L917.091 907.921L936.936 919.439L932.626 921.936Z" fill="white"/>
<path d="M932.626 923.071C932.456 923.071 932.229 923.014 932.059 922.9L912.271 911.382C911.931 911.155 911.704 910.815 911.704 910.417C911.704 910.02 911.931 909.623 912.271 909.453L916.524 907.013C916.864 906.786 917.318 906.786 917.658 907.013L937.446 918.531C937.786 918.758 938.013 919.099 938.013 919.496C938.013 919.893 937.786 920.29 937.446 920.461L933.193 922.9C933.023 923.014 932.853 923.071 932.626 923.071ZM915.106 910.417L932.626 920.631L934.611 919.496L917.091 909.283L915.106 910.417Z" fill="#00D1FF"/>
<path d="M936.936 919.439V932.546L941.528 929.936V942.703L932.74 947.81L932.626 921.936L936.936 919.439Z" fill="white"/>
<path d="M932.74 948.944C932.57 948.944 932.343 948.888 932.173 948.774C931.833 948.547 931.606 948.207 931.606 947.81L931.549 921.936C931.549 921.539 931.776 921.141 932.116 920.971L936.369 918.531C936.709 918.304 937.162 918.304 937.503 918.531C937.843 918.758 938.07 919.099 938.07 919.496L938.126 930.617L940.961 928.972C941.301 928.745 941.755 928.745 942.095 928.972C942.435 929.199 942.662 929.539 942.662 929.936L942.719 942.703C942.719 943.1 942.492 943.497 942.152 943.667L933.307 948.774C933.08 948.888 932.91 948.944 932.74 948.944ZM933.76 922.56L933.817 945.824L940.394 942.022L940.337 931.865L937.503 933.511C937.162 933.738 936.709 933.738 936.369 933.511C936.028 933.284 935.802 932.944 935.802 932.546L935.745 921.425L933.76 922.56Z" fill="#00D1FF"/>
<path d="M861.129 1027.93C865.544 1027.93 869.123 1024.35 869.123 1019.93C869.123 1015.51 865.544 1011.93 861.129 1011.93C856.713 1011.93 853.134 1015.51 853.134 1019.93C853.134 1024.35 856.713 1027.93 861.129 1027.93Z" fill="white"/>
<path d="M861.129 1029.06C856.082 1029.06 852 1024.98 852 1019.93C852 1014.88 856.082 1010.79 861.129 1010.79C866.175 1010.79 870.257 1014.88 870.257 1019.93C870.257 1024.98 866.175 1029.06 861.129 1029.06ZM861.129 1013.06C857.33 1013.06 854.268 1016.13 854.268 1019.93C854.268 1023.73 857.33 1026.79 861.129 1026.79C864.927 1026.79 867.989 1023.73 867.989 1019.93C867.989 1016.13 864.927 1013.06 861.129 1013.06Z" fill="#00D1FF"/>
<path d="M981.558 1016.69C985.973 1016.69 989.552 1013.11 989.552 1008.69C989.552 1004.27 985.973 1000.69 981.558 1000.69C977.143 1000.69 973.563 1004.27 973.563 1008.69C973.563 1013.11 977.143 1016.69 981.558 1016.69Z" fill="white"/>
<path d="M981.558 1017.83C976.512 1017.83 972.429 1013.74 972.429 1008.69C972.429 1003.64 976.512 999.557 981.558 999.557C986.604 999.557 990.686 1003.64 990.686 1008.69C990.686 1013.74 986.604 1017.83 981.558 1017.83ZM981.558 1001.77C977.759 1001.77 974.697 1004.83 974.697 1008.64C974.697 1012.44 977.759 1015.5 981.558 1015.5C985.357 1015.5 988.419 1012.44 988.419 1008.64C988.419 1004.89 985.357 1001.77 981.558 1001.77Z" fill="#00D1FF"/>
<path d="M948.672 1056.87C953.088 1056.87 956.667 1053.28 956.667 1048.86C956.667 1044.45 953.088 1040.86 948.672 1040.86C944.257 1040.86 940.678 1044.45 940.678 1048.86C940.678 1053.28 944.257 1056.87 948.672 1056.87Z" fill="white"/>
<path d="M948.672 1058C943.626 1058 939.544 1053.91 939.544 1048.86C939.544 1043.81 943.626 1039.73 948.672 1039.73C953.719 1039.73 957.801 1043.81 957.801 1048.86C957.801 1053.91 953.662 1058 948.672 1058ZM948.672 1041.94C944.873 1041.94 941.812 1045.01 941.812 1048.81C941.812 1052.61 944.873 1055.67 948.672 1055.67C952.471 1055.67 955.533 1052.61 955.533 1048.81C955.533 1045.06 952.414 1041.94 948.672 1041.94Z" fill="#00D1FF"/>
</g>
<path d="M1118.56 614.928L1116.56 614.89L1118.56 614.928ZM1025.91 848.96C1025.92 850.065 1026.82 850.95 1027.93 850.938L1045.93 850.736C1047.03 850.724 1047.92 849.818 1047.9 848.714C1047.89 847.609 1046.99 846.724 1045.88 846.736L1029.88 846.916L1029.7 830.917C1029.69 829.812 1028.79 828.927 1027.68 828.939C1026.58 828.952 1025.69 829.857 1025.7 830.961L1025.91 848.96ZM1041.18 387.261C1069.68 422.345 1118.88 490.87 1116.56 614.89L1120.56 614.965C1122.9 489.658 1073.12 420.237 1044.28 384.739L1041.18 387.261ZM1116.56 614.89C1114.46 727.115 1064.67 808.48 1026.48 847.54L1029.34 850.336C1068.15 810.643 1118.44 728.335 1120.56 614.965L1116.56 614.89Z" fill="black"/>
<path d="M572.911 1181.56L572.948 1179.56L572.911 1181.56ZM338.878 1088.91C337.774 1088.92 336.888 1089.82 336.901 1090.93L337.102 1108.93C337.115 1110.03 338.02 1110.92 339.125 1110.9C340.229 1110.89 341.114 1109.99 341.102 1108.88L340.923 1092.88L356.922 1092.7C358.026 1092.69 358.912 1091.79 358.899 1090.68C358.887 1089.58 357.981 1088.69 356.877 1088.7L338.878 1088.91ZM800.577 1104.18C765.493 1132.68 696.968 1181.88 572.948 1179.56L572.873 1183.56C698.18 1185.9 767.601 1136.12 803.1 1107.28L800.577 1104.18ZM572.948 1179.56C460.724 1177.46 379.358 1127.67 340.299 1089.48L337.502 1092.34C377.195 1131.15 459.503 1181.44 572.873 1183.56L572.948 1179.56Z" fill="black"/>
<defs>
<clipPath id="clip0">
<rect width="159.808" height="178.609" fill="white" transform="translate(330.794 262.54) rotate(82.6599)"/>
</clipPath>
<clipPath id="clip1">
<rect width="248" height="262" fill="white" transform="translate(119 782)"/>
</clipPath>
<clipPath id="clip2">
<rect width="198" height="179" fill="white" transform="translate(832 288.858)"/>
</clipPath>
<clipPath id="clip3">
<rect width="168" height="258" fill="white" transform="translate(852 800)"/>
</clipPath>
</defs>
</svg>
