<svg width="711" height="672" viewBox="0 0 711 672" fill="none" xmlns="http://www.w3.org/2000/svg">
<path d="M243.021 348.848H238.989V359H233.193V333.8H238.989V343.988H243.165L249.789 333.8H255.945L247.701 345.968L256.197 359H249.573L243.021 348.848ZM282.138 333.8L271.41 353.744C270.378 355.664 269.13 357.116 267.666 358.1C266.226 359.084 264.654 359.576 262.95 359.576C261.63 359.576 260.262 359.288 258.846 358.712L260.25 354.284C261.258 354.596 262.098 354.752 262.77 354.752C263.49 354.752 264.138 354.584 264.714 354.248C265.29 353.888 265.818 353.336 266.298 352.592L266.514 352.304L256.578 333.8H262.806L269.502 347.336L276.414 333.8H282.138ZM306.952 333.8V359H301.192V338.552H292.552L292.372 343.808C292.252 347.384 291.964 350.288 291.508 352.52C291.052 354.728 290.284 356.432 289.204 357.632C288.148 358.808 286.66 359.396 284.74 359.396C283.948 359.396 282.988 359.264 281.86 359L282.22 354.068C282.532 354.164 282.88 354.212 283.264 354.212C284.656 354.212 285.628 353.396 286.18 351.764C286.732 350.108 287.08 347.528 287.224 344.024L287.584 333.8H306.952ZM313.246 333.8H319.042V350.216L331.066 333.8H336.538V359H330.778V342.62L318.754 359H313.246V333.8ZM365.924 333.8V359H360.092V348.668H348.644V359H342.812V333.8H348.644V343.736H360.092V333.8H365.924ZM389.302 353.6H377.602L375.37 359H369.394L380.626 333.8H386.386L397.654 359H391.534L389.302 353.6ZM387.466 349.172L383.47 339.524L379.474 349.172H387.466ZM411.904 333.8C414.136 333.8 416.068 334.172 417.7 334.916C419.356 335.66 420.628 336.716 421.516 338.084C422.404 339.452 422.848 341.072 422.848 342.944C422.848 344.792 422.404 346.412 421.516 347.804C420.628 349.172 419.356 350.228 417.7 350.972C416.068 351.692 414.136 352.052 411.904 352.052H406.828V359H400.996V333.8H411.904ZM411.58 347.3C413.332 347.3 414.664 346.928 415.576 346.184C416.488 345.416 416.944 344.336 416.944 342.944C416.944 341.528 416.488 340.448 415.576 339.704C414.664 338.936 413.332 338.552 411.58 338.552H406.828V347.3H411.58ZM426.695 333.8H432.491V350.216L444.515 333.8H449.987V359H444.227V342.62L432.203 359H426.695V333.8ZM476.385 333.8V359H470.625V352.304H465.297L460.833 359H454.677L459.933 351.404C458.229 350.708 456.921 349.664 456.009 348.272C455.097 346.856 454.641 345.164 454.641 343.196C454.641 341.252 455.085 339.584 455.973 338.192C456.861 336.776 458.121 335.696 459.753 334.952C461.385 334.184 463.305 333.8 465.513 333.8H476.385ZM465.657 338.552C464.001 338.552 462.729 338.936 461.841 339.704C460.977 340.472 460.545 341.612 460.545 343.124C460.545 344.588 460.965 345.716 461.805 346.508C462.645 347.3 463.881 347.696 465.513 347.696H470.625V338.552H465.657Z" fill="#53F0BF"/>
<path d="M630.959 350.119L563.613 154.495C555.684 131.201 535.396 114.086 510.653 109.666L630.959 350.119ZM630.959 350.119C638.941 373.268 633.497 399.15 616.682 418.024L630.959 350.119ZM200.443 559.444L200.447 559.445L408.823 597.109L200.443 559.444ZM200.443 559.444C176.4 555.149 156.692 538.518 148.992 515.896L148.99 515.89M200.443 559.444L148.99 515.89M148.99 515.89L81.643 320.266L81.6427 320.265M148.99 515.89L81.6427 320.265M81.6427 320.265C73.8901 297.781 79.0888 272.455 95.3608 254.274L95.3615 254.273M81.6427 320.265L95.3615 254.273M95.3615 254.273L236.54 96.3635C252.817 78.1767 277.671 69.6057 301.865 73.9498L510.241 111.614L510.246 111.615M95.3615 254.273L510.246 111.615M510.246 111.615C534.288 115.91 553.997 132.541 561.696 155.163L561.698 155.169M510.246 111.615L561.698 155.169M561.698 155.169L629.045 350.793L629.045 350.794M561.698 155.169L629.045 350.794M629.045 350.794C636.794 373.268 631.512 398.404 615.176 416.74L474.148 574.696L629.045 350.794ZM474.146 574.698C457.87 592.883 433.018 601.453 408.825 597.11L474.146 574.698Z" stroke="#3AEEB6" stroke-width="4"/>
</svg>
