<svg width="1341" height="1478" viewBox="0 0 1341 1478" fill="none" xmlns="http://www.w3.org/2000/svg">
<path d="M842.867 1213.35L842.869 1213.35L1102.07 909.272C1132.63 873.343 1141.26 823.405 1124.9 778.11L842.867 1213.35ZM842.867 1213.35C812.54 1249.08 764.75 1265.32 717.841 1255.57L717.836 1255.57M842.867 1213.35L717.836 1255.57M717.836 1255.57L318.764 1174.03L318.763 1174.03M717.836 1255.57L318.763 1174.03M318.763 1174.03C272.042 1164.51 232.636 1130.56 216.267 1085.26L216.267 1085.26M318.763 1174.03L216.267 1085.26M216.267 1085.26L76.6223 699.45M216.267 1085.26L76.6223 699.45M76.6223 699.45C60.2541 654.155 68.8913 604.216 99.4423 568.287L76.6223 699.45ZM985.029 392.495L1124.89 778.108L99.4435 568.285L358.648 264.212L358.65 264.21C388.977 228.48 436.767 212.236 483.676 221.985L483.681 221.986L882.754 303.528L883.054 302.058L882.754 303.528C929.468 313.051 968.458 346.959 985.029 392.495Z" stroke="#3AEEB6" stroke-width="3"/>
<path d="M842.867 1213.35L842.869 1213.35L1102.07 909.272C1132.63 873.343 1141.26 823.405 1124.9 778.11L842.867 1213.35ZM842.867 1213.35C812.54 1249.08 764.75 1265.32 717.841 1255.57L717.836 1255.57M842.867 1213.35L717.836 1255.57M717.836 1255.57L318.764 1174.03L318.763 1174.03M717.836 1255.57L318.763 1174.03M318.763 1174.03C272.042 1164.51 232.636 1130.56 216.267 1085.26L216.267 1085.26M318.763 1174.03L216.267 1085.26M216.267 1085.26L76.6223 699.45M216.267 1085.26L76.6223 699.45M76.6223 699.45C60.2541 654.155 68.8913 604.216 99.4423 568.287L76.6223 699.45ZM985.029 392.495L1124.89 778.108L99.4435 568.285L358.648 264.212L358.65 264.21C388.977 228.48 436.767 212.236 483.676 221.985L483.681 221.986L882.754 303.528L883.054 302.058L882.754 303.528C929.468 313.051 968.458 346.959 985.029 392.495Z" stroke="url(#paint0_linear)" stroke-width="3"/>
<defs>
<linearGradient id="paint0_linear" x1="258.598" y1="347.923" x2="942.764" y2="1129.77" gradientUnits="userSpaceOnUse">
<stop stop-color="#00D1FF"/>
<stop offset="1" stop-color="white" stop-opacity="0"/>
</linearGradient>
</defs>
</svg>
