<svg width="349" height="328" viewBox="0 0 349 328" fill="none" xmlns="http://www.w3.org/2000/svg">
<path d="M120.876 155.8H126.672V172.216L138.696 155.8H144.168V181H138.408V164.62L126.384 181H120.876V155.8ZM132.504 154.18C127.896 154.18 125.568 152.344 125.52 148.672H129.516C129.564 150.424 130.56 151.3 132.504 151.3C133.464 151.3 134.196 151.084 134.7 150.652C135.204 150.196 135.468 149.536 135.492 148.672H139.488C139.464 150.472 138.876 151.84 137.724 152.776C136.572 153.712 134.832 154.18 132.504 154.18ZM162.466 181.432C159.85 181.432 157.486 180.868 155.374 179.74C153.286 178.612 151.642 177.064 150.442 175.096C149.266 173.104 148.678 170.872 148.678 168.4C148.678 165.928 149.266 163.708 150.442 161.74C151.642 159.748 153.286 158.188 155.374 157.06C157.486 155.932 159.85 155.368 162.466 155.368C165.082 155.368 167.434 155.932 169.522 157.06C171.61 158.188 173.254 159.748 174.454 161.74C175.654 163.708 176.254 165.928 176.254 168.4C176.254 170.872 175.654 173.104 174.454 175.096C173.254 177.064 171.61 178.612 169.522 179.74C167.434 180.868 165.082 181.432 162.466 181.432ZM162.466 176.464C163.954 176.464 165.298 176.128 166.498 175.456C167.698 174.76 168.634 173.8 169.306 172.576C170.002 171.352 170.35 169.96 170.35 168.4C170.35 166.84 170.002 165.448 169.306 164.224C168.634 163 167.698 162.052 166.498 161.38C165.298 160.684 163.954 160.336 162.466 160.336C160.978 160.336 159.634 160.684 158.434 161.38C157.234 162.052 156.286 163 155.59 164.224C154.918 165.448 154.582 166.84 154.582 168.4C154.582 169.96 154.918 171.352 155.59 172.576C156.286 173.8 157.234 174.76 158.434 175.456C159.634 176.128 160.978 176.464 162.466 176.464ZM198.495 160.552H186.507L186.543 181H180.747V155.8H198.531L198.495 160.552ZM214.264 175.6H202.564L200.332 181H194.356L205.588 155.8H211.348L222.616 181H216.496L214.264 175.6ZM212.428 171.172L208.432 161.524L204.436 171.172H212.428Z" fill="#53F0BF"/>
<path d="M108.463 287.254L108.468 287.254L218.5 295.268L108.463 287.254ZM108.463 287.254C96.1041 286.379 85.205 279.06 79.9982 268.096L79.9953 268.09M108.463 287.254L79.9953 268.09M79.9953 268.09L33.3014 170.64L33.301 170.639M79.9953 268.09L33.301 170.639M33.301 170.639C28.0754 159.747 29.1978 146.737 36.302 136.731L36.3027 136.73M33.301 170.639L36.3027 136.73M36.3027 136.73L99.7229 47.3124C99.7231 47.3121 99.7233 47.3118 99.7235 47.3115C106.833 37.2995 118.829 31.6513 131.271 32.5429L241.304 40.557L241.308 40.5572M36.3027 136.73L241.308 40.5572M241.308 40.5572C253.668 41.4321 264.567 48.751 269.774 59.7148L269.777 59.7209M241.308 40.5572L269.777 59.7209M269.777 59.7209L316.471 157.171L316.471 157.172M269.777 59.7209L316.471 157.172M316.471 157.172C321.691 168.054 320.52 180.971 313.389 191.065L316.471 157.172ZM250.049 280.499L313.388 191.067L250.049 280.499ZM250.049 280.499C242.94 290.511 230.944 296.159 218.503 295.269L250.049 280.499Z" stroke="#3AEEB6" stroke-width="4"/>
</svg>
