<svg width="538" height="509" viewBox="0 0 538 509" fill="none" xmlns="http://www.w3.org/2000/svg">
<path d="M226.626 229.552H218.562V250H212.802V229.552H204.774V224.8H226.626V229.552ZM246.087 244.6H234.387L232.155 250H226.179L237.411 224.8H243.171L254.439 250H248.319L246.087 244.6ZM244.251 240.172L240.255 230.524L236.259 240.172H244.251ZM257.78 224.8H263.576V241.216L275.6 224.8H281.072V250H275.312V233.62L263.288 250H257.78V224.8ZM269.408 223.18C264.8 223.18 262.472 221.344 262.424 217.672H266.42C266.468 219.424 267.464 220.3 269.408 220.3C270.368 220.3 271.1 220.084 271.604 219.652C272.108 219.196 272.372 218.536 272.396 217.672H276.392C276.368 219.472 275.78 220.84 274.628 221.776C273.476 222.712 271.736 223.18 269.408 223.18ZM310.279 250L310.243 234.916L302.827 247.336H300.235L292.819 235.204V250H287.347V224.8H292.171L301.603 240.46L310.891 224.8H315.715L315.751 250H310.279ZM320.751 237.616H330.939V242.116H320.751V237.616ZM148.701 286L148.665 270.916L141.249 283.336H138.657L131.241 271.204V286H125.769V260.8H130.593L140.025 276.46L149.313 260.8H154.137L154.173 286H148.701ZM179.945 281.32V286H160.433V260.8H179.477V265.48H166.229V270.952H177.929V275.488H166.229V281.32H179.945ZM207.767 260.8V286H201.935V275.668H190.487V286H184.655V260.8H190.487V270.736H201.935V260.8H207.767ZM233.593 281.32V286H214.081V260.8H233.125V265.48H219.877V270.952H231.577V275.488H219.877V281.32H233.593ZM264.296 281.248V291.22H258.896V286H241.112V291.22H235.712L235.748 281.248H236.756C238.268 281.2 239.336 280.096 239.96 277.936C240.584 275.776 240.968 272.692 241.112 268.684L241.4 260.8H260.768V281.248H264.296ZM246.26 269.224C246.14 272.224 245.888 274.744 245.504 276.784C245.12 278.8 244.532 280.288 243.74 281.248H255.008V265.552H246.368L246.26 269.224ZM291.082 275.848H287.41V286H281.686V275.848H277.942L272.29 286H265.558L273.118 272.824L266.026 260.8H272.182L277.834 270.988H281.686V260.8H287.41V270.988H291.154L296.842 260.8H302.998L295.942 272.824L303.466 286H296.734L291.082 275.848ZM329.193 286L329.157 270.916L321.741 283.336H319.149L311.733 271.204V286H306.261V260.8H311.085L320.517 276.46L329.805 260.8H334.629L334.665 286H329.193ZM360.437 281.32V286H340.925V260.8H359.969V265.48H346.721V270.952H358.421V275.488H346.721V281.32H360.437ZM388.26 260.8V286H382.428V275.668H370.98V286H365.148V260.8H370.98V270.736H382.428V260.8H388.26ZM413.833 265.552H405.769V286H400.009V265.552H391.981V260.8H413.833V265.552Z" fill="#53F0BF"/>
<path d="M302.907 447.124L302.911 447.122L434.075 368.477C449.121 359.43 457.839 343.242 457.044 325.984L302.907 447.124ZM302.907 447.124C287.968 456.124 268.939 456.568 253.163 448.21L253.157 448.207L114.821 375.492L114.82 375.492C99.0841 367.229 88.7304 351.386 87.9346 334.133L87.9346 334.132L80.8687 182.728C80.8687 182.728 80.8686 182.727 80.8686 182.727C80.073 165.468 88.7904 149.279 103.838 140.232L235.001 61.5869L235.005 61.5848C249.944 52.5847 268.973 52.1411 284.749 60.4994L284.755 60.5026L423.092 133.217L423.092 133.218C438.818 141.475 449.031 157.254 449.873 174.624L457.044 325.981L302.907 447.124Z" stroke="#3AEEB6" stroke-width="4"/>
</svg>
