<svg width="966" height="978" viewBox="0 0 966 978" fill="none" xmlns="http://www.w3.org/2000/svg">
<g opacity="0.7">
<path d="M416.728 68.8479L744.028 145.116C782.863 154.214 813.649 182.776 824.802 220.252L917.804 534.163C928.922 571.399 918.598 611.946 890.635 640.119L656.338 877.763C628.622 905.901 587.264 917.919 548.429 908.821L221.096 832.315C182.261 823.217 151.474 794.654 140.322 757.179L47.3195 443.267C36.2011 406.031 46.525 365.485 74.4884 337.311L308.786 99.6671C336.502 71.5293 377.647 59.7852 416.728 68.8479Z" fill="#CDF4FF"/>
<path d="M416.728 68.8479L744.028 145.116C782.863 154.214 813.649 182.776 824.802 220.252L917.804 534.163C928.922 571.399 918.598 611.946 890.635 640.119L656.338 877.763C628.622 905.901 587.264 917.919 548.429 908.821L221.096 832.315C182.261 823.217 151.474 794.654 140.322 757.179L47.3195 443.267C36.2011 406.031 46.525 365.485 74.4884 337.311L308.786 99.6671C336.502 71.5293 377.647 59.7852 416.728 68.8479Z" fill="url(#paint0_linear)"/>
</g>
<defs>
<linearGradient id="paint0_linear" x1="61.2819" y1="549.042" x2="903.866" y2="428.556" gradientUnits="userSpaceOnUse">
<stop stop-color="#ADFDC0"/>
<stop offset="1" stop-color="white" stop-opacity="0"/>
</linearGradient>
</defs>
</svg>
