<svg width="890" height="836" viewBox="0 0 890 836" fill="none" xmlns="http://www.w3.org/2000/svg">
<path d="M236.447 401.026H228.383V421.474H222.623V401.026H214.595V396.274H236.447V401.026ZM255.907 416.074H244.207L241.975 421.474H235.999L247.231 396.274H252.991L264.259 421.474H258.139L255.907 416.074ZM254.071 411.646L250.075 401.998L246.079 411.646H254.071ZM278.509 396.274C280.741 396.274 282.673 396.646 284.305 397.39C285.961 398.134 287.233 399.19 288.121 400.558C289.009 401.926 289.453 403.546 289.453 405.418C289.453 407.266 289.009 408.886 288.121 410.278C287.233 411.646 285.961 412.702 284.305 413.446C282.673 414.166 280.741 414.526 278.509 414.526H273.433V421.474H267.601V396.274H278.509ZM278.185 409.774C279.937 409.774 281.269 409.402 282.181 408.658C283.093 407.89 283.549 406.81 283.549 405.418C283.549 404.002 283.093 402.922 282.181 402.178C281.269 401.41 279.937 401.026 278.185 401.026H273.433V409.774H278.185ZM311.048 401.026H299.06L299.096 421.474H293.3V396.274H311.084L311.048 401.026ZM334.152 416.794V421.474H314.64V396.274H333.684V400.954H320.436V406.426H332.136V410.962H320.436V416.794H334.152ZM358.122 401.026H350.058V421.474H344.298V401.026H336.27V396.274H358.122V401.026Z" fill="#53F0BF"/>
<path d="M812.241 274.458L597.773 60.0025C572.353 34.4125 534.891 24.1216 499.884 32.9416L812.241 274.458ZM812.241 274.458C837.636 299.828 847.367 336.65 837.779 371.059L812.241 274.458ZM389.174 800.534L389.178 800.533L684.282 726.826L389.174 800.534ZM389.174 800.534C354.844 809.183 318.117 799.086 293.209 774.011L293.204 774.006M389.174 800.534L293.204 774.006M293.204 774.006L78.736 559.551L78.7354 559.55M293.204 774.006L78.7354 559.55M78.7354 559.55C53.8505 534.689 44.0771 498.42 53.4922 464.935L53.4925 464.934M78.7354 559.55L53.4925 464.934M53.4925 464.934L134.354 176.748M53.4925 464.934L134.354 176.748M500.393 34.8787L500.389 34.8797L205.285 108.587L500.393 34.8787ZM500.393 34.8787C534.723 26.2294 571.45 36.326 596.358 61.4011L596.363 61.4059M500.393 34.8787L596.363 61.4059M596.363 61.4059L810.831 275.862L810.832 275.862M596.363 61.4059L810.832 275.862M810.832 275.862C835.709 300.715 845.245 336.787 835.85 370.506L755.213 658.665M810.832 275.862L755.213 658.665M755.213 658.665C745.795 692.158 718.84 718.15 684.284 726.825L755.213 658.665ZM134.354 176.748C143.772 143.254 170.727 117.262 205.283 108.587L134.354 176.748Z" stroke="#3AEEB6" stroke-width="4"/>
</svg>
