<svg width="775" height="738" viewBox="0 0 775 738" fill="none" xmlns="http://www.w3.org/2000/svg">
<path d="M186.526 356.8V382H180.73V361.552H169.354V382H163.558V356.8H186.526ZM203.681 356.8C205.913 356.8 207.845 357.172 209.477 357.916C211.133 358.66 212.405 359.716 213.293 361.084C214.181 362.452 214.625 364.072 214.625 365.944C214.625 367.792 214.181 369.412 213.293 370.804C212.405 372.172 211.133 373.228 209.477 373.972C207.845 374.692 205.913 375.052 203.681 375.052H198.605V382H192.773V356.8H203.681ZM203.357 370.3C205.109 370.3 206.441 369.928 207.353 369.184C208.265 368.416 208.721 367.336 208.721 365.944C208.721 364.528 208.265 363.448 207.353 362.704C206.441 361.936 205.109 361.552 203.357 361.552H198.605V370.3H203.357ZM230.847 382.432C228.231 382.432 225.867 381.868 223.755 380.74C221.667 379.612 220.023 378.064 218.823 376.096C217.647 374.104 217.059 371.872 217.059 369.4C217.059 366.928 217.647 364.708 218.823 362.74C220.023 360.748 221.667 359.188 223.755 358.06C225.867 356.932 228.231 356.368 230.847 356.368C233.463 356.368 235.815 356.932 237.903 358.06C239.991 359.188 241.635 360.748 242.835 362.74C244.035 364.708 244.635 366.928 244.635 369.4C244.635 371.872 244.035 374.104 242.835 376.096C241.635 378.064 239.991 379.612 237.903 380.74C235.815 381.868 233.463 382.432 230.847 382.432ZM230.847 377.464C232.335 377.464 233.679 377.128 234.879 376.456C236.079 375.76 237.015 374.8 237.687 373.576C238.383 372.352 238.731 370.96 238.731 369.4C238.731 367.84 238.383 366.448 237.687 365.224C237.015 364 236.079 363.052 234.879 362.38C233.679 361.684 232.335 361.336 230.847 361.336C229.359 361.336 228.015 361.684 226.815 362.38C225.615 363.052 224.667 364 223.971 365.224C223.299 366.448 222.963 367.84 222.963 369.4C222.963 370.96 223.299 372.352 223.971 373.576C224.667 374.8 225.615 375.76 226.815 376.456C228.015 377.128 229.359 377.464 230.847 377.464ZM266.876 361.552H254.888L254.924 382H249.128V356.8H266.912L266.876 361.552ZM281.376 356.8C283.608 356.8 285.54 357.172 287.172 357.916C288.828 358.66 290.1 359.716 290.988 361.084C291.876 362.452 292.32 364.072 292.32 365.944C292.32 367.792 291.876 369.412 290.988 370.804C290.1 372.172 288.828 373.228 287.172 373.972C285.54 374.692 283.608 375.052 281.376 375.052H276.3V382H270.468V356.8H281.376ZM281.052 370.3C282.804 370.3 284.136 369.928 285.048 369.184C285.96 368.416 286.416 367.336 286.416 365.944C286.416 364.528 285.96 363.448 285.048 362.704C284.136 361.936 282.804 361.552 281.052 361.552H276.3V370.3H281.052ZM311.966 376.6H300.266L298.034 382H292.058L303.29 356.8H309.05L320.318 382H314.198L311.966 376.6ZM310.13 372.172L306.134 362.524L302.138 372.172H310.13ZM346.591 382L346.555 366.916L339.139 379.336H336.547L329.131 367.204V382H323.659V356.8H328.483L337.915 372.46L347.203 356.8H352.027L352.063 382H346.591ZM381.255 382L381.219 366.916L373.803 379.336H371.211L363.795 367.204V382H358.323V356.8H363.147L372.579 372.46L381.867 356.8H386.691L386.727 382H381.255ZM392.987 356.8H398.783V373.216L410.807 356.8H416.279V382H410.519V365.62L398.495 382H392.987V356.8ZM433.462 356.8C435.694 356.8 437.626 357.172 439.258 357.916C440.914 358.66 442.186 359.716 443.074 361.084C443.962 362.452 444.406 364.072 444.406 365.944C444.406 367.792 443.962 369.412 443.074 370.804C442.186 372.172 440.914 373.228 439.258 373.972C437.626 374.692 435.694 375.052 433.462 375.052H428.386V382H422.554V356.8H433.462ZM433.138 370.3C434.89 370.3 436.222 369.928 437.134 369.184C438.046 368.416 438.502 367.336 438.502 365.944C438.502 364.528 438.046 363.448 437.134 362.704C436.222 361.936 434.89 361.552 433.138 361.552H428.386V370.3H433.138ZM460.629 382.432C458.013 382.432 455.649 381.868 453.537 380.74C451.449 379.612 449.805 378.064 448.605 376.096C447.429 374.104 446.841 371.872 446.841 369.4C446.841 366.928 447.429 364.708 448.605 362.74C449.805 360.748 451.449 359.188 453.537 358.06C455.649 356.932 458.013 356.368 460.629 356.368C463.245 356.368 465.597 356.932 467.685 358.06C469.773 359.188 471.417 360.748 472.617 362.74C473.817 364.708 474.417 366.928 474.417 369.4C474.417 371.872 473.817 374.104 472.617 376.096C471.417 378.064 469.773 379.612 467.685 380.74C465.597 381.868 463.245 382.432 460.629 382.432ZM460.629 377.464C462.117 377.464 463.461 377.128 464.661 376.456C465.861 375.76 466.797 374.8 467.469 373.576C468.165 372.352 468.513 370.96 468.513 369.4C468.513 367.84 468.165 366.448 467.469 365.224C466.797 364 465.861 363.052 464.661 362.38C463.461 361.684 462.117 361.336 460.629 361.336C459.141 361.336 457.797 361.684 456.597 362.38C455.397 363.052 454.449 364 453.753 365.224C453.081 366.448 452.745 367.84 452.745 369.4C452.745 370.96 453.081 372.352 453.753 373.576C454.449 374.8 455.397 375.76 456.597 376.456C457.797 377.128 459.141 377.464 460.629 377.464ZM496.369 368.86C497.905 369.316 499.081 370.06 499.897 371.092C500.713 372.124 501.121 373.396 501.121 374.908C501.121 377.14 500.269 378.88 498.565 380.128C496.885 381.376 494.473 382 491.329 382H478.909V356.8H490.645C493.573 356.8 495.853 357.364 497.485 358.492C499.117 359.62 499.933 361.228 499.933 363.316C499.933 364.564 499.621 365.668 498.997 366.628C498.373 367.564 497.497 368.308 496.369 368.86ZM484.705 367.24H490.141C491.413 367.24 492.373 366.988 493.021 366.484C493.669 365.956 493.993 365.188 493.993 364.18C493.993 363.196 493.657 362.44 492.985 361.912C492.337 361.384 491.389 361.12 490.141 361.12H484.705V367.24ZM491.113 377.68C493.849 377.68 495.217 376.6 495.217 374.44C495.217 372.352 493.849 371.308 491.113 371.308H484.705V377.68H491.113ZM522.798 376.6H511.098L508.866 382H502.89L514.122 356.8H519.882L531.15 382H525.03L522.798 376.6ZM520.962 372.172L516.966 362.524L512.97 372.172H520.962ZM557.603 356.8V382H551.771V371.668H540.323V382H534.491V356.8H540.323V366.736H551.771V356.8H557.603ZM563.917 356.8H569.713V373.216L581.737 356.8H587.209V382H581.449V365.62L569.425 382H563.917V356.8ZM612.996 377.32V382H593.484V356.8H612.528V361.48H599.28V366.952H610.98V371.488H599.28V377.32H612.996Z" fill="#53F0BF"/>
<path d="M151.372 500.469L151.376 500.471L321.013 621.474C340.707 635.486 366.627 638.43 389.094 629.297L583.963 549.82C606.551 540.58 622.234 520.699 625.122 497.668L625.122 497.667L650.355 297.185L650.356 297.178C653.352 274.041 643.015 251.117 623.437 237.212L623.433 237.21L453.796 116.207L151.372 500.469ZM151.372 500.469C131.794 486.564 121.457 463.64 124.453 440.503L124.454 440.496M151.372 500.469L124.454 440.496M124.454 440.496L149.687 240.014L149.687 240.013M124.454 440.496L149.687 240.013M149.687 240.013C152.576 216.972 168.268 196.888 190.731 187.757L190.732 187.757M149.687 240.013L190.732 187.757M190.732 187.757L385.715 108.384M190.732 187.757L385.715 108.384M385.715 108.384C408.182 99.2517 434.1 102.195 453.794 116.206L385.715 108.384Z" stroke="#3AEEB6" stroke-width="4"/>
</svg>
