<svg width="1184" height="1247" fill="none" xmlns="http://www.w3.org/2000/svg"><path d="M450.775 23.236l.551 1.923-.551-1.923zm250.919 19.897a2 2 0 001.297-2.514l-5.475-17.147a2 2 0 00-3.811 1.217l4.867 15.242-15.242 4.866a2 2 0 101.217 3.81l17.147-5.474zM255.842 164.025c25.173-37.548 76.243-104.689 195.484-138.866l-1.102-3.845C329.746 55.846 277.99 123.806 252.519 161.798l3.323 2.227zM451.326 25.159C559.225-5.768 651.62 17.955 700.168 43.005l1.835-3.555C652.667 13.994 559.224-9.929 450.224 21.314l1.102 3.845z" fill="#000"/><path d="M208.662 514.257h.002l133.932-46.433-133.934 46.433zm0 0c-15.532 5.423-32.891 1.843-45.364-9.456l-.002-.002m45.366 9.458l-45.366-9.458m0 0L55.876 408.14h0m107.42 96.659L55.876 408.14m0 0c-12.459-11.2-18.356-28.502-15.253-45.139h0m15.253 45.139l-15.253-45.139m0 0L67.238 219.89v-.001c3.104-16.637 14.607-30.221 30.246-35.664l133.932-46.433.002-.001M40.623 363.001l190.795-225.21m0 0c15.532-5.422 32.891-1.843 45.364 9.456l.002.003m-45.366-9.459l45.366 9.459m0 0l107.42 96.658h0m-107.42-96.658l107.42 96.658m0 0c12.455 11.197 18.235 28.411 15.15 45.16l-15.15-45.16zm-11.362 188.251l26.512-143.09-26.512 143.09zm0 0c-3.103 16.636-14.606 30.221-30.245 35.664l30.245-35.664z" fill="#fff" stroke="#00D1FF" stroke-width="2"/><g clip-path="url(#clip0)" fill="#00D1FF"><path d="M271.276 402.813c-5.994.986-12.103 1.916-18.184 3.055-2.568.509-4.806 1.652-6.565 4.015-1.312 1.7-3.646 2.642-5.471 3.945-.747.559-1.598 1.132-1.994 1.93-2.137 4.406-5.414 7.428-10.132 8.926-.652.191-1.341.92-1.579 1.556-2.401 6.505-7.005 10.268-13.863 11.187-.56.072-1.195.118-1.693.396-5.693 3.048-11.452 2.543-17.166.181-2.522-1.063-4.887-2.575-7.296-3.867-1.07-.574-2.115-1.223-3.22-1.793-3.497-1.722-6.077-4.345-7.71-7.909a28.881 28.881 0 00-1.821-3.362c-2.727-4.313-4.981-8.83-5.19-14.038-.11-2.514.3-5.13.799-7.616.477-2.376 1.431-4.635 2.162-6.973 1.7-5.596 5.28-9.297 10.807-11.149.647-.225 1.341-.92 1.579-1.556 1.733-4.781 4.851-8.21 9.615-10.176.543-.213 1.061-.885 1.308-1.451 1.163-2.856 2.927-5.184 5.517-6.906.62-.436 1.129-1.178 1.503-1.868 2.225-4.559 2.613-9.559 3.439-14.472 1.186-7.097 1.863-14.27 3.342-21.297 5.385-25.335 20.325-42.251 45.159-50.043 14.025-4.406 28.236-4.599 42.022.747 22.024 8.522 36.06 24.376 41.45 47.432 5.635 24.129-4.329 51.763-23.79 66.733-8.356 6.418-17.793 10.518-28.123 12.382-4.865.912-9.863 1.342-14.905 1.991zm-29.617-22.428c4.865 7.1 8.589 14.455 7.918 23.336 2.48-.639 4.823-1.511 7.234-1.857 8.214-1.165 16.445-2.19 24.677-3.215 9.523-1.226 18.509-4.129 26.51-9.432 20.041-13.229 28.938-32.571 28.555-55.988-.426-25.69-17.974-48.64-42.361-56.715-17.952-5.913-35.242-3.651-51.605 5.258-17.061 9.284-26.707 24.2-30.365 43.046-1.069 5.514-1.45 11.118-2.336 16.68-1.001 6.04-2.226 12.002-3.351 17.916 10.642-.552 18.961 5.178 26.928 11.772 3.985-3.327 7.873-6.569 11.771-9.742 4.705-3.811 9.622-7.364 15.256-9.764.909-.402 1.897-.743 2.856-.759 1.778-.016 3.112.952 3.894 2.596.838 1.815.367 3.407-.862 4.918-6.022 7.399-12.999 13.746-20.802 19.202-1.315.846-2.581 1.793-3.917 2.748zm-5.315 34.442c-.569.002-.753-.046-.884.042-4.616 3.123-9.543 2.725-14.31.811-13.808-5.521-23.294-15.338-27.932-29.518-1.36-4.205-1.32-8.59 1.415-12.503.152-.197.147-.517.22-.776-.219-.043-.338-.134-.438-.086a1.155 1.155 0 00-.472.203c-3.229 1.734-5.386 4.326-6.433 7.808-1.297 4.298-.751 8.536.806 12.609 4.489 11.92 12.718 20.546 23.997 26.321 3.926 2.023 8.094 3.159 12.568 2.797 5.103-.444 8.916-2.894 11.463-7.708zm-53.381-30.086c-.123-.126-.276-.213-.4-.34-1.27.911-2.668 1.661-3.776 2.73-4.629 4.406-5.19 9.998-3.535 15.66 4.466 15.057 14.448 25.13 29.009 30.697 3.968 1.518 8.164 1.761 12.243.274 3.437-1.226 5.915-3.539 7.634-7.321-1.569.807-2.617 1.512-3.801 1.985-4.106 1.561-8.18.875-12.013-.696-12.308-4.931-21.055-13.704-26.315-25.809-2.478-5.699-3.35-11.64.954-17.18zm35.379 13.283c2.251-2.142 4.385-4.09 6.465-6.174 6.844-6.828 14.109-13.141 21.951-18.852 6.313-4.587 11.884-9.97 16.844-15.95.614-.756 1.588-1.486.734-2.587-.814-1.07-1.819-.585-2.68-.082-3.316 1.887-6.764 3.577-9.824 5.788-4.428 3.205-8.516 6.83-12.816 10.197-2.196 1.742-4.523 3.288-6.715 5.066-1.549 1.233-2.888 2.722-4.398 3.985-3.6 2.992-7.245 5.919-10.841 8.946-1.445 1.218-2.836 2.573-4.237 3.857 1.89 1.964 3.588 3.811 5.517 5.806zm1.9 27.458c-18.993-5.707-30.971-18.016-36.376-37.047-1.612 3.234-1.236 6.426-.305 9.511 3.081 10.108 9.664 17.557 18.215 23.434 3.824 2.606 7.956 4.566 12.607 5.035 2.019.203 4.037.121 5.859-.933zm2.146-44.68c-2.612-1.764-4.667-3.351-6.936-4.661-3.616-2.098-7.448-3.67-11.721-3.689-3.275-.006-3.894.715-3.405 3.964.063.49.618 1.202 1.056 1.288 5.114 1.3 9.385 4.061 13.552 7.121.509.361 1.491.805 1.784.589 1.856-1.343 3.514-2.838 5.67-4.612zm8.069 9.323c-1.553 1.482-2.804 2.818-4.183 3.993-.995.84-.984 1.48-.284 2.493 2.39 3.36 4.252 7.037 5.23 11.042.312 1.313.909 1.806 2.191 1.534 1.247-.268 2.887.304 3.022-1.956.308-6.45-2.474-11.753-5.976-17.106zm-1.672 24.037c-16.177-6.498-27.284-17.85-33.41-34.189-.184 7.965 3.632 14.381 8.606 20.114 6.561 7.559 14.197 13.519 24.804 14.075zm-25.872-44.739c2.41.473 4.618.759 6.726 1.377 4.988 1.423 9.259 4.185 13.299 7.368.439.37 1.334.682 1.736.488.961-.551 1.772-1.439 2.797-2.319-5.341-4.439-10.853-8.002-17.708-8.722-2.343-.232-4.808-.021-6.85 1.808zm-.49-3.533c11.19-3.471 19.261 2.54 27.37 8.581.48-.418.895-.791 1.37-1.244-.29-.319-.475-.651-.717-.869-3.843-3.315-8.013-6.125-12.714-8.084-3.57-1.463-7.207-2.347-11.107-1.952-2.284.223-3.484 1.41-4.202 3.568zm33.103 19.38c-.763.704-1.291 1.306-1.876 1.737-1.074.78-1.154 1.538-.305 2.603.805 1.001 1.383 2.172 2.027 3.3 2.217 3.952 3.617 8.187 3.967 12.842 1.723-.72 2.006-2.11 2.075-3.507.422-6.393-2.421-11.617-5.888-16.975zm2.173-1.918c.357.56.67 1.053.948 1.552 3.648 5.939 6.639 12.035 5.336 19.324-.055.399.621.953.964 1.407.454-.343 1.277-.591 1.332-.99.283-1.675.561-3.384.419-5.039-.498-6.346-3.404-11.776-6.913-16.914-.136-.232-.399-.34-.681-.589-.47.488-.925.831-1.405 1.249zm-23.719 4.017c-3.886-3.096-7.95-5.635-12.75-6.975.001 2.493 1.156 4.552 2.968 5.636a63.577 63.577 0 013.687 2.373c3.091 2.166 3.091 2.166 5.773-.494.092-.119.148-.233.322-.54zm9.512 9.742c-3.733 2.796-3.733 2.796-1.662 6.161.357.559.744 1.079.961 1.657 1.012 2.611 3.386 2.804 5.473 3.532.196-.132.388-.299.585-.432-1.743-3.585-3.486-7.171-5.357-10.918zm-12.344-2.718c1.742 4.404 3.096 5.797 5.064 5.329a763.866 763.866 0 01-5.064-5.329z"/><path d="M293.69 362.964c-1.103 0-2.219.179-3.249-.08-1.323-.328-2.805-.778-3.771-1.65-2.329-2.051-1.549-5.391 1.323-6.58 3.646-1.538 8.336.065 9.463 3.837.062.206.229.398.37.665 4.157-.607 8.243-1.489 11.984-3.396 3.369-1.751 3.828-4.267 1.225-7.066-3.055-3.274-7.055-5.037-11.298-6.2-.96-.268-1.971-.387-2.922-.585-3.321-.64-6.201-.341-9.099 2.027-4.186 3.423-9.382 4.805-14.74 5.21a8.372 8.372 0 01-2.115-.119c-1.314-.258-2.581-.7-2.885-2.228-.303-1.528.599-2.534 1.805-3.117 2.408-1.2 4.833-2.545 7.418-3.199 3.617-.929 7.39-1.201 11.109-1.894.906-.152 1.955-.572 2.513-1.214 1.962-2.175 3.818-4.622 2.667-7.75-1.088-2.922-4.001-3.437-6.661-3.913-5.169-.901-10.29-.313-15.355.981-1.067.28-1.678.786-2.152 1.808-1.516 3.151-3.831 5.621-7.052 7.14-2.111 1.02-3.6.784-4.595-.583-.995-1.368-.931-3.085.876-4.529 2.383-1.945 5.061-3.536 7.748-5.057 1.026-.595 1.593-1.167 1.803-2.298.905-5.137-1.914-8.228-7.152-7.731-.456.059-.941.157-1.405.145-2.298.118-3.946.865-4.769 3.321-.432 1.337-1.452 2.537-2.411 3.658-1.482 1.757-3.294 2.062-4.642.989-1.471-1.199-1.936-3.703-.567-5.232 1.282-1.376 2.857-2.683 4.58-3.403 1.888-.813 2.369-2.05 2.433-3.768.097-2.006-.562-2.705-2.487-2.172a18.464 18.464 0 00-4.358 1.808c-4.036 2.371-7.339 5.467-9.503 9.663-.452.913-1.027 1.699-2.168 1.134-1.25-.587-.951-1.587-.434-2.544 3.379-6.097 8.292-10.504 14.908-12.745 4.162-1.391 7.742.427 6.978 5.546-.065.329-.055.684-.061 1.183 3.644-.719 7.215-1.179 10.476.93 3.498 2.291 3.91 5.763 3.501 9.768a52.358 52.358 0 011.907-.388c5.473-1.168 10.944-1.516 16.431-.087 3.244.864 6.064 2.317 7.129 5.883.745 2.468.149 4.753-1.024 6.969-.431.803-.971 1.585-1.528 2.511 1.45.205 2.786.354 4.131.572 4.797.771 9.231 2.586 13.078 5.651 1.309 1.042 2.509 2.347 3.403 3.763 2.154 3.462 1.385 7.157-2.211 9.08-2.963 1.593-6.305 2.45-9.496 3.645-.477.168-1.037.24-1.562.308-2.236.324-3.981.869-5.197 3.305-1.378 2.848-4.499 4.033-7.35 5.112-.441.164-1.603-.292-1.688-.672-.142-.552.121-1.547.575-1.89.974-.731 2.212-1.069 3.229-1.734 1.083-.709 2.039-1.58 3.069-2.425-.053-.135-.137-.232-.225-.363zm-8.595-20.863c-4.662.28-9.04 1.378-12.975 3.986 4.728-.039 8.991-1.479 12.975-3.986zm9.49 17.864c-.74-2.433-2.456-3.316-4.826-2.654-.516.137-.943.691-1.397 1.034.382.485.736 1.294 1.169 1.345 1.63.217 3.263.185 5.054.275zm-29.214-30.35c-.132-.197-.295-.354-.427-.55-1.584 1.236-3.204 2.478-4.788 3.714.171.228.338.42.51.647 1.58-1.272 3.125-2.539 4.705-3.811zm67.529-.437c.021.994.702 2.687-1.114 2.956-1.886.279-1.687-1.492-1.88-2.713-.837-5.946-3.09-11.282-7.092-15.823-.708-.799-1.35-1.642-.369-2.587 1.113-1.034 1.904-.139 2.647.656 4.38 4.991 6.771 10.843 7.808 17.511zm1.279 9.378c-.285 3.313-.57 6.625-.89 9.942-.084 1.008-.501 1.917-1.731 1.755-1.341-.184-1.288-1.152-1.218-2.265.251-3.308.426-6.642.567-9.972.035-1.108-.049-2.308 1.365-2.384 1.414-.075 1.633 1.072 1.602 2.215-.003.25.024.46.021.71.1-.049.175-.023.284-.001z"/></g><path d="M208.637 1080.2h.002l134.242-46.54-134.244 46.54zm0 0c-15.57 5.43-32.969 1.84-45.472-9.48h-.002m45.474 9.48l-45.474-9.48m0 0l-107.67-96.886h0m107.67 96.886l-107.67-96.886m0 0c-12.488-11.227-18.4-28.57-15.289-45.246v-.001m15.29 45.247l-15.29-45.247m0 0l26.678-143.443s0 0 0 0c3.11-16.676 14.641-30.293 30.317-35.749l134.242-46.541.002-.001M40.204 928.587l191.239-225.734m0 0c15.57-5.435 32.97-1.847 45.472 9.479l.002.002m-45.474-9.481l45.474 9.481m0 0l107.669 96.883h.001m-107.67-96.883l107.67 96.883m0 0c12.484 11.223 18.278 28.478 15.186 45.267l-15.186-45.267zm-11.389 188.69l26.575-143.422-26.575 143.422zm0 0c-3.11 16.673-14.64 30.293-30.316 35.753l30.316-35.753z" fill="#fff" stroke="#00D1FF" stroke-width="2"/><g clip-path="url(#clip1)"><path d="M217.469 894.621l129.169 74.976c-.47-.313-1.201-.26-1.932.209l-129.169-75.029c.731-.417 1.41-.469 1.932-.156z" fill="#fff"/><path d="M344.706 970.796a1.01 1.01 0 01-.522-.156l-129.169-74.924c-.313-.209-.522-.522-.522-.887 0-.364.209-.729.522-.886 1.044-.626 2.141-.678 2.976-.208l129.169 74.924c.522.313.679.938.365 1.408-.313.469-.939.677-1.409.364-.157-.104-.47-.052-.888.209a1.007 1.007 0 01-.522.156z" fill="#00D1FF"/><path d="M344.393 969.962l-129.169-74.976c.104-.104.209-.157.313-.209l129.169 74.977c-.104.052-.209.156-.313.208z" fill="#fff"/><path d="M344.393 971.005c-.157 0-.366-.052-.522-.156l-129.169-74.925a.99.99 0 01-.522-.834c0-.365.156-.678.417-.886.157-.104.262-.209.418-.261a.951.951 0 011.044 0l129.169 74.976c.313.209.522.522.522.887s-.209.73-.522.886c-.104.052-.156.104-.261.157a1.053 1.053 0 01-.574.156z" fill="#00D1FF"/><path d="M251.563 1036.65l-129.169-74.978 92.83-66.686 129.169 74.976-92.83 66.688z" fill="#fff"/><path d="M251.563 1037.69a.966.966 0 01-.523-.16l-129.168-74.972a.99.99 0 01-.523-.834c0-.365.157-.678.418-.886l92.83-66.686c.314-.261.784-.261 1.149-.052l129.169 74.976a.99.99 0 01.522.834c0 .365-.157.678-.418.886l-92.83 66.684a.985.985 0 01-.626.21zm-127.238-76.122L251.51 1035.4l90.951-65.333-127.185-73.83-90.951 65.331z" fill="#00D1FF"/><path d="M249.996 1042.75l-129.169-74.925c-.574-.365-.887-1.148-.731-2.295.209-1.459 1.149-2.972 2.298-3.806l129.169 74.976c-1.149.83-2.089 2.4-2.298 3.81-.156 1.09.157 1.93.731 2.24z" fill="#fff"/><path d="M249.996 1043.79c-.156 0-.365-.05-.522-.15l-129.169-74.929c-.992-.574-1.462-1.825-1.253-3.389.261-1.721 1.358-3.546 2.715-4.536.313-.261.783-.261 1.149-.052l129.169 74.976c.313.16.522.52.522.83 0 .37-.157.68-.418.89-.94.68-1.723 1.93-1.88 3.13-.104.73.053 1.15.209 1.25.522.31.679.94.366 1.41-.157.42-.522.57-.888.57zm-127.498-80.867c-.679.73-1.253 1.721-1.41 2.712-.104.73.053 1.147.209 1.251l126.82 73.624c0-.06 0-.16.052-.21.156-1.2.783-2.45 1.618-3.44l-127.289-73.937z" fill="#00D1FF"/><path d="M344.706 969.754c1.201-.73 2.297-.365 2.611.834l2.767 11.523c.417 1.72-.888 4.275-2.611 5.318l-95.545 55.161c-1.671.99-2.976-.05-2.663-2.14.209-1.46 1.149-2.97 2.298-3.8l92.83-66.688c.104-.052.209-.156.313-.208z" fill="#fff"/><path d="M250.675 1044c-.47 0-.94-.16-1.357-.42-.94-.62-1.306-1.82-1.097-3.28.261-1.72 1.358-3.55 2.715-4.54l92.83-66.684c.157-.104.261-.209.418-.261.94-.521 1.88-.678 2.715-.313.731.313 1.253.939 1.462 1.825l2.767 11.523c.522 2.138-.94 5.214-3.08 6.465l-95.598 55.165c-.626.36-1.201.52-1.775.52zm95.232-73.569c-.157 0-.366.053-.679.209-.104.052-.156.104-.261.156l-92.778 66.684c-.94.68-1.723 1.93-1.879 3.13-.105.68.052 1.15.208 1.25.157.11.522.05.888-.15l95.597-55.115c1.306-.782 2.402-2.92 2.089-4.171l-2.767-11.523c-.053-.105-.105-.313-.261-.417-.053-.053-.105-.053-.157-.053z" fill="#00D1FF"/><path d="M341.051 973.143l-129.168-74.977c-.627-.365-.94-1.303-.679-2.554l129.169 75.028c-.261 1.199.052 2.138.678 2.503z" fill="#fff"/><path d="M341.051 974.185c-.156 0-.365-.052-.522-.156L211.36 899.105c-1.044-.626-1.514-2.034-1.2-3.65.052-.313.313-.626.574-.73a.998.998 0 01.94.052l129.221 74.925c.365.208.574.677.522 1.094-.157.835 0 1.304.157 1.408.522.313.678.939.365 1.408-.157.417-.522.573-.888.573z" fill="#00D1FF"/><path d="M236.369 783.147l129.169 74.976c-.261-.156-.574-.104-.94.105L235.43 783.251c.365-.26.73-.26.939-.104z" fill="#fff"/><path d="M364.598 859.218c-.156 0-.365-.052-.522-.156l-129.169-74.924c-.313-.209-.522-.522-.522-.887s.209-.73.522-.886c.679-.417 1.41-.417 1.984-.104l129.169 74.976c.522.313.679.939.366 1.408-.261.469-.836.625-1.306.469h-.052a1.045 1.045 0 01-.47.104z" fill="#00D1FF"/><path d="M340.373 970.64l-129.169-74.976 22.92-110.588 129.169 74.977-22.92 110.587z" fill="#fff"/><path d="M340.373 971.683a1 1 0 01-.522-.157L210.682 896.55c-.366-.209-.575-.678-.522-1.095l22.92-110.535c.052-.313.313-.626.574-.73.314-.157.679-.104.94.052l129.273 74.924c.366.209.575.678.522 1.095l-22.92 110.535c-.052.313-.313.626-.574.73-.209.105-.366.157-.522.157zm-127.968-76.541l127.289 73.882 22.503-108.398-127.342-73.881-22.45 108.397z" fill="#00D1FF"/><path d="M363.293 860.053l-129.169-74.977c.157-.782.679-1.512 1.306-1.877l129.168 74.977c-.574.365-1.148 1.147-1.305 1.877z" fill="#fff"/><path d="M363.293 861.095a1.01 1.01 0 01-.522-.156l-129.169-74.924c-.365-.209-.574-.678-.522-1.095.209-1.043.94-2.086 1.775-2.555a.948.948 0 011.044 0l129.169 74.976c.313.209.522.522.522.887s-.209.73-.522.886c-.313.156-.679.678-.783 1.199-.052.313-.313.626-.574.73-.105.052-.261.052-.418.052zm-127.864-76.436l127.394 73.881c.052-.052.052-.104.105-.156l-127.394-73.881c0 .052-.052.104-.105.156z" fill="#00D1FF"/><path d="M364.598 858.175c.836-.469 1.462.053 1.306 1.095l-16.812 109.702c-.261 1.616-1.358 3.232-2.559 3.91-.365.209-.783.365-1.148.365l-3.603.104c-1.148.052-1.723-1.095-1.409-2.711l22.92-110.535c.157-.782.731-1.565 1.305-1.93z" fill="#fff"/><path d="M341.73 974.394c-.731 0-1.357-.313-1.827-.834-.627-.73-.836-1.877-.575-3.129l22.921-110.535c.209-1.043.94-2.085 1.775-2.555.731-.417 1.514-.417 2.088-.052.627.417.888 1.251.784 2.138l-16.812 109.701c-.261 1.877-1.567 3.806-3.081 4.692a3.2 3.2 0 01-1.618.47l-3.603.104h-.052zm23.129-115.071c-.208.26-.417.573-.522.938l-22.92 110.535c-.157.73-.052 1.2.104 1.356.052.052.105.104.261.104l3.603-.104c.209 0 .418-.104.626-.209.992-.573 1.88-1.929 2.089-3.18l16.759-109.44z" fill="#00D1FF"/><path d="M170.219 980.442l28.611-18.77 34.563 18.77-29.081 20.438-34.093-20.438z" fill="#fff"/><path d="M204.312 1001.92a.91.91 0 01-.522-.15l-34.041-20.441c-.314-.209-.522-.522-.522-.887s.156-.678.469-.886l28.56-18.77c.313-.209.731-.209 1.096-.052l34.563 18.77a.99.99 0 01.523.834c0 .365-.157.73-.418.938l-29.081 20.444c-.209.15-.418.2-.627.2zm-32.109-21.53l32.057 19.24 27.149-19.083-32.527-17.676-26.679 17.519z" fill="#00D1FF"/><path d="M171.367 935.915l115.908 64.965 35.294-25.078-115.385-65.696-35.817 25.809z" fill="#fff"/><path d="M287.275 1001.92c-.157 0-.366-.05-.523-.15l-115.855-64.968a.93.93 0 01-.522-.835c0-.365.157-.677.418-.886l35.764-25.809c.313-.261.783-.261 1.149-.052l115.437 65.695a.993.993 0 01.522.835c0 .365-.156.677-.417.886l-35.347 25.084c-.209.15-.418.2-.626.2zm-113.924-66.109l113.871 63.871 33.467-23.724-113.453-64.6-33.885 24.453z" fill="#00D1FF"/><path d="M237.466 794.566l-20.362 98.126 118.779 68.98 20.779-97.24-119.196-69.866z" fill="#fff"/><path d="M335.883 962.715c-.157 0-.366-.052-.523-.157l-118.779-68.98c-.365-.208-.574-.678-.522-1.095l20.362-98.126c.053-.313.314-.626.575-.73a.998.998 0 01.94.052l119.196 69.815c.366.208.575.678.47 1.095l-20.727 97.292c-.053.312-.314.625-.575.73-.156.052-.313.104-.417.104zM218.304 892.17l116.848 67.886 20.309-95.102-117.264-68.72-19.893 95.936z" fill="#00D1FF"/><path d="M335.099 960.994s-.052 0 0 0c-.626-.052-1.096-.521-1.044-1.095.418-8.446.783-17.206-.783-25.652-1.201-6.57-4.229-15.642-11.695-21.847-2.767-2.294-6.057-4.119-9.294-5.839-4.594-2.503-9.345-5.11-12.739-9.229-1.775-2.138-2.611-4.223-2.611-6.204.053-2.242 1.201-4.172 2.402-5.996 1.358-1.982 2.82-3.911 4.229-5.736 2.559-3.337 5.221-6.778 7.101-10.532 2.558-5.162 3.968-12.565.157-17.988-2.663-3.754-7.728-6.048-13.21-5.944-5.638.104-10.912 2.346-14.88 4.328-3.863 1.929-8.667 4.692-11.382 9.02-2.245 3.545-2.976 7.716-3.707 12.148-.261 1.512-.522 3.077-.887 4.641-.157.782-.522 2.45-1.932 3.284-1.044.626-2.193.522-3.289.313-2.402-.417-4.804-1.095-7.101-1.772a84.839 84.839 0 00-5.221-1.408c-6.056-1.356-11.956-1.252-17.021.417-5.69 1.825-10.389 5.579-12.896 10.324a.988.988 0 01-1.409.417c-.522-.261-.731-.887-.418-1.408 2.767-5.214 7.936-9.385 14.149-11.367 5.43-1.72 11.695-1.877 18.117-.417 1.828.417 3.603.939 5.326 1.46 2.245.678 4.542 1.356 6.839 1.721.679.104 1.41.208 1.828-.052.522-.313.783-1.095.939-1.929.314-1.46.575-3.024.836-4.537.783-4.431 1.566-9.02 4.02-12.878 3.028-4.745 8.145-7.717 12.217-9.75 4.177-2.086 9.711-4.432 15.768-4.536 6.161-.104 11.904 2.503 14.932 6.83 4.334 6.153 2.819 14.391 0 20.126-1.984 3.963-4.699 7.456-7.309 10.897-1.41 1.825-2.872 3.702-4.177 5.631-1.201 1.773-2.036 3.285-2.036 4.849 0 1.46.678 3.128 2.14 4.849 3.133 3.858 7.518 6.205 12.113 8.707 3.289 1.773 6.683 3.65 9.607 6.101 7.936 6.569 11.121 16.163 12.374 23.045 1.618 8.655 1.2 17.571.783 26.122.156.469-.314.886-.836.886z" fill="#00D1FF"/><path d="M287.222 901.92c-4.699 0-9.137-.886-13.052-2.711-9.085-4.171-14.828-13.608-13.679-22.472a.98.98 0 011.148-.886.98.98 0 01.888 1.147c-1.044 7.977 4.229 16.476 12.478 20.282 7.153 3.285 16.185 3.337 25.427.209.522-.209 1.148.104 1.305.625.209.522-.105 1.147-.627 1.304-4.751 1.668-9.45 2.502-13.888 2.502zm25.845-38.166h-.157c-3.081-.365-5.9-2.294-7.362-5.005a5.69 5.69 0 00-.313-.573c-.261-.522-.47-.991-.783-1.304-.783-.834-2.297-.886-3.759-.834-.575 0-1.097.052-1.671.104-3.028.157-6.213.313-9.294-.261-4.333-.782-7.727-3.076-9.397-6.204a1.071 1.071 0 01.417-1.408c.522-.261 1.149-.052 1.41.417 1.357 2.555 4.229 4.432 7.936 5.11 2.871.521 5.847.365 8.771.208.575-.052 1.097-.052 1.671-.104 1.984-.104 3.968 0 5.325 1.46.575.574.888 1.251 1.201 1.825.105.156.157.365.261.521 1.149 2.138 3.394 3.65 5.796 3.963a.979.979 0 01.887 1.147c.053.573-.417.938-.939.938zm-31.692 16.059c-1.775 0-3.551-.26-5.221-.834-.522-.208-.836-.782-.679-1.303.209-.522.783-.835 1.305-.678 3.968 1.355 8.406.834 12.009-1.304.47-.313 1.148-.156 1.409.365.314.47.157 1.147-.365 1.408-2.506 1.564-5.482 2.346-8.458 2.346z" fill="#00D1FF"/></g><path d="M889.839 514.262l.002-.001 133.929-46.433-133.931 46.434zm0 0c-15.533 5.422-32.892 1.843-45.365-9.456l-.002-.003m45.367 9.459l-45.367-9.459m0 0l-107.421-96.659h-.001m107.422 96.659L737.05 408.144m0 0c-12.458-11.201-18.356-28.503-15.253-45.14v-.001m15.253 45.141l-15.253-45.141m0 0l26.616-143.112v-.001c3.103-16.637 14.607-30.221 30.246-35.664l133.933-46.434.002-.001M721.797 363.003l190.797-225.212m0 0c15.533-5.422 32.892-1.842 45.365 9.457l.002.002m-45.367-9.459l45.367 9.459m0 0l107.419 96.66h0m-107.419-96.66l107.419 96.66m0 0c12.46 11.197 18.24 28.41 15.15 45.16l-15.15-45.16zm-11.36 188.253l26.51-143.092-26.51 143.092zm0 0c-3.1 16.636-14.61 30.221-30.25 35.665l30.25-35.665z" fill="#fff" stroke="#00D1FF" stroke-width="2"/><g clip-path="url(#clip2)"><path d="M850.161 428.931s45.135-30.247 54.538-59.793c9.402-29.546 6.662-79.202 6.662-79.202l117.349 5.122s2.74 61.841-13.75 109.125c-15.694 45.128-50.566 62.597-50.566 62.597l-114.233-37.849z" fill="#fff"/><path d="M964.394 467.858c-.107 0-.215 0-.322-.054l-114.233-37.849a1.117 1.117 0 01-.752-.862c-.054-.432.107-.809.483-1.025.43-.323 44.92-30.408 54.161-59.253 9.188-29.061 6.609-78.34 6.556-78.825a1.1 1.1 0 011.128-1.132l117.345 5.122c.54 0 1.03.485 1.03 1.024.05.647 2.57 62.596-13.81 109.503-8.22 23.561-21.658 39.466-31.49 48.686-10.693 10.028-19.29 14.395-19.666 14.557a1.012 1.012 0 01-.43.108zm-111.869-39.305l111.762 37.04c3.815-2.102 35.194-20.164 49.703-61.841 15.1-43.294 13.97-99.582 13.7-107.723l-115.2-4.961c.322 7.764 1.773 51.544-6.771 78.394-8.435 26.526-44.543 53.053-53.194 59.091z" fill="#00D1FF"/><path d="M901.958 423.755c-.107-.108.108-.431.484-.647.376-.216.806-.377.913-.216.108.162-.107.432-.483.647-.376.216-.806.324-.914.216z" fill="#fff"/><path d="M902.119 424.887c-.376 0-.698-.108-.913-.377a1.088 1.088 0 01-.322-.971c.053-.647.591-1.078 1.02-1.348.914-.593 1.72-.593 2.257-.107.269.269.376.593.323.97-.054.647-.591 1.078-1.021 1.348-.484.323-.914.485-1.344.485zm.215-2.156a.937.937 0 00.269.862c.107.108.269.216.376.216a.936.936 0 00-.269-.863c-.107-.108-.268-.162-.376-.215z" fill="#00D1FF"/><path d="M903.409 422.892c0-.054 0-.054 0 0-.161-.162-.537-.054-.967.216-.376.269-.591.539-.484.647-1.074-1.186-2.203-2.426-3.277-3.612-.215-.27.215-.863 1.074-1.402.806-.539 1.72-.755 1.935-.486 0 0 .053.054.053.108.591 1.456 1.129 2.966 1.666 4.529z" fill="#fff"/><path d="M901.958 424.833c-.268 0-.591-.108-.806-.377l-3.277-3.613c-.269-.269-.377-.701-.323-1.078.108-.916 1.075-1.617 1.612-1.941 1.075-.701 2.526-1.132 3.278-.377.161.161.215.323.322.485l1.612 4.583c.215.539-.107 1.186-.645 1.348-.215.054-.43.107-.644.054-.054 0-.054.053-.108.053h-.054a1.117 1.117 0 01-.322.54c-.107.215-.376.323-.645.323zm-1.988-4.96l1.988 2.21h.054l-1.021-2.857a3.592 3.592 0 00-.645.323c-.161.162-.322.27-.376.324z" fill="#00D1FF"/><path d="M901.958 423.755c-1.074-1.186-2.203-2.426-3.277-3.613l3.277 3.613z" fill="#fff"/><path d="M901.958 424.833c-.215 0-.483-.054-.645-.216-.053-.053-.107-.053-.107-.107l-3.278-3.613a1.094 1.094 0 01.054-1.509 1.14 1.14 0 011.505 0l.053.054 3.224 3.612c.376.431.376 1.078 0 1.456a1.185 1.185 0 01-.806.323z" fill="#00D1FF"/><path d="M901.743 418.255c.538 1.51 1.075 3.074 1.612 4.583.054.162-.161.378-.537.647-.376.27-.806.378-.914.216l-3.277-3.613c.269.27 1.128 0 1.934-.485.86-.485 1.29-1.024 1.182-1.348z" fill="#fff"/><path d="M902.119 424.887c-.376 0-.698-.108-.913-.377l-3.278-3.667a1.094 1.094 0 01.054-1.509 1.078 1.078 0 011.182-.216c.161-.054.537-.162.967-.431.323-.216.538-.378.591-.485.054-.432.323-.809.699-.917.537-.216 1.182.108 1.397.647l1.612 4.583c.215.647-.108 1.348-.967 1.887-.484.323-.914.485-1.344.485zm-1.343-4.098l1.236 1.402-.645-1.779c-.054.054-.107.054-.161.108a1.153 1.153 0 01-.43.269z" fill="#00D1FF"/><path d="M901.743 418.525c.054-.108.054-.216-.053-.323-.269-.27-1.129 0-1.935.485s-1.289 1.186-1.074 1.402c-.108 0-2.633-.54-4.89-2.319-.752-.593-1.881-1.671-3.009-2.803-.967-.971-1.88-1.941-2.042-2.103-.591-.593-1.128-1.186-1.719-1.833-.699-.755-1.021-1.132-1.075-1.186-1.074-1.079.914-3.721 4.406-5.985 3.493-2.264 7.2-3.181 8.221-2.157a.869.869 0 01.215.378c.054.215.269.701.484 1.455.268.755.752 2.319.967 3.02.698 2.156 1.074 3.45 1.236 4.151.215.809.429 1.564.537 2.265.107.593.215 1.617.161 2.911 0 .863-.161 1.887-.43 2.642z" fill="#fff"/><path d="M898.681 421.221h-.215c-.269-.054-2.956-.647-5.373-2.534-.699-.539-1.774-1.564-3.117-2.912-1.021-1.024-1.934-1.994-2.042-2.102l-.537-.593c-.376-.432-.752-.809-1.128-1.24-.645-.701-.968-1.079-1.075-1.187a1.99 1.99 0 01-.537-1.725c.215-2.049 2.847-4.367 5.212-5.877 3.385-2.156 7.844-3.72 9.564-1.995.215.216.376.486.483.755.054.216.269.755.484 1.456.269.809.806 2.318 1.021 3.019.698 2.157 1.075 3.451 1.236 4.152.215.862.43 1.617.537 2.318.107.647.269 1.725.161 3.181-.054 1.025-.268 2.157-.537 2.965-.215.54-.806.863-1.343.701a1.157 1.157 0 01-.43-.269c-.161.054-.43.162-.645.323-.269.162-.43.324-.537.432 0 .215-.054.377-.108.593-.322.323-.645.539-1.074.539zm-11.929-12.077c.054.054.376.431 1.075 1.186.376.431.752.809 1.128 1.24l.538.593c.161.162 1.02 1.078 1.988 2.049 1.289 1.294 2.256 2.21 2.901 2.75 1.29 1.024 2.687 1.563 3.546 1.887a6.36 6.36 0 011.182-1.025 4.894 4.894 0 011.827-.755l.162-1.294c.053-1.186-.054-2.102-.108-2.641a23.225 23.225 0 00-.484-2.157c-.214-.701-.537-1.941-1.235-4.098-.215-.647-.699-2.21-.968-2.965-.214-.647-.429-1.186-.483-1.402-.484-.323-3.331 0-6.878 2.319-3.116 1.994-4.244 3.828-4.191 4.313z" fill="#00D1FF"/><path d="M893.845 417.824c.376.324 1.128.917 2.471 1.51.968.431 1.988.755 2.58.862-.108 0-.162-.054-.215-.107-.108 0-2.633-.54-4.89-2.319-.752-.593-1.881-1.671-3.009-2.803.699.7 2.149 2.156 3.063 2.857z" fill="#fff"/><path d="M898.896 421.383c-.054 0-.108.107-.162.107-.644 0-1.719-.539-2.847-1.078-1.397-.647-2.257-1.348-2.687-1.671-.484-.378-1.128-.971-1.719-1.564-.43-.431-.914-.916-1.505-1.456-.43-.431-.43-1.132 0-1.509a1.036 1.036 0 011.505 0l1.45 1.456c.591.539 1.075.97 1.451 1.293 2.042 1.618 4.352 2.103 4.46 2.103.107 0 .215.054.322.108.484.162.806.755.699 1.24 0 .539-.43.971-.967.971z" fill="#00D1FF"/><path d="M890.782 414.967c-2.257-2.265-4.621-4.907-4.836-5.122.054.054.645.701.752.808a48.698 48.698 0 001.129 1.186c.322.324.591.647.913.971.323.323.645.701 1.021 1.024.269.378.699.809 1.021 1.133z" fill="#fff"/><path d="M890.782 416.045c-.269 0-.537-.108-.752-.324l-.967-.97-.108-.108c-.054-.054-.107-.162-.215-.216-.268-.269-.537-.539-.752-.808l-.054-.054c-.215-.216-.376-.432-.591-.593l-.322-.378-.054-.054c-.107-.161-.483-.539-1.074-1.186-.108-.108-.753-.808-.806-.862-.377-.432-.323-1.133.107-1.51s1.128-.377 1.504.054c.43.485 1.505 1.671 2.795 3.019l.322.378a174.935 174.935 0 01.698.7c.269.324.645.701.968.971a1.047 1.047 0 010 1.51.738.738 0 01-.699.431z" fill="#00D1FF"/><path d="M898.896 420.196a9.028 9.028 0 01-1.935-.593c-1.074-.431-1.827-.862-1.988-1.024-.806-.539-1.075-.701-1.88-1.456-.323-.269-.968-.916-2.311-2.21-2.257-2.265-4.621-4.907-4.836-5.122 1.075 1.078 4.729.108 8.221-2.157 3.17-1.995 5.051-4.421 4.621-5.607a383.738 383.738 0 011.505 4.421c.053.216.161.485.214.701.054.269.323 1.132.43 1.402.269.916.376 1.186.591 2.048.162.594.376 1.402.538 2.211.43 2.372 0 4.637-.323 5.607-.107.324-.483.755-1.074 1.132-.699.486-1.397.701-1.773.647z" fill="#fff"/><path d="M899.057 421.383c-.108 0-.215.107-.323.107-.967-.539-1.88-.647-2.149-.754-1.182-.486-1.988-1.025-2.203-1.187-.913-.593-1.182-.808-1.988-1.563-.322-.27-1.021-.917-2.364-2.265a280.426 280.426 0 01-4.836-5.122c-.376-.431-.376-1.132.054-1.509.43-.378 1.074-.432 1.504 0 .43.377 3.278 0 6.878-2.265 3.17-2.048 4.298-3.936 4.191-4.367-.215-.539.107-1.186.645-1.348.537-.215 1.182.108 1.343.647a249.753 249.753 0 011.504 4.475c.054.108.108.27.162.432l.053.215c.054.27.376 1.132.43 1.402.269.917.376 1.24.591 2.049.161.593.376 1.456.538 2.318.429 2.426.053 4.799-.377 6.147-.268.754-1.074 1.455-1.558 1.725-.215.269-1.182.863-2.095.863zm-10.37-10.137c.859.917 1.88 1.941 2.847 2.966 1.29 1.294 1.935 1.887 2.257 2.156.806.701.967.809 1.773 1.348.108.108.806.486 1.827.917.43.162 1.128.431 1.719.539.108 0 .538-.108 1.021-.431.43-.27.645-.539.645-.593.269-.755.645-2.858.269-5.015-.161-.754-.323-1.563-.484-2.156-.215-.809-.322-1.132-.591-1.995a14.156 14.156 0 01-.43-1.402l-.053-.216-.162-.485-.537-1.617c-1.021 1.24-2.525 2.48-3.976 3.45-1.988 1.133-4.191 2.211-6.125 2.534z" fill="#00D1FF"/><path d="M898.734 401.919l-.161-.162c-1.074-1.078-4.728-.108-8.221 2.157-3.331 2.103-5.265 4.637-4.567 5.769l-23.158-38.927c-.699-1.186 1.236-3.667 4.567-5.769 3.493-2.265 7.2-3.181 8.221-2.157l.161.162c6.985 11.7 16.227 27.281 23.158 38.927z" fill="#fff"/><path d="M885.839 410.761c-.376 0-.752-.215-.967-.539l-23.159-38.927c-1.235-2.049 1.612-5.122 4.89-7.225 3.385-2.156 7.845-3.72 9.564-1.995.108.108.215.27.323.378l23.158 38.927c.322.485.161 1.186-.376 1.456-.484.323-1.129.161-1.451-.378-.43-.377-3.278 0-6.878 2.265-3.17 2.048-4.298 3.935-4.191 4.367.323.485.108 1.132-.376 1.456a.77.77 0 01-.537.215zm-11.714-47.284c-1.074 0-3.438.593-6.286 2.426-3.17 2.049-4.299 3.936-4.191 4.368l21.761 36.662c.967-1.402 2.579-2.803 4.352-3.936 2.149-1.348 4.675-2.48 6.717-2.695l-21.815-36.717c-.054-.108-.269-.108-.538-.108z" fill="#00D1FF"/><path d="M885.785 409.683l-23.158-38.927.161.161 23.158 38.928a24.515 24.515 0 00-.161-.162z" fill="#fff"/><path d="M885.946 410.923c-.268 0-.537-.108-.752-.324-.107-.107-.215-.269-.322-.377l-23.159-38.927c-.322-.485-.161-1.186.377-1.456.537-.323 1.182-.162 1.45.378l.161.161 23.159 38.927c.268.486.161 1.079-.269 1.402-.161.162-.43.216-.645.216z" fill="#00D1FF"/><path d="M875.576 362.992l23.158 38.927c.699 1.186-1.236 3.666-4.567 5.769-3.492 2.264-7.2 3.181-8.221 2.157l-23.158-38.928c1.075 1.079 4.728.108 8.221-2.156 3.331-2.049 5.266-4.583 4.567-5.769z" fill="#fff"/><path d="M887.397 411.354c-.913 0-1.666-.215-2.203-.755a.725.725 0 01-.161-.215l-23.158-38.927c-.269-.486-.162-1.079.268-1.402a1.061 1.061 0 011.397.108c.43.377 3.278 0 6.878-2.265 3.17-2.049 4.298-3.936 4.191-4.367-.322-.485-.108-1.132.376-1.456.484-.323 1.182-.108 1.505.378l23.158 38.927c1.236 2.049-1.612 5.122-4.89 7.225-2.364 1.563-5.265 2.749-7.361 2.749zm-.645-2.21c.591.269 3.385-.108 6.824-2.319 3.17-2.048 4.299-3.936 4.191-4.367l-21.815-36.716c-.967 1.401-2.579 2.803-4.352 3.935-2.149 1.348-4.675 2.481-6.663 2.696l21.815 36.771z" fill="#00D1FF"/><path d="M864.131 371.457c-1.397.269-2.471.161-2.955-.378l1.666-.162c.43.432 1.343.54 2.471.324-.429.108-.806.162-1.182.216z" fill="#fff"/><path d="M862.842 372.697c-1.075 0-1.881-.27-2.472-.863-.269-.323-.376-.755-.269-1.132.162-.378.484-.647.914-.701l1.666-.162c.322 0 .644.108.859.324.054.054.538.054 1.505.054.591 0 1.128.269 1.236.862a1.052 1.052 0 01-.86 1.24l-1.182.216c-.43.108-.967.162-1.397.162z" fill="#00D1FF"/><path d="M874.77 365.58c.914-1.186 1.236-2.157.645-2.75-1.075-1.078-4.728-.108-8.221 2.157-3.493 2.264-5.481 4.906-4.406 5.984l-1.666.162c-1.235-1.294 1.129-4.475 5.32-7.171 4.191-2.695 8.597-3.828 9.886-2.534.645.701.323 1.887-.806 3.289-.215.216-.483.593-.752.863z" fill="#fff"/><path d="M861.176 372.158c-.269 0-.537-.108-.752-.324-.323-.377-.752-.97-.645-1.941.269-2.372 3.331-5.122 6.125-6.901 4.138-2.642 9.296-4.313 11.177-2.426.483.485 1.45 1.995-.699 4.744l-.752.917c-.376.485-1.021.539-1.505.162-.483-.378-.537-1.025-.161-1.51.591-.755.699-1.186.699-1.348-.538-.323-3.332.054-6.878 2.318-3.116 1.995-4.245 3.828-4.191 4.314a.992.992 0 01.215 1.078 1.132 1.132 0 01-.913.701l-1.666.162c0 .054-.054.054-.054.054z" fill="#00D1FF"/><path d="M865.313 371.241c-.376.054-.752.162-1.182.216 1.935-.324 4.46-1.402 6.878-2.966 1.988-1.24 3.546-2.642 4.513-3.882l-.752.917c-.806 1.024-2.095 2.157-3.761 3.235-1.988 1.348-4.137 2.21-5.696 2.48z" fill="#fff"/><path d="M864.131 372.535c-.537 0-.967-.377-1.074-.863a1.051 1.051 0 01.859-1.24c1.827-.323 4.299-1.401 6.502-2.803 1.773-1.133 3.278-2.427 4.245-3.613.376-.485 1.021-.539 1.504-.161.484.377.537 1.024.161 1.509l-.752.917c-.913 1.186-2.364 2.372-4.03 3.45-2.095 1.348-4.298 2.265-6.125 2.588l-1.128.216h-.162z" fill="#00D1FF"/><path d="M876.49 361.59c-.054-.054-.108-.162-.162-.216-1.235-1.294-5.695-.107-9.886 2.534-3.976 2.534-6.287 5.554-5.481 6.956-9.08-15.474-18.215-30.894-27.349-46.368-.806-1.348 1.504-4.313 5.373-6.793 4.084-2.642 8.436-3.774 9.672-2.48.053.054.107.161.161.215 9.242 15.366 18.43 30.732 27.672 46.152z" fill="#fff"/><path d="M860.961 371.942c-.376 0-.698-.216-.913-.539l-27.349-46.368c-1.344-2.318 1.88-5.823 5.695-8.249 4.03-2.588 9.134-4.259 11.015-2.372.107.108.215.269.322.431l27.672 46.152c.537.485.269 1.186-.269 1.456-.483.323-1.343.162-1.343-.378h-.107c-.591-.593-4.353 0-8.597 2.696-4.245 2.696-5.374 5.068-5.159 5.5a1.045 1.045 0 01-.376 1.455c-.215.162-.376.216-.591.216zm-13.916-56.18c-1.397 0-4.299.809-7.469 2.857-4.083 2.588-5.212 4.961-4.997 5.338l25.952 43.995c1.075-1.725 3.117-3.504 5.373-4.96 2.741-1.725 5.911-3.073 8.275-3.235l-26.275-43.78c-.161-.161-.429-.215-.859-.215z" fill="#00D1FF"/><path d="M860.961 370.864c-9.08-15.474-18.215-30.894-27.349-46.368.054.054.107.162.161.216l27.349 46.367c-.053-.054-.107-.161-.161-.215z" fill="#fff"/><path d="M861.176 372.158c-.269 0-.537-.108-.752-.324-.108-.108-.269-.269-.323-.431h.054l-27.295-46.368c-.538-.539-.269-1.186.268-1.455.538-.324 1.344-.108 1.344.377 0 .054.215.162.215.216l27.403 46.367c.268.485.161 1.078-.269 1.402a1.03 1.03 0 01-.645.216z" fill="#00D1FF"/><path d="M848.818 315.438c9.242 15.366 18.43 30.786 27.672 46.152.859 1.402-1.505 4.421-5.481 6.955-4.191 2.696-8.597 3.828-9.887 2.534l-27.349-46.367c1.236 1.24 5.534.108 9.672-2.48 3.922-2.534 6.179-5.446 5.373-6.794z" fill="#fff"/><path d="M862.842 372.643c-1.021 0-1.881-.27-2.472-.809a.745.745 0 01-.161-.216l-27.349-46.367c-.269-.485-.161-1.078.268-1.402a1.064 1.064 0 011.397.108c.591.593 4.191 0 8.329-2.642 4.083-2.642 5.212-4.96 4.997-5.338-.323-.485-.161-1.186.376-1.455.483-.324 1.182-.162 1.451.377l27.671 46.152c1.397 2.318-1.934 5.931-5.803 8.411-2.848 1.833-6.233 3.181-8.704 3.181zm-.86-2.265c.752.486 4.352-.108 8.436-2.749 4.191-2.696 5.373-5.122 5.104-5.5l-26.221-43.833c-1.074 1.671-3.062 3.45-5.265 4.852-2.633 1.672-5.749 2.966-8.06 3.127l26.006 44.103z" fill="#00D1FF"/><path d="M848.925 315.6c-.053-.162-.161-.27-.268-.377-1.236-1.24-5.535-.108-9.672 2.48-4.03 2.588-6.34 5.661-5.266 6.955-.268-.324-1.02-1.456-.483-3.666.107-.54.43-1.348.967-2.319.269-.431.591-.862.591-.862.376-.486.591-.701.913-1.025.215-.216.645-.647.914-.809.537-.431.752-.593 1.182-.862a12.062 12.062 0 012.149-1.079c1.612-.647 3.17-.862 4.675-.754 1.558.161 2.418.647 2.74.808.323.054 1.182.593 1.558 1.51z" fill="#fff"/><path d="M833.773 325.736a.967.967 0 01-.806-.377c-.376-.432-1.343-1.941-.698-4.637.161-.593.483-1.51 1.074-2.588.269-.431.591-.917.699-.97.43-.54.645-.755.967-1.133.215-.269.698-.701 1.021-.916.591-.485.806-.647 1.289-.917a15.613 15.613 0 012.311-1.186c1.773-.701 3.492-.97 5.158-.809 1.827.162 2.794.701 3.17.917.43.216 1.397.863 1.881 1.995 0 .054.054.108.054.162.214.539-.054 1.186-.592 1.401a1.09 1.09 0 01-1.397-.593c-.591-.593-4.191 0-8.328 2.642-3.116 1.995-4.943 4.098-5.104 5.176 0 .108-.054.162-.054.216.537.431.43 1.132-.054 1.509-.215 0-.376.108-.591.108zm9.833-11.484c-1.075 0-2.149.27-3.224.701-1.021.431-1.827.917-1.934.971a9.25 9.25 0 00-1.129.808c-.215.162-.644.539-.806.755-.322.324-.483.485-.806.971-.107.161-.376.485-.537.754 0 .054-.054.108-.054.162.914-.863 2.042-1.725 3.332-2.534 1.612-1.132 3.492-1.995 5.158-2.588z" fill="#00D1FF"/><path d="M848.281 314.683c.107.108.429.486.644.917.538 1.402-1.719 4.259-5.427 6.632-4.083 2.641-8.435 3.774-9.671 2.48-.054-.054-1.021-1.186.215-4.044 1.182-2.857 4.406-5.068 4.567-5.176-.161.108-3.385 2.319-4.567 5.176-1.182 2.858-.215 3.99-.215 4.044l-.054-.054c-.645-.809-.86-2.157-.483-3.613.161-.593.322-.97.322-.97.107-.27.269-.593.376-.863.054-.161.161-.377.269-.539.107-.215.591-.97 1.45-1.833.806-.863 1.72-1.456 1.881-1.563.376-.27 1.236-.809 2.418-1.294 2.203-.863 3.815-.809 4.836-.701.967.107 1.665.323 1.988.485.806.269 1.236.701 1.451.916z" fill="#fff"/><path d="M835.493 326.275c-1.021 0-1.881-.269-2.418-.808l-.108-.108c-.913-1.079-1.182-2.804-.698-4.583.161-.593.322-1.078.376-1.186.107-.27.268-.647.376-.863.107-.162.215-.431.322-.593.215-.323.699-1.132 1.612-2.103.914-.916 1.881-1.563 2.042-1.725.43-.269 1.343-.916 2.633-1.402 2.418-.97 4.191-.916 5.319-.808 1.075.107 1.935.377 2.311.539.967.431 1.558.916 1.827 1.186.161.162.591.647.859 1.294.967 2.48-2.579 5.823-5.856 7.925-2.902 1.887-6.233 3.235-8.597 3.235zm-.86-2.264c.698.485 4.245-.108 8.274-2.696 3.977-2.534 5.212-4.852 4.997-5.338-.053-.161-.214-.323-.376-.539-.107-.108-.483-.431-1.128-.701a6.945 6.945 0 00-1.719-.431c-.914-.108-2.311-.108-4.299.647-.269.108-.537.216-.752.324v.161c0 .324-.161.701-.484.863-1.128.809-3.331 2.696-4.191 4.745-.43.97-.537 1.671-.537 2.156.054.485.161.701.215.809z" fill="#00D1FF"/><path d="M836.836 325.251s1.934 13.964 6.555 22.644c3.278 6.201 9.618 11.323 13.003 13.695.86.647.645 1.995-.322 2.318a1.967 1.967 0 01-1.559-.161c-2.471-1.456-10.262-6.632-14.131-14.611-4.621-9.544-7.092-24.316-7.092-24.316l3.546.431z" fill="#fff"/><path d="M855.427 365.095c-.537 0-1.021-.162-1.505-.432-2.418-1.455-10.531-6.793-14.561-15.042-4.567-9.597-7.039-24.047-7.146-24.64-.054-.323.054-.701.269-.916.215-.27.591-.378.913-.324l3.546.432c.484.054.86.431.914.916 0 .162 1.988 13.856 6.447 22.267 3.171 5.985 9.296 10.945 12.681 13.317.752.54 1.128 1.402.967 2.319a2.488 2.488 0 01-1.612 1.941 2.495 2.495 0 01-.913.162zm-20.848-39.035c.752 3.935 3.063 15.042 6.717 22.59 3.707 7.764 11.444 12.778 13.701 14.126.215.108.43.162.645.054.107-.054.161-.108.161-.216 0-.107 0-.161-.107-.215-3.547-2.534-9.941-7.71-13.326-14.072-3.976-7.602-5.964-18.979-6.501-22.106l-1.29-.161zm172.581-.647h-.05l-79.683-4.529a1.118 1.118 0 01-1.021-1.132 1.117 1.117 0 011.128-1.025l79.686 4.529c.59.054 1.02.539 1.02 1.132-.05.593-.48 1.025-1.08 1.025zm0 19.948h-.1l-79.687-8.68c-.591-.054-1.021-.593-.967-1.186a1.086 1.086 0 011.182-.971l79.682 8.681c.59.054 1.02.593.97 1.186-.05.593-.54.97-1.08.97zm-4.29 21.675h-.17l-78.121-13.048a1.052 1.052 0 01-.86-1.24 1.05 1.05 0 011.236-.863l78.075 12.994c.59.108.96.647.86 1.24-.06.539-.54.917-1.02.917zm-4.733 21.242c-.053 0-.161 0-.268-.053l-78.126-18.116c-.591-.108-.913-.701-.806-1.294.108-.593.699-.917 1.29-.809l78.125 18.116c.591.108.914.701.806 1.294-.107.539-.537.862-1.021.862z" fill="#00D1FF"/><path d="M908.621 416.315l2.364 14.611 28.531-21.243" fill="#fff"/><path d="M910.985 432.004c-.161 0-.269 0-.43-.054-.322-.162-.591-.431-.645-.809l-2.364-14.665c-.107-.593.323-1.132.914-1.24.591-.108 1.128.324 1.236.917l2.095 12.886 27.134-20.219c.484-.377 1.129-.269 1.505.216.376.485.269 1.132-.215 1.51l-28.531 21.296a1.65 1.65 0 01-.699.162z" fill="#00D1FF"/></g><path d="M874.178 1088.08h.002L1014 1039.6l-139.822 48.48zm0 0c-16.231 5.66-34.37 1.92-47.403-9.88l-.003-.01m47.406 9.89l-47.406-9.89m0 0L714.628 977.285h0m112.144 100.905L714.628 977.285m0 0c-13.018-11.703-19.18-29.781-15.938-47.165h0m15.938 47.165L698.69 930.12m0 0l27.786-149.405.001-.001c3.242-17.384 15.262-31.578 31.604-37.266l139.822-48.476h.002M698.69 930.12l199.215-235.148m0 0c16.231-5.666 34.37-1.926 47.403 9.881l.003.002m-47.406-9.883l47.406 9.883m0 0l112.139 100.91h.01m-112.149-100.91l112.149 100.91m0 0c13.01 11.699 19.05 29.686 15.83 47.187l-15.83-47.187zm-11.85 196.575l27.68-149.387-27.68 149.387zm0 0c-3.25 17.38-15.27 31.57-31.61 37.26l31.61-37.26z" fill="#fff" stroke="#00D1FF" stroke-width="2"/><g clip-path="url(#clip3)"><path d="M869.407 805.561l6.52-3.802c1.758-1.021 4.139-.851 6.804.681l-6.52 3.802c-2.665-1.532-5.103-1.703-6.804-.681z" fill="#fff"/><path d="M876.211 807.376c-.17 0-.397-.056-.567-.17-2.212-1.305-4.253-1.532-5.67-.681a1.098 1.098 0 01-1.531-.397 1.1 1.1 0 01.397-1.532l6.52-3.802c2.211-1.248 4.99-1.021 7.938.681.34.227.567.568.567.965s-.227.794-.567.964l-6.52 3.802a1.09 1.09 0 01-.567.17zm-2.042-3.234c.681.17 1.361.454 2.042.851l4.082-2.383c-1.474-.454-2.778-.397-3.799.17l-2.325 1.362z" fill="#00D1FF"/><path d="M1015.92 963.81l-6.52 3.802c1.7-1.021 2.78-3.121 2.78-6.185l6.52-3.801c0 3.064-1.08 5.22-2.78 6.184z" fill="#fff"/><path d="M1009.4 968.747c-.4 0-.8-.227-.97-.568a1.102 1.102 0 01.4-1.532c1.42-.851 2.21-2.666 2.21-5.163 0-.397.23-.794.57-.965l6.52-3.801c.34-.227.79-.227 1.13 0 .34.227.57.567.57.964 0 3.348-1.19 5.901-3.35 7.15l-6.52 3.801a1.96 1.96 0 01-.56.114zm3.91-6.639c-.06.738-.11 1.419-.28 2.1l2.32-1.362c1.02-.568 1.7-1.646 1.99-3.064l-4.03 2.326z" fill="#00D1FF"/><path d="M1012.4 895.949l6.47-3.745-.17 65.478-6.52 3.745.22-65.478z" fill="#fff"/><path d="M1012.18 962.562c-.17 0-.4-.057-.57-.17-.34-.227-.57-.567-.57-.965l.17-65.478c0-.398.23-.795.57-.965l6.52-3.802c.34-.227.79-.227 1.13 0 .34.227.57.568.57.965l-.17 65.535c0 .398-.23.795-.57.965l-6.52 3.802c-.17.113-.34.113-.56.113zm1.36-65.933l-.17 62.869 4.25-2.44.17-62.868-4.25 2.439z" fill="#00D1FF"/><path d="M876.211 806.242l6.52-3.802 126.609 73.139-6.52 3.801-126.609-73.138z" fill="#fff"/><path d="M1002.82 880.515c-.17 0-.4-.057-.57-.17l-126.606-73.139c-.341-.227-.567-.567-.567-.965 0-.397.226-.794.567-.964l6.52-3.802a1.03 1.03 0 011.134 0l126.612 73.139c.34.227.56.567.56.965 0 .397-.22.794-.56.964l-6.52 3.802c-.17.113-.4.17-.57.17zm-124.341-74.274l124.341 71.834 4.25-2.496-124.339-71.834-4.252 2.496z" fill="#00D1FF"/><path d="M1002.82 879.38l6.52-3.801c5.27 3.064 9.58 10.497 9.58 16.568l-6.52 3.802c0-6.072-4.31-13.505-9.58-16.569z" fill="#fff"/><path d="M1012.4 897.083c-.17 0-.39-.056-.56-.17-.34-.227-.57-.567-.57-.964 0-5.731-4.03-12.71-9.02-15.604-.34-.227-.56-.568-.56-.965s.22-.794.56-.964l6.52-3.802c.34-.227.8-.227 1.14 0 5.61 3.234 10.15 11.121 10.15 17.533 0 .397-.23.794-.57.965l-6.52 3.801c-.17.114-.4.17-.57.17zm-7.43-17.646c4.31 3.291 7.77 9.192 8.45 14.582l4.37-2.553c-.28-5.39-3.91-11.689-8.45-14.582l-4.37 2.553z" fill="#00D1FF"/><path d="M1002.82 879.38c5.27 3.064 9.58 10.497 9.58 16.569l-.17 65.478c0 6.072-4.31 8.568-9.64 5.504l-126.606-73.139c-5.273-3.064-9.582-10.497-9.582-16.568l.17-65.479c0-6.071 4.309-8.568 9.639-5.504l126.609 73.139z" fill="#fff"/><path d="M1006.9 969.371c-1.53 0-3.17-.511-4.87-1.475l-126.613-73.139c-5.613-3.234-10.149-11.121-10.149-17.59l.17-65.478c0-3.348 1.19-5.901 3.402-7.15 2.211-1.248 4.989-1.021 7.938.681l126.612 73.196c5.61 3.234 10.15 11.121 10.15 17.533l-.17 65.478c0 3.348-1.19 5.901-3.41 7.15-.96.567-1.98.794-3.06.794zm-134.999-163.3c-.737 0-1.36.17-1.927.511-1.418.851-2.212 2.667-2.268 5.163l-.17 65.479c0 5.731 4.025 12.71 9.015 15.604l126.609 73.139c2.21 1.248 4.2 1.532 5.67.68 1.42-.851 2.27-2.666 2.27-5.163l.17-65.479c0-5.731-4.03-12.71-9.02-15.603l-126.606-73.196c-1.361-.738-2.609-1.135-3.743-1.135z" fill="#00D1FF"/><path d="M991.083 876.033l-113.909-65.82c-4.422-2.553-7.994-.51-7.994 4.54l-.17 63.209c0 5.05 3.572 11.234 7.938 13.788l113.909 65.819c4.422 2.553 7.994.511 7.994-4.539l.17-63.209c0-5.107-3.572-11.235-7.938-13.788z" fill="#fff"/><path d="M994.429 959.782c-1.304 0-2.722-.397-4.139-1.248l-113.909-65.82c-4.763-2.78-8.505-9.248-8.505-14.752l.17-63.209c0-2.837 1.02-5.05 2.892-6.128 1.871-1.078 4.309-.908 6.803.567l113.909 65.819c4.763 2.78 8.51 9.249 8.51 14.753l-.175 63.209c0 2.837-1.02 5.05-2.892 6.128a5.635 5.635 0 01-2.664.681zM873.602 810.27c-.567 0-1.077.114-1.53.397-1.134.681-1.758 2.156-1.758 4.142l-.17 63.153c0 4.709 3.288 10.44 7.371 12.766l113.909 65.82c1.757 1.021 3.402 1.248 4.535.567 1.134-.681 1.758-2.099 1.758-4.142l.17-63.209c0-4.71-3.288-10.441-7.371-12.767l-113.909-65.819c-1.077-.624-2.097-.908-3.005-.908z" fill="#00D1FF"/><path d="M1004.24 913.992c-1.53-.851-2.72-.17-2.72 1.589l-.06 14.185c0 1.759 1.19 3.858 2.72 4.709 1.53.852 2.72.171 2.72-1.588l.06-14.185c-.06-1.703-1.25-3.802-2.72-4.71z" fill="#fff"/><path d="M1005.37 936.064c-.51 0-1.08-.113-1.76-.51-1.87-1.079-3.28-3.518-3.28-5.731l.05-14.185c0-1.249.51-2.27 1.36-2.781.85-.51 1.93-.454 3.06.17 1.88 1.079 3.29 3.518 3.29 5.731l-.05 14.185c0 1.249-.51 2.27-1.36 2.781-.34.17-.74.34-1.31.34zm-2.38-21.278h-.11c-.06.057-.23.284-.23.795l-.06 14.185c0 1.362.97 3.064 2.16 3.745.39.227.68.284.79.17.06-.057.23-.284.23-.794l.06-14.185c0-1.362-.97-3.064-2.16-3.745-.28-.114-.51-.171-.68-.171zm-36.741 28.655h-.227a1.088 1.088 0 01-.85-1.362c2.211-10.327 2.495-19.065.737-26.782-2.098-9.362-7.314-17.249-14.402-21.505l-.453-.283c-1.531-.908-3.232-1.929-3.969-3.802-.114-.34-.454-.738-.737-1.135-.284-.397-.624-.851-.851-1.305-1.644-3.234.284-4.993 2.098-6.752.964-.908 1.984-1.929 2.892-3.291 3.061-4.653 2.211-8.851.907-11.518-1.985-4.313-6.464-7.774-10.66-8.284a16.56 16.56 0 01-1.644-.227c-5.046-.681-9.412-1.249-11.793 2.496-1.645 2.61-1.815 6.639-2.042 10.554-.17 2.951-.283 6.015-1.077 8.454-.34 1.022-.907 2.497-2.268 3.235-1.02.567-2.154.567-2.948.567-2.665-.17-5.046-1.135-7.371-2.099-1.814-.738-3.515-1.419-5.273-1.759-4.536-.851-9.696.851-13.495 4.369-3.345 3.12-5.84 7.66-7.144 13.107-.17.624-.737.964-1.36.851-.624-.17-.964-.738-.851-1.362 1.418-5.901 4.082-10.781 7.768-14.242 4.309-4.028 10.262-5.901 15.479-4.936 1.984.397 3.912 1.135 5.726 1.872 2.268.908 4.423 1.759 6.691 1.929.794.057 1.304-.056 1.701-.227.51-.283.907-.907 1.247-1.986.681-2.156.851-4.936.964-7.886.227-4.199.454-8.568 2.382-11.632 3.118-4.994 8.618-4.256 14.004-3.575a16.29 16.29 0 011.645.227c4.989.624 10.092 4.539 12.473 9.589 2.098 4.539 1.701 9.419-1.077 13.731-1.02 1.589-2.268 2.724-3.232 3.689-1.927 1.815-2.494 2.439-1.644 4.085.17.284.397.624.624.964.397.511.793 1.022 1.02 1.646.454 1.135 1.701 1.872 3.005 2.667l.454.283c7.598 4.596 13.211 12.994 15.422 22.98 1.815 8.058 1.531 17.136-.737 27.747-.17.567-.624.908-1.134.908z" fill="#00D1FF"/><path d="M943.966 894.984c-9.128 0-18.257-4.312-23.7-11.632-.284-.34-.68-.908-.964-.964-.624-.057-1.077-.625-1.021-1.249a1.144 1.144 0 011.248-1.021c1.304.113 2.041 1.135 2.551 1.816 6.351 8.511 17.974 12.596 28.237 9.929.623-.17 1.247.227 1.36.795.17.624-.226 1.248-.793 1.361-2.268.681-4.593.965-6.918.965zm6.294-23.491c-2.835 0-4.479-1.248-5.613-2.156-.624-.51-1.078-.794-1.361-.794-.284 0-.681.17-1.077.34l-.284.114c-6.407 2.667-13.664-.568-17.577-5.107-.397-.454-.34-1.191.114-1.589.453-.397 1.19-.34 1.587.114 3.346 3.972 9.582 6.752 14.969 4.482l.227-.113c.51-.227 1.134-.454 1.814-.511 1.191-.057 2.041.624 2.892 1.248 1.474 1.135 3.118 2.384 7.371 1.192.623-.17 1.247.17 1.417.794.17.625-.17 1.249-.794 1.419-1.417.397-2.608.567-3.685.567zm-11.51 11.746a14.75 14.75 0 01-5.613-1.078c-.567-.227-.851-.908-.624-1.476.227-.567.907-.851 1.474-.624 2.211.851 4.65 1.135 7.031.681a1.107 1.107 0 011.304.908 1.108 1.108 0 01-.907 1.305c-.907.227-1.815.284-2.665.284z" fill="#00D1FF"/><path d="M917.091 938.901s-24.551 12.824-35.721 29.903C870.2 985.883 858.18 1018 858.18 1018l6.747 3.35s18.428-40.858 25.175-50.106c6.747-9.249 33.169-27.974 33.169-27.974s12.984 36.031 17.463 53.11c4.48 17.08 3.969 50.33 3.969 50.33h8.675s0-32.46-3.345-53.962c-3.345-21.504-16.67-47.719-16.67-47.719s12.474 5.22 27.33 25.647c14.855 20.427 17.35 37.274 17.35 37.274l6.747-.56s-6.067-33.026-20.242-46.417c-14.175-13.39-25.118-22.072-25.118-22.072h-22.339z" fill="#fff"/><path d="M953.322 1047.84h-8.675c-.284 0-.567-.11-.794-.34-.227-.22-.34-.51-.34-.79 0-.34.51-33.31-3.913-49.99-3.969-14.923-14.515-44.768-16.953-51.577-5.273 3.801-25.968 19.008-31.695 26.838-6.577 9.022-24.834 49.479-25.061 49.879-.113.28-.34.51-.623.62a1.04 1.04 0 01-.908-.06l-6.747-3.4c-.51-.28-.737-.85-.567-1.42.114-.34 12.247-32.455 23.304-49.421 11.169-17.135 35.153-29.788 36.174-30.299.17-.057.34-.114.51-.114h22.283c.283 0 .51.114.68.227.114.114 11.113 8.852 25.175 22.129 14.288 13.505 20.355 45.678 20.582 47.038.056.34 0 .62-.227.91-.17.23-.51.4-.794.45l-6.747.57c-.567.06-1.134-.4-1.191-.97 0-.17-2.608-16.847-17.123-36.763-10.206-14.015-19.278-20.824-23.814-23.604 3.629 7.717 12.587 27.803 15.196 44.825 3.288 21.392 3.345 53.792 3.345 54.132 0 .28-.113.57-.34.79-.227.23-.454.34-.737.34zm-7.485-2.27h6.351c-.057-5.9-.397-33.7-3.346-52.652-3.288-21.107-16.386-47.094-16.556-47.321-.227-.397-.17-.965.17-1.305.34-.341.851-.454 1.248-.284.51.227 12.927 5.561 27.782 26.044 12.928 17.76 16.557 32.678 17.35 36.708l4.48-.34c-1.248-6.07-7.485-33.02-19.675-44.595-12.701-12.029-22.85-20.257-24.721-21.789h-21.602c-2.552 1.362-24.778 13.675-35.041 29.392-9.865 15.15-20.638 42.552-22.736 48.062l4.763 2.38c3.005-6.64 18.597-40.74 24.777-49.251 6.748-9.305 32.319-27.462 33.396-28.257a1.104 1.104 0 011.021-.17c.34.114.623.341.737.681.113.341 13.041 36.257 17.52 53.223 4.139 15.434 4.139 43.354 4.082 49.474z" fill="#00D1FF"/><path d="M936.936 932.546l-19.789-11.518 4.536-2.61 19.845 11.518-4.592 2.61z" fill="#fff"/><path d="M936.936 933.681c-.171 0-.397-.057-.567-.17l-19.789-11.518c-.34-.227-.567-.568-.567-.965s.227-.794.567-.965l4.536-2.61a1.03 1.03 0 011.134 0l19.788 11.519c.341.227.567.567.567.964s-.226.795-.567.965l-4.535 2.61a.964.964 0 01-.567.17zm-17.521-12.653l17.521 10.213 2.268-1.305-17.521-10.213-2.268 1.305z" fill="#00D1FF"/><path d="M932.74 947.81l-19.845-11.519-.057-25.874 19.788 11.519.114 25.874z" fill="#fff"/><path d="M932.74 948.944c-.17 0-.397-.056-.567-.17l-19.788-11.518c-.34-.227-.567-.568-.567-.965l-.057-25.874c0-.397.227-.794.567-.964a1.03 1.03 0 011.134 0l19.788 11.518c.34.227.567.568.567.965l.057 25.874c0 .397-.227.794-.567.964-.227.114-.397.17-.567.17zm-18.711-13.334l17.52 10.214-.057-23.264-17.52-10.213.057 23.263z" fill="#00D1FF"/><path d="M932.626 921.936l-19.788-11.519 4.253-2.496 19.845 11.518-4.31 2.497z" fill="#fff"/><path d="M932.626 923.071a1.09 1.09 0 01-.567-.171l-19.788-11.518c-.34-.227-.567-.567-.567-.965 0-.397.227-.794.567-.964l4.253-2.44a1.03 1.03 0 011.134 0l19.788 11.518c.34.227.567.568.567.965s-.227.794-.567.965l-4.253 2.439a.954.954 0 01-.567.171zm-17.52-12.654l17.52 10.214 1.985-1.135-17.52-10.213-1.985 1.134z" fill="#00D1FF"/><path d="M936.936 919.439v13.107l4.592-2.61v12.767l-8.788 5.107-.114-25.874 4.31-2.497z" fill="#fff"/><path d="M932.74 948.944c-.17 0-.397-.056-.567-.17-.34-.227-.567-.567-.567-.964l-.057-25.874c0-.397.227-.795.567-.965l4.253-2.44a1.03 1.03 0 011.134 0c.34.227.567.568.567.965l.056 11.121 2.835-1.645a1.03 1.03 0 011.134 0c.34.227.567.567.567.964l.057 12.767c0 .397-.227.794-.567.964l-8.845 5.107c-.227.114-.397.17-.567.17zm1.02-26.384l.057 23.264 6.577-3.802-.057-10.157-2.834 1.646a1.03 1.03 0 01-1.134 0c-.341-.227-.567-.567-.567-.965l-.057-11.121-1.985 1.135z" fill="#00D1FF"/><path d="M861.129 1027.93a7.996 7.996 0 007.994-8c0-4.42-3.579-8-7.994-8a7.996 7.996 0 00-7.995 8c0 4.42 3.579 8 7.995 8z" fill="#fff"/><path d="M861.129 1029.06a9.121 9.121 0 01-9.129-9.13c0-5.05 4.082-9.14 9.129-9.14 5.046 0 9.128 4.09 9.128 9.14 0 5.05-4.082 9.13-9.128 9.13zm0-16a6.856 6.856 0 00-6.861 6.87c0 3.8 3.062 6.86 6.861 6.86 3.798 0 6.86-3.06 6.86-6.86 0-3.8-3.062-6.87-6.86-6.87z" fill="#00D1FF"/><path d="M981.558 1016.69a7.996 7.996 0 007.994-8c0-4.42-3.579-8-7.994-8a7.997 7.997 0 00-7.995 8c0 4.42 3.58 8 7.995 8z" fill="#fff"/><path d="M981.558 1017.83c-5.046 0-9.129-4.09-9.129-9.14a9.124 9.124 0 019.129-9.133 9.124 9.124 0 019.128 9.133c0 5.05-4.082 9.14-9.128 9.14zm0-16.06a6.85 6.85 0 00-6.861 6.87c0 3.8 3.062 6.86 6.861 6.86a6.847 6.847 0 006.861-6.86c0-3.75-3.062-6.87-6.861-6.87z" fill="#00D1FF"/><path d="M948.672 1056.87c4.416 0 7.995-3.59 7.995-8.01 0-4.41-3.579-8-7.995-8-4.415 0-7.994 3.59-7.994 8 0 4.42 3.579 8.01 7.994 8.01z" fill="#fff"/><path d="M948.672 1058c-5.046 0-9.128-4.09-9.128-9.14 0-5.05 4.082-9.13 9.128-9.13a9.121 9.121 0 019.129 9.13c0 5.05-4.139 9.14-9.129 9.14zm0-16.06a6.855 6.855 0 00-6.86 6.87c0 3.8 3.061 6.86 6.86 6.86a6.847 6.847 0 006.861-6.86c0-3.75-3.119-6.87-6.861-6.87z" fill="#00D1FF"/></g><path d="M1118.56 614.928l-2-.038 2 .038zm-92.65 234.032c.01 1.105.91 1.99 2.02 1.978l18-.202a1.992 1.992 0 001.97-2.022 1.993 1.993 0 00-2.02-1.978l-16 .18-.18-15.999a1.993 1.993 0 00-2.02-1.978c-1.1.013-1.99.918-1.98 2.022l.21 17.999zm15.27-461.699c28.5 35.084 77.7 103.609 75.38 227.629l4 .075c2.34-125.307-47.44-194.728-76.28-230.226l-3.1 2.522zm75.38 227.629c-2.1 112.225-51.89 193.59-90.08 232.65l2.86 2.796c38.81-39.693 89.1-122.001 91.22-235.371l-4-.075zm-543.649 566.67l.037-2-.037 2zm-234.033-92.65c-1.104.01-1.99.91-1.977 2.02l.201 18c.013 1.1.918 1.99 2.023 1.97a1.993 1.993 0 001.977-2.02l-.179-16 15.999-.18a1.993 1.993 0 001.977-2.02 2.006 2.006 0 00-2.022-1.98l-17.999.21zm461.699 15.27c-35.084 28.5-103.609 77.7-227.629 75.38l-.075 4c125.307 2.34 194.728-47.44 230.227-76.28l-2.523-3.1zm-227.629 75.38c-112.224-2.1-193.59-51.89-232.649-90.08l-2.797 2.86c39.693 38.81 122.001 89.1 235.371 91.22l.075-4z" fill="#000"/><defs><clipPath id="clip0"><path fill="#fff" transform="rotate(82.66 16.133 319.34)" d="M0 0h159.808v178.609H0z"/></clipPath><clipPath id="clip1"><path fill="#fff" transform="translate(119 782)" d="M0 0h248v262H0z"/></clipPath><clipPath id="clip2"><path fill="#fff" transform="translate(832 288.858)" d="M0 0h198v179H0z"/></clipPath><clipPath id="clip3"><path fill="#fff" transform="translate(852 800)" d="M0 0h168v258H0z"/></clipPath></defs></svg>