<?xml version="1.0" encoding="utf-8"?><svg xmlns="http://www.w3.org/2000/svg" xmlns:xlink="http://www.w3.org/1999/xlink"><symbol viewBox="0 0 10 6" id="arrow-bottom" xmlns="http://www.w3.org/2000/svg"><path fill-rule="evenodd" clip-rule="evenodd" d="M5 6a.997.997 0 01-.707-.293l-4-4A.999.999 0 111.707.293l3.305 3.305L8.305.418a1 1 0 011.39 1.44l-4 3.861A.997.997 0 015 6z"/></symbol><symbol viewBox="0 0 22 23" id="checkmark" xmlns="http://www.w3.org/2000/svg"><path d="M1 9.5l10 12L21 1"/></symbol><symbol viewBox="0 0 25 24" id="circle" xmlns="http://www.w3.org/2000/svg"><path d="M12.342 23.81c6.604 0 11.958-5.325 11.958-11.895C24.3 5.345 18.946.02 12.342.02 5.737.02.383 5.345.383 11.915c0 6.57 5.354 11.896 11.959 11.896z"/></symbol><symbol viewBox="0 0 20 21" id="cloack" xmlns="http://www.w3.org/2000/svg"><path d="M.312 10.92C.211 5.826 4.521 1.216 9.504 1.008c5.488-.242 10.168 4.23 10.202 9.983.067 5.2-4.21 9.775-9.226 9.983C4.925 21.215.245 16.64.312 10.92zm9.697-7.937c-4.276 0-7.778 3.57-7.778 7.903 0 4.506 3.468 8.111 7.778 8.111 4.242.035 7.811-3.605 7.811-8.007 0-4.437-3.502-8.007-7.811-8.007z"/><path d="M10.413 10.332c1.145-.52 2.188-1.006 3.266-1.49.202-.105.505-.209.673-.14.236.14.505.416.573.66.033.242-.135.623-.337.727-1.515.797-3.03 1.525-4.545 2.253-.472.243-.977-.104-1.044-.659V6.242c0-.555.27-.867.74-.902.472 0 .741.312.741.902-.067 1.351-.067 2.669-.067 4.09z"/></symbol><symbol viewBox="0 0 15 13" id="close-message" xmlns="http://www.w3.org/2000/svg"><path d="M14.075 11.445L9.07 6.442l4.887-4.848-1.59-1.59L7.52 4.851 2.633.003l-1.59 1.59 4.886 4.849-4.964 5.003 1.551 1.552L7.52 8.032l4.964 4.965 1.59-1.552z"/></symbol><symbol viewBox="0 0 45 51" id="cup" xmlns="http://www.w3.org/2000/svg"><path d="M22.656 0h11.58c1.052 0 1.315.265 1.315 1.323v2.91c0 .529.131.661.658.661h7.368c1.053 0 1.448.265 1.316 1.323-.132 1.587-.395 3.175-.658 4.894a25.98 25.98 0 01-2.763 7.54c-1.447 2.645-3.421 4.894-6.184 6.349-.263.132-.527.53-.658.926-1.316 3.836-3.684 6.878-7.369 8.598-1.052.529-1.184.661-.92 1.852.657 3.306 2.63 5.555 5.789 6.746.658.264 1.447.264 2.237.397.79.132 1.184.396 1.184 1.058v4.365c0 .794-.395 1.19-1.053 1.19h-23.42c-.79 0-1.185-.396-1.185-1.058V44.71c0-.661.395-1.058 1.053-1.058 3.42 0 6.842-2.778 7.5-5.953l.394-1.984c.132-.396-.131-.661-.526-.793-3.421-1.852-5.79-4.498-7.237-7.937-.263-.397-.263-.926-.526-1.455 0-.132-.263-.397-.395-.397-3.947-1.984-6.316-5.29-7.895-9.259C1.341 13.757.814 11.508.42 9.259.288 8.201.156 7.143.025 6.217c-.132-.926.263-1.323 1.184-1.323h7.763c.79 0 .79 0 .79-.793V1.323C9.761.265 10.023 0 11.076 0h11.58zm0 1.72H12.13c-.79 0-.79 0-.79.793v17.725c0 1.587.264 3.175.658 4.63.79 2.513 2.106 4.63 4.08 6.349 2.368 1.984 5 2.91 8.026 2.38 3.026-.528 5.263-2.248 6.973-4.761 1.842-2.645 2.632-5.556 2.632-8.73V2.38c0-.53-.132-.661-.658-.661H22.656zm0 46.428h10.526c.527 0 .658-.132.658-.661v-1.984c0-.397-.131-.53-.526-.662-.395 0-.921-.132-1.316-.264-3.29-.926-5.526-3.043-6.71-6.217-.264-.794-.395-1.72-.658-2.646 0-.264-.132-.529-.526-.529h-3.29c-.395 0-.395.133-.526.397-.132.926-.264 1.72-.527 2.645-1.315 3.704-3.815 6.085-7.763 6.614-.526.133-.658.265-.658.794v1.72c0 .793 0 .793.79.793h10.526zM9.893 22.884v-.662c0-1.72-.132-3.307-.132-5.026V7.143c0-.265 0-.53-.526-.53H2.261c-.394 0-.526.133-.526.398v.529c.526 1.984.921 4.1 1.447 6.084.79 2.646 1.974 5.027 3.816 7.01.921.927 1.71 1.72 2.895 2.25zm25.526-.133c.132 0 .263-.132.263-.132.132-.132.264-.132.395-.264 3.553-2.646 5.132-6.482 6.316-10.582.395-1.455.526-3.043.79-4.498.131-.529 0-.661-.527-.661H36.34c-.526 0-.79.132-.79.661v12.566c0 .662-.13 1.323-.13 2.117v.793z"/><path d="M16.603 22.355c.263-1.191.395-2.514.658-3.704.131-.662 0-1.19-.526-1.72a24.907 24.907 0 01-2.632-2.645c-.395-.397-.658-.926-.395-1.455.263-.662.658-.926 1.316-1.058 1.316-.133 2.632-.397 3.947-.53.264 0 .527-.264.527-.396.658-1.19 1.184-2.381 1.71-3.572.263-.661.658-1.058 1.448-1.058.79 0 1.052.529 1.447 1.058.526 1.19 1.184 2.381 1.71 3.572a.723.723 0 00.658.396c1.316.265 2.632.397 3.948.53.658.132 1.184.396 1.447 1.058.263.661 0 1.058-.526 1.587-.921.926-1.842 1.852-2.895 2.778-.263.264-.395.529-.263.926.263 1.19.395 2.38.658 3.571 0 .397.131.926 0 1.323-.263.794-1.184 1.058-1.974.661-1.184-.529-2.237-1.19-3.42-1.852-.396-.264-.79-.264-1.317 0-1.184.662-2.368 1.19-3.684 1.852-.658.53-1.842-.132-1.842-1.322zm-.79-8.863c.264.265.264.397.395.53l2.5 2.512c.263.265.395.662.395 1.059-.263 1.19-.395 2.38-.658 3.571v.661c.263-.132.395-.132.526-.132.921-.529 1.843-.926 2.764-1.455.789-.529 1.579-.661 2.5 0 .789.53 1.71.926 2.5 1.323.131.132.263.132.526.264v-.396c-.263-1.19-.395-2.25-.658-3.44-.132-.661-.132-1.058.395-1.587l2.368-2.38c.132-.133.263-.265.395-.53-1.316-.265-2.369-.529-3.553-.529-.92 0-1.447-.397-1.71-1.323 0-.132-.132-.397-.264-.529-.394-.926-.92-1.852-1.315-2.778-.132.265-.263.397-.395.662-.526 1.058-1.053 2.116-1.447 3.042-.264.53-.658.794-1.185.794-1.315.264-2.631.529-4.079.661z"/></symbol><symbol viewBox="0 0 24 24" id="facebook" xmlns="http://www.w3.org/2000/svg"><path fill-rule="evenodd" clip-rule="evenodd" d="M12 24c6.627 0 12-5.373 12-12S18.627 0 12 0 0 5.373 0 12s5.373 12 12 12zm3.39-13.32l-.414 2.694h-2.18v6.513a9.43 9.43 0 01-2.922 0v-6.513H7.5V10.68h2.374V8.626C9.874 6.291 11.27 5 13.407 5c1.023 0 2.093.182 2.093.182v2.294h-1.18c-1.162 0-1.523.719-1.523 1.456v1.748h2.593z"/></symbol><symbol viewBox="0 0 23 26" id="hexagon" xmlns="http://www.w3.org/2000/svg"><path d="M23 19.372L11.896 25.83.792 19.373V6.796L11.896.34 23 6.797v12.575z"/></symbol><symbol viewBox="0 0 24 24" id="lamp" xmlns="http://www.w3.org/2000/svg"><path d="M14.152 17.374c-.605-.004-1.21.136-1.798.271-.564.132-1.15.264-1.717.268-.131 0-.16-.02-.188-.132-.143-.57-.368-1.17-.703-1.885a32.83 32.83 0 00-.593-1.194 25.173 25.173 0 01-.87-1.83c-.381-.922-.496-1.653-.373-2.368a4.079 4.079 0 011.087-2.137 4.113 4.113 0 012.098-1.17c1.68-.363 3.384.308 4.333 1.706.588.862.805 1.761.65 2.672-.09.519-.303 1.018-.511 1.501l-.029.068c-.356.835-.78 1.658-1.19 2.453l-.045.084c-.196.383-.065.822.311 1.014.188.1.413.12.613.06a.732.732 0 00.434-.356c.654-1.25 1.234-2.38 1.664-3.61.298-.855.396-1.594.306-2.329-.184-1.497-.981-2.831-2.24-3.754a5.787 5.787 0 00-4.313-1.046 5.69 5.69 0 00-4.006 2.715c-.838 1.414-.99 3.092-.413 4.601.31.811.703 1.598 1.083 2.357.131.264.27.535.397.803.474.974.908 1.94.969 3.035.012.216.127.26.29.256.74-.004 1.427-.116 2.154-.232l.123-.02c.331-.068.621-.14.903-.207.389-.096.757-.184 1.19-.256.217-.036.38-.008.49.092a.447.447 0 01.136.347c-.013.124-.09.2-.221.216a9.961 9.961 0 00-.577.196c-.768.271-2.056.727-2.771.926-.421.136-1.01.392-1.402.831-.377.42-.487.919-.323 1.446.24.763.907 1.226 1.782 1.234h.02c.793 0 2.257-.463 2.74-.615l.126-.04.008-.004c.544-.164.646-.332.667-.723a.612.612 0 00-.164-.483c-.139-.144-.368-.224-.658-.224-.45-.004-.895.148-1.329.292-.417.14-.85.283-1.267.283-.213 0-.347-.032-.409-.092-.037-.035-.053-.083-.049-.155 0-.144.078-.184.331-.3.029-.012.058-.024.086-.04a33.48 33.48 0 011.44-.447 31.67 31.67 0 001.85-.587c1.285-.444 1.677-.851 1.669-1.746.004-.966-.79-1.737-1.79-1.745z"/><path d="M12.497 7.996c-.045 0-.09.004-.135.004-.017 0-.029.004-.045.004a3.718 3.718 0 00-2.449 1.11 3.574 3.574 0 00-1.022 2.393.789.789 0 00.172.547.682.682 0 00.519.236h.025c.408 0 .678-.276.703-.715.037-.64.257-1.147.682-1.55.434-.411.953-.623 1.578-.64a.733.733 0 00.528-.223.677.677 0 00.184-.503c-.017-.375-.327-.655-.74-.663zm-8.053 4.557a.702.702 0 00.204-.52c-.004-.438-.331-.734-.818-.734H.846c-.503 0-.842.296-.846.731 0 .204.07.383.204.52.152.147.368.227.63.227h1.414c.528 0 1.06 0 1.59-.004a.825.825 0 00.606-.22zM23.178 11.3h-3c-.487 0-.818.29-.83.722a.698.698 0 00.2.52c.152.151.368.23.626.235.335.004.674 0 1.005 0h2.003c.487-.004.814-.3.818-.74-.008-.434-.343-.738-.822-.738zM5.703 17.142a22.6 22.6 0 00-.446.436c-.086.088-.176.171-.262.26l-.38.37-.004.005c-.229.223-.47.455-.703.687a.7.7 0 00-.16.83.714.714 0 00.659.436h.049c.2 0 .376-.076.54-.24l.719-.703.028-.028 1.03-1.006a.796.796 0 00.258-.575.721.721 0 00-.233-.516c-.31-.291-.76-.275-1.095.044zm13.06.456c-.159-.156-.318-.312-.482-.468a.79.79 0 00-.58-.235h-.021a.721.721 0 00-.654.467.68.68 0 00.164.787c.576.567 1.201 1.178 1.835 1.793a.794.794 0 00.548.228.753.753 0 00.748-.731.766.766 0 00-.229-.543c-.446-.44-.895-.879-1.329-1.298zM11.462 3.83a.77.77 0 00.54.204h.012c.43-.008.728-.316.732-.747V.772c0-.436-.319-.767-.74-.771a.747.747 0 00-.756.759c-.004.87-.004 1.725 0 2.536a.71.71 0 00.212.535zm6.676 2.952c.2 0 .384-.076.527-.212.544-.523 1.088-1.058 1.615-1.577l.176-.172c.16-.16.229-.348.22-.615v-.012a.718.718 0 00-.429-.563c-.302-.14-.6-.096-.825.115-.659.631-1.26 1.219-1.836 1.798-.29.291-.278.73.025 1.03a.773.773 0 00.527.208zM5.339 6.574a.732.732 0 00.515.208.76.76 0 00.323-.072c.302-.14.425-.391.433-.58v-.007a.821.821 0 00-.27-.663l-.609-.595c-.36-.352-.727-.715-1.095-1.07-.32-.312-.773-.324-1.084-.037a.74.74 0 00-.24.52c-.005.2.085.395.244.555.601.595 1.21 1.186 1.783 1.741z"/></symbol><symbol viewBox="0 0 37 37" id="light-mobile" xmlns="http://www.w3.org/2000/svg"><path d="M21.818 26.785c-.933-.006-1.865.21-2.773.418-.87.204-1.77.407-2.647.413-.201 0-.246-.03-.29-.203-.22-.88-.567-1.804-1.084-2.906a50.378 50.378 0 00-.913-1.841c-.467-.912-.946-1.86-1.343-2.82-.586-1.423-.762-2.55-.573-3.652A6.289 6.289 0 0113.87 12.9a6.341 6.341 0 013.233-1.804c2.59-.56 5.218.474 6.68 2.629.908 1.33 1.242 2.715 1.002 4.12-.138.8-.466 1.57-.787 2.314l-.044.105c-.549 1.287-1.204 2.555-1.834 3.78l-.07.13c-.302.591-.1 1.268.48 1.564.29.154.636.185.945.092.29-.092.529-.283.668-.548 1.008-1.927 1.903-3.67 2.565-5.566.46-1.318.61-2.457.472-3.59-.283-2.309-1.512-4.365-3.453-5.788-1.91-1.397-4.336-1.989-6.65-1.613-2.602.425-4.852 1.946-6.175 4.187-1.292 2.18-1.525 4.766-.637 7.094.48 1.25 1.084 2.462 1.67 3.632.202.407.416.825.612 1.238.73 1.502 1.399 2.992 1.493 4.68.02.332.196.4.448.394 1.14-.006 2.2-.179 3.32-.357l.19-.031c.51-.105.958-.216 1.393-.32a23.159 23.159 0 011.834-.394c.334-.056.586-.013.756.141.176.16.22.407.208.536-.019.19-.139.308-.34.332-.038.006-.145.044-.889.302-1.185.419-3.17 1.12-4.273 1.429-.649.209-1.556.603-2.161 1.28-.58.647-.75 1.417-.498 2.23.371 1.175 1.399 1.89 2.747 1.902h.032c1.223 0 3.479-.714 4.222-.948l.196-.062.012-.006c.838-.252.996-.511 1.027-1.114.02-.308-.069-.555-.252-.745-.214-.222-.567-.345-1.014-.345-.693-.007-1.38.227-2.048.45-.643.215-1.311.436-1.954.436-.328 0-.536-.049-.63-.141-.057-.056-.082-.13-.076-.24 0-.222.12-.284.51-.462.045-.019.089-.037.133-.062.636-.222 1.405-.45 2.218-.69 1.002-.295 2.036-.603 2.855-.905 1.979-.683 2.584-1.311 2.571-2.69.007-1.49-1.216-2.679-2.76-2.691z"/><path d="M19.266 12.327c-.07 0-.139.006-.208.006-.026 0-.044.006-.07.006a5.731 5.731 0 00-3.775 1.712 5.51 5.51 0 00-1.575 3.689c-.013.332.082.628.265.843.195.228.472.357.8.363h.038c.63 0 1.046-.425 1.084-1.102.057-.985.397-1.767 1.052-2.389.668-.634 1.469-.96 2.433-.985a1.13 1.13 0 00.813-.345c.195-.203.296-.48.283-.776-.025-.579-.504-1.01-1.14-1.022zM6.85 19.353c.208-.21.322-.487.316-.8-.007-.678-.51-1.134-1.26-1.134H1.304c-.776 0-1.299.456-1.305 1.127 0 .314.107.591.315.8.233.229.567.352.97.352h2.181c.813 0 1.632 0 2.452-.006.384.006.706-.117.932-.34zm28.883-1.933h-4.625c-.75 0-1.261.449-1.28 1.114-.006.314.101.591.309.8.233.234.567.358.964.364.517.006 1.04 0 1.55 0h3.089c.75-.006 1.254-.462 1.26-1.14-.013-.67-.53-1.139-1.267-1.139zM8.792 26.428c-.234.221-.467.45-.687.67-.133.136-.271.266-.404.401l-.586.573-.006.006c-.353.345-.725.702-1.084 1.059-.366.357-.454.813-.246 1.28.183.413.542.653 1.015.672h.075c.31 0 .58-.117.832-.37l1.11-1.083.044-.043 1.588-1.552c.258-.253.403-.573.397-.887 0-.295-.133-.572-.36-.794-.479-.45-1.172-.425-1.688.068zm20.135.702c-.246-.24-.492-.48-.744-.72a1.218 1.218 0 00-.895-.364h-.031c-.473.03-.832.283-1.009.72-.182.444-.094.88.253 1.213a488.3 488.3 0 002.83 2.765c.232.222.529.351.844.351.296 0 .58-.117.8-.326.227-.216.347-.5.353-.8 0-.315-.126-.61-.353-.838-.687-.678-1.38-1.355-2.048-2.001zM17.671 5.905c.215.203.504.314.832.314h.02c.66-.012 1.12-.486 1.127-1.151V1.187c0-.67-.491-1.182-1.14-1.188-.31 0-.6.11-.814.32a1.177 1.177 0 00-.352.85c-.007 1.342-.007 2.66 0 3.91-.007.326.113.622.327.825zm10.292 4.55c.308 0 .592-.117.813-.326.838-.807 1.676-1.632 2.489-2.432l.271-.265c.246-.246.353-.536.34-.948v-.019c-.031-.29-.22-.665-.661-.868-.467-.215-.927-.148-1.273.179a168.375 168.375 0 00-2.83 2.77c-.447.45-.429 1.127.038 1.59.22.202.504.32.813.32zm-19.733-.32c.215.21.498.32.795.32.17 0 .34-.037.498-.11.466-.216.655-.604.668-.893v-.013a1.269 1.269 0 00-.416-1.022l-.94-.917c-.554-.542-1.121-1.102-1.688-1.65-.492-.48-1.191-.5-1.67-.056a1.14 1.14 0 00-.372.8c-.007.308.132.61.378.856a371.39 371.39 0 002.748 2.685z"/></symbol><symbol viewBox="0 0 12 14" id="like" xmlns="http://www.w3.org/2000/svg"><path d="M2.65 12.333V7.745c0-.17 0-.17.17-.34.342-.68.855-1.19 1.367-1.869.684-1.02 1.367-2.04 1.88-3.229.17-.34.17-.68.17-1.19 0-.51.171-.51.513-.51.683.17 1.025.68 1.025 1.36 0 .51-.17.85-.17 1.36-.172.51-.343 1.02-.343 1.53v.17c0 .339.171.509.513.509.512-.17.854-.17 1.367-.17h1.537c.17 0 .17 0 .342.17.683.34.854.85.683 1.53v.17c.342.51.342 1.189 0 1.699 0 .17-.17.17 0 .34v.34c.17.51 0 1.019-.512 1.359-.171 0-.171.17-.171.34.17.85-.342 1.53-1.367 1.7-1.367.169-2.733 0-3.93-.17-.682-.17-1.366-.34-2.22-.34h-.683c.17-.17 0-.17-.171-.17zM.087 9.954V7.915c0-.34.171-.34.342-.34h1.025c.342 0 .342.17.342.34v4.078c0 .34-.171.34-.342.34H.43c-.17 0-.342-.17-.342-.34V9.954z"/></symbol><symbol viewBox="0 0 16 23" id="lock" xmlns="http://www.w3.org/2000/svg"><path d="M8.014 22.227c1.135 0 2.264.005 3.4 0 2.564-.01 4.579-2.006 4.584-4.548.005-2.402 0-4.805 0-7.207 0-1.402-.855-2.358-2.26-2.512-.155-.015-.14-.099-.14-.198V5.31c-.01-2.17-1.355-4.156-3.405-4.909C7.91-.44 5.093-.005 3.47 2.165a5.185 5.185 0 00-1.065 3.13C2.4 6.113 2.4 6.93 2.41 7.747c0 .154-.04.203-.205.213C.984 8.05.01 9.065.01 10.274 0 12.8-.006 15.326.01 17.853c.015 2.125 1.77 4.052 3.89 4.314.715.09 1.43.035 2.145.045.655.025 1.315.015 1.97.015zm-.01-12.681h5.449c.64 0 .945.302.945.94v7.129c0 1.734-1.295 3.022-3.04 3.022-2.225.005-4.45 0-6.669 0-.25 0-.5-.02-.745-.075-1.42-.332-2.335-1.476-2.34-2.937-.005-2.378 0-4.756 0-7.128 0-.654.305-.956.96-.956 1.81 0 3.625.005 5.44.005zm-.01-1.586h-3.77c-.13 0-.235.015-.23-.183.015-.842-.015-1.684.01-2.526.04-1.16.53-2.115 1.445-2.839.81-.639 1.755-.817 2.765-.802 2.11.035 3.77 1.664 3.784 3.75.005.792-.005 1.585.005 2.377.005.189-.055.233-.235.228-1.26-.01-2.515-.005-3.774-.005z"/><path d="M8.003 12.36c-.7 0-1.295.416-1.52 1.07a1.55 1.55 0 00.54 1.768c.13.094.175.188.175.347-.01.758-.005.178 0 .94 0 .53.32.883.795.888.475.005.805-.352.805-.877 0-.758.005-.183-.005-.941 0-.164.05-.263.185-.367.555-.416.76-1.13.535-1.768a1.589 1.589 0 00-1.51-1.06z"/></symbol><symbol viewBox="0 0 25 34" id="lock-mobile" xmlns="http://www.w3.org/2000/svg"><path d="M12.521 33.997c1.773 0 3.539.007 5.312 0 4.008-.016 7.156-3.069 7.164-6.956.007-3.675 0-7.35 0-11.024 0-2.144-1.336-3.606-3.531-3.841-.242-.023-.22-.152-.22-.303v-3.75a8.047 8.047 0 00-5.319-7.51C12.357-.673 7.96-.006 5.42 3.312 4.335 4.728 3.772 6.334 3.757 8.099c-.008 1.25-.008 2.5.007 3.75 0 .236-.062.312-.32.327-1.906.136-3.43 1.69-3.43 3.538a1178.73 1178.73 0 000 11.592c.024 3.25 2.766 6.198 6.078 6.6 1.117.136 2.234.053 3.351.068 1.024.038 2.055.023 3.078.023zM12.506 14.6h8.514c1 0 1.477.462 1.477 1.44v10.903c0 2.652-2.023 4.621-4.75 4.621-3.476.008-6.952 0-10.42 0-.391 0-.782-.03-1.164-.113-2.219-.508-3.648-2.258-3.656-4.493-.008-3.637 0-7.274 0-10.903 0-1 .476-1.462 1.5-1.462 2.827 0 5.663.007 8.499.007zm-.016-2.424H6.6c-.203 0-.367.022-.36-.28.024-1.289-.023-2.577.016-3.865.063-1.773.828-3.235 2.258-4.341 1.265-.978 2.742-1.25 4.32-1.228 3.296.053 5.89 2.546 5.913 5.736.008 1.212-.008 2.424.008 3.637.008.288-.086.356-.367.348-1.969-.015-3.93-.007-5.898-.007z"/><path d="M12.505 18.904c-1.093 0-2.023.637-2.375 1.637a2.343 2.343 0 00.844 2.705c.203.144.274.288.274.53-.016 1.16-.008.273 0 1.44 0 .81.5 1.348 1.242 1.356.742.008 1.257-.538 1.257-1.341 0-1.16.008-.28-.008-1.44 0-.25.079-.401.29-.56a2.35 2.35 0 00.835-2.705c-.359-.985-1.28-1.614-2.359-1.622z"/></symbol><symbol viewBox="0 0 18 24" id="pen" xmlns="http://www.w3.org/2000/svg"><path d="M.955 2.72c.313-.58.856-.901 1.416-1.223.544-.322 1.087-.66 1.63-.998.38-.258.791-.45 1.269-.499.411.097.807.177 1.218.274.33.209.593.483.807.804 3.294 5.135 6.604 10.254 9.881 15.389.1.16.182.37.198.563l.395 3.863.247 2.27c-.05.193-.082.37-.131.563-.149.097-.297.177-.445.274-.198-.048-.379-.08-.577-.129a1.362 1.362 0 00-.197-.128c-1.713-1.015-3.442-2.045-5.155-3.059a1.171 1.171 0 01-.411-.386c-.429-.644-.84-1.288-1.269-1.948A3028.83 3028.83 0 012.717 7.308c-.033-.065-.082-.113-.132-.177a2.034 2.034 0 00-1.152 1.674c-.033.644.197 1.175.658 1.626.873.837 1.746 1.658 2.619 2.495.477.45.889.933 1.169 1.513.461.95.61 1.947.412 2.994a.692.692 0 01-.577.563c-.494.08-.889-.322-.807-.853a3.57 3.57 0 00-.033-1.32c-.164-.805-.642-1.417-1.218-1.964-.857-.789-1.696-1.61-2.536-2.414-1.548-1.497-1.483-3.767.164-5.151.165-.145.346-.258.56-.403-.066-.096-.132-.177-.197-.257C1.25 5.022.774 4.443.724 3.67c.083-.322.149-.628.23-.95zm14.772 14.214c-2.651-4.105-5.303-8.242-7.954-12.363-1.186.74-2.421 1.497-3.64 2.254 2.635 4.105 5.303 8.225 7.955 12.346 1.202-.74 2.437-1.497 3.64-2.237zM7.328 3.654c-.082-.113-.197-.225-.296-.37-.33-.5-.642-.982-.955-1.481-.28-.45-.66-.531-1.12-.258L2.585 2.994c-.46.274-.543.644-.247 1.095.363.579.741 1.142 1.104 1.722.033.048.082.113.115.16 1.235-.756 2.47-1.512 3.771-2.317zm5.55 16.21c1.17.691 2.339 1.383 3.557 2.108-.131-1.385-.263-2.704-.395-4.056-1.07.66-2.108 1.287-3.162 1.947z"/></symbol><symbol viewBox="0 0 20 21" id="person" xmlns="http://www.w3.org/2000/svg"><path d="M16.809 3.903C14.92 1.977 12.449.963 9.812.998 4.573 1.099.31 5.558.31 11.03c0 5.541 4.36 9.967 9.698 9.967 5.337 0 9.697-4.46 9.697-10 .033-2.703-1.009-5.203-2.896-7.095zM7.242 9.106c0-.777.293-1.554.813-2.095.52-.54 1.237-.878 1.985-.878 1.53 0 2.766 1.351 2.766 2.939 0 .777-.293 1.52-.813 2.06a2.754 2.754 0 01-1.985.845c-1.53 0-2.766-1.283-2.766-2.871zm-.749 5.777c.944-.642 2.115-.98 3.515-1.014 1.399.034 2.57.338 3.514.98.846.574 1.334 1.284 1.562 2.162v.034c.065.169.033.236-.13.372-1.79 1.452-3.742 2.027-5.955 1.756-1.497-.202-2.896-.844-4.133-1.892.195-.98.716-1.756 1.627-2.398zm8.103-5.406c.098-1.351-.358-2.702-1.27-3.682-1.756-1.892-4.62-1.96-6.507-.135-.944.912-1.465 2.33-1.4 3.716a4.84 4.84 0 001.432 3.21c-1.627.675-2.733 1.689-3.352 3.074-1.757-2.568-2.05-6.825.554-9.933 1.431-1.756 3.449-2.77 5.662-2.837 2.18-.102 4.263.743 5.857 2.364 3.027 3.109 2.864 7.602.977 10.406-.619-1.385-1.758-2.399-3.385-3.075.846-.844 1.367-1.925 1.432-3.108z"/></symbol><symbol viewBox="0 0 174 174" id="play" xmlns="http://www.w3.org/2000/svg"><path d="M.5 161.584V12.416c0-8.92 9.388-14.722 17.367-10.733l149.167 74.584c8.844 4.422 8.844 17.044 0 21.466L17.867 172.317C9.887 176.306.5 170.504.5 161.584z" fill-opacity=".7"/></symbol><symbol viewBox="0 0 18 18" id="search" xmlns="http://www.w3.org/2000/svg"><path fill-rule="evenodd" clip-rule="evenodd" d="M2 8c0-3.309 2.691-6 6-6s6 2.691 6 6-2.691 6-6 6-6-2.691-6-6zm15.707 8.293l-3.395-3.396A7.952 7.952 0 0016 8c0-4.411-3.589-8-8-8S0 3.589 0 8s3.589 8 8 8a7.952 7.952 0 004.897-1.688l3.396 3.395a.997.997 0 001.414 0 .999.999 0 000-1.414z"/></symbol><symbol viewBox="0 0 25 26" id="shield" xmlns="http://www.w3.org/2000/svg"><path d="M12.13 0L0 5.268s.17 6.627 2.733 11.386C5.98 22.94 12.13 25.83 12.13 25.83s5.467-2.549 8.713-8.327c3.245-5.777 3.416-12.405 3.416-12.405L12.13 0z"/></symbol><symbol viewBox="0 0 24 24" id="twitter" xmlns="http://www.w3.org/2000/svg"><path fill-rule="evenodd" clip-rule="evenodd" d="M12 0C5.373 0 0 5.373 0 12s5.373 12 12 12 12-5.373 12-12S18.627 0 12 0zm-.334 10.169l-.025-.415c-.076-1.076.587-2.06 1.636-2.44.387-.136 1.041-.153 1.47-.035.167.051.486.22.713.373l.411.28.453-.144c.252-.076.588-.204.739-.288.143-.077.269-.119.269-.094 0 .145-.311.636-.571.907-.353.382-.252.415.461.161.428-.144.437-.144.353.017-.05.085-.31.382-.588.653-.47.466-.495.517-.495.906 0 .602-.285 1.856-.57 2.543-.53 1.288-1.663 2.618-2.796 3.287-1.595.941-3.718 1.178-5.506.628-.596-.187-1.62-.661-1.62-.746 0-.026.31-.06.688-.068a4.726 4.726 0 002.25-.627l.453-.271-.52-.178c-.739-.254-1.402-.839-1.57-1.39-.05-.178-.034-.186.437-.186l.486-.009-.411-.195c-.487-.245-.932-.66-1.15-1.084-.16-.305-.36-1.076-.302-1.136.017-.025.193.026.394.093.58.212.655.161.32-.194-.63-.645-.823-1.602-.521-2.509l.143-.407.554.551c1.133 1.11 2.467 1.771 3.995 1.966l.42.051z"/></symbol><symbol viewBox="0 0 24 24" id="vk" xmlns="http://www.w3.org/2000/svg"><path fill-rule="evenodd" clip-rule="evenodd" d="M12 24c6.627 0 12-5.373 12-12S18.627 0 12 0 0 5.373 0 12s5.373 12 12 12zm5.767-15.487c.427 0 .524.214.427.507-.15.673-1.4 2.458-1.786 3.011a3.233 3.233 0 00-.114.166c-.151.24-.206.347 0 .614.075.098.233.249.414.42.186.178.396.378.564.567.605.667 1.074 1.228 1.197 1.615.11.387-.082.587-.495.587h-1.418c-.376 0-.57-.21-.983-.655a17.058 17.058 0 00-.683-.706c-.84-.788-1.212-.894-1.418-.894-.29 0-.372.066-.372.467v1.24c0 .335-.11.535-1.019.535-1.5 0-3.167-.881-4.337-2.523C5.982 11.062 5.5 9.247 5.5 8.887c0-.2.069-.387.482-.387h1.432c.358 0 .495.147.633.534.702 1.962 1.873 3.683 2.354 3.683.18 0 .262-.08.262-.52v-2.029c-.034-.576-.241-.828-.395-1.014-.095-.115-.17-.206-.17-.334 0-.16.138-.32.358-.32h2.23c.304 0 .414.16.414.507v2.736c0 .293.124.4.22.4.18 0 .33-.107.661-.427C15 10.61 15.73 8.9 15.73 8.9a.628.628 0 01.62-.387h1.417z"/></symbol><symbol viewBox="0 0 24 24" id="youtube" xmlns="http://www.w3.org/2000/svg"><path fill-rule="evenodd" clip-rule="evenodd" d="M12 0C5.373 0 0 5.373 0 12s5.373 12 12 12 12-5.373 12-12S18.627 0 12 0zm5 7.875c.552.15.985.596 1.133 1.162.267 1.024.267 3.163.267 3.163s0 2.138-.267 3.163A1.625 1.625 0 0117 16.525c-.997.275-5 .275-5 .275s-4.003 0-5-.275a1.625 1.625 0 01-1.133-1.162C5.6 14.338 5.6 12.2 5.6 12.2s0-2.139.267-3.163A1.623 1.623 0 017 7.875c.997-.275 5-.275 5-.275s4.003 0 5 .275z"/><path d="M10.8 14.4v-4l3.2 2-3.2 2z"/></symbol></svg>