<svg width="37" height="37" fill="none" xmlns="http://www.w3.org/2000/svg"><path d="M21.818 26.785c-.933-.006-1.865.21-2.773.418-.87.204-1.77.407-2.647.413-.201 0-.246-.03-.29-.203-.22-.88-.567-1.804-1.084-2.906a50.378 50.378 0 00-.913-1.841c-.467-.912-.946-1.86-1.343-2.82-.586-1.423-.762-2.55-.573-3.652A6.289 6.289 0 0113.87 12.9a6.341 6.341 0 013.233-1.804c2.59-.56 5.218.474 6.68 2.629.908 1.33 1.242 2.715 1.002 4.12-.138.8-.466 1.57-.787 2.314l-.044.105c-.549 1.287-1.204 2.555-1.834 3.78l-.07.13c-.302.591-.1 1.268.48 1.564.29.154.636.185.945.092.29-.092.529-.283.668-.548 1.008-1.927 1.903-3.67 2.565-5.566.46-1.318.61-2.457.472-3.59-.283-2.309-1.512-4.365-3.453-5.788-1.91-1.397-4.336-1.989-6.65-1.613-2.602.425-4.852 1.946-6.175 4.187-1.292 2.18-1.525 4.766-.637 7.094.48 1.25 1.084 2.462 1.67 3.632.202.407.416.825.612 1.238.73 1.502 1.399 2.992 1.493 4.68.02.332.196.4.448.394 1.14-.006 2.2-.179 3.32-.357l.19-.031c.51-.105.958-.216 1.393-.32a23.159 23.159 0 011.834-.394c.334-.056.586-.013.756.141.176.16.22.407.208.536-.019.19-.139.308-.34.332-.038.006-.145.044-.889.302-1.185.419-3.17 1.12-4.273 1.429-.649.209-1.556.603-2.161 1.28-.58.647-.75 1.417-.498 2.23.371 1.175 1.399 1.89 2.747 1.902h.032c1.223 0 3.479-.714 4.222-.948l.196-.062.012-.006c.838-.252.996-.511 1.027-1.114.02-.308-.069-.555-.252-.745-.214-.222-.567-.345-1.014-.345-.693-.007-1.38.227-2.048.45-.643.215-1.311.436-1.954.436-.328 0-.536-.049-.63-.141-.057-.056-.082-.13-.076-.24 0-.222.12-.284.51-.462.045-.019.089-.037.133-.062.636-.222 1.405-.45 2.218-.69 1.002-.295 2.036-.603 2.855-.905 1.979-.683 2.584-1.311 2.571-2.69.007-1.49-1.216-2.679-2.76-2.691z" fill="#4F4F4F"/><path d="M19.266 12.327c-.07 0-.139.006-.208.006-.026 0-.044.006-.07.006a5.731 5.731 0 00-3.775 1.712 5.51 5.51 0 00-1.575 3.689c-.013.332.082.628.265.843.195.228.472.357.8.363h.038c.63 0 1.046-.425 1.084-1.102.057-.985.397-1.767 1.052-2.389.668-.634 1.469-.96 2.433-.985a1.13 1.13 0 00.813-.345c.195-.203.296-.48.283-.776-.025-.579-.504-1.01-1.14-1.022zM6.85 19.353c.208-.21.322-.487.316-.8-.007-.678-.51-1.134-1.26-1.134H1.304c-.776 0-1.299.456-1.305 1.127 0 .314.107.591.315.8.233.229.567.352.97.352h2.181c.813 0 1.632 0 2.452-.006.384.006.706-.117.932-.34zm28.883-1.933h-4.625c-.75 0-1.261.449-1.28 1.114-.006.314.101.591.309.8.233.234.567.358.964.364.517.006 1.04 0 1.55 0h3.089c.75-.006 1.254-.462 1.26-1.14-.013-.67-.53-1.139-1.267-1.139zM8.792 26.428c-.234.221-.467.45-.687.67-.133.136-.271.266-.404.401l-.586.573-.006.006c-.353.345-.725.702-1.084 1.059-.366.357-.454.813-.246 1.28.183.413.542.653 1.015.672h.075c.31 0 .58-.117.832-.37l1.11-1.083.044-.043 1.588-1.552c.258-.253.403-.573.397-.887 0-.295-.133-.572-.36-.794-.479-.45-1.172-.425-1.688.068zm20.135.702c-.246-.24-.492-.48-.744-.72a1.218 1.218 0 00-.895-.364h-.031c-.473.03-.832.283-1.009.72-.182.444-.094.88.253 1.213a488.3 488.3 0 002.83 2.765c.232.222.529.351.844.351.296 0 .58-.117.8-.326.227-.216.347-.5.353-.8 0-.315-.126-.61-.353-.838-.687-.678-1.38-1.355-2.048-2.001zM17.671 5.905c.215.203.504.314.832.314h.02c.66-.012 1.12-.486 1.127-1.151V1.187c0-.67-.491-1.182-1.14-1.188-.31 0-.6.11-.814.32a1.177 1.177 0 00-.352.85c-.007 1.342-.007 2.66 0 3.91-.007.326.113.622.327.825zm10.292 4.55c.308 0 .592-.117.813-.326.838-.807 1.676-1.632 2.489-2.432l.271-.265c.246-.246.353-.536.34-.948v-.019c-.031-.29-.22-.665-.661-.868-.467-.215-.927-.148-1.273.179a168.375 168.375 0 00-2.83 2.77c-.447.45-.429 1.127.038 1.59.22.202.504.32.813.32zm-19.733-.32c.215.21.498.32.795.32.17 0 .34-.037.498-.11.466-.216.655-.604.668-.893v-.013a1.269 1.269 0 00-.416-1.022l-.94-.917c-.554-.542-1.121-1.102-1.688-1.65-.492-.48-1.191-.5-1.67-.056a1.14 1.14 0 00-.372.8c-.007.308.132.61.378.856a371.39 371.39 0 002.748 2.685z" fill="#4F4F4F"/></svg>