<svg width="25" height="34" fill="none" xmlns="http://www.w3.org/2000/svg"><path d="M12.521 33.997c1.773 0 3.539.007 5.312 0 4.008-.016 7.156-3.069 7.164-6.956.007-3.675 0-7.35 0-11.024 0-2.144-1.336-3.606-3.531-3.841-.242-.023-.22-.152-.22-.303v-3.75a8.047 8.047 0 00-5.319-7.51C12.357-.673 7.96-.006 5.42 3.312 4.335 4.728 3.772 6.334 3.757 8.099c-.008 1.25-.008 2.5.007 3.75 0 .236-.062.312-.32.327-1.906.136-3.43 1.69-3.43 3.538a1178.73 1178.73 0 000 11.592c.024 3.25 2.766 6.198 6.078 6.6 1.117.136 2.234.053 3.351.068 1.024.038 2.055.023 3.078.023zM12.506 14.6h8.514c1 0 1.477.462 1.477 1.44v10.903c0 2.652-2.023 4.621-4.75 4.621-3.476.008-6.952 0-10.42 0-.391 0-.782-.03-1.164-.113-2.219-.508-3.648-2.258-3.656-4.493-.008-3.637 0-7.274 0-10.903 0-1 .476-1.462 1.5-1.462 2.827 0 5.663.007 8.499.007zm-.016-2.424H6.6c-.203 0-.367.022-.36-.28.024-1.289-.023-2.577.016-3.865.063-1.773.828-3.235 2.258-4.341 1.265-.978 2.742-1.25 4.32-1.228 3.296.053 5.89 2.546 5.913 5.736.008 1.212-.008 2.424.008 3.637.008.288-.086.356-.367.348-1.969-.015-3.93-.007-5.898-.007z" fill="#4F4F4F"/><path d="M12.505 18.904c-1.093 0-2.023.637-2.375 1.637a2.343 2.343 0 00.844 2.705c.203.144.274.288.274.53-.016 1.16-.008.273 0 1.44 0 .81.5 1.348 1.242 1.356.742.008 1.257-.538 1.257-1.341 0-1.16.008-.28-.008-1.44 0-.25.079-.401.29-.56a2.35 2.35 0 00.835-2.705c-.359-.985-1.28-1.614-2.359-1.622z" fill="#4F4F4F"/></svg>