<svg width="74" height="38" fill="none" xmlns="http://www.w3.org/2000/svg"><rect width="74" height="38" rx="19" fill="url(#paint0_linear)"/><path fill-rule="evenodd" clip-rule="evenodd" d="M51.138 25a.996.996 0 00.719-.305l3.863-4a1 1 0 00-.013-1.402l-4-4a.999.999 0 10-1.414 1.414l3.305 3.305-3.179 3.293A1 1 0 0051.138 25z" fill="#fff"/><path stroke="#fff" stroke-width="1.5" stroke-linecap="round" stroke-linejoin="round" stroke-dasharray="0.1 4" d="M29.75 20.25h14.5"/><path fill-rule="evenodd" clip-rule="evenodd" d="M22.363 25a.996.996 0 01-.72-.305l-3.863-4a1 1 0 01.014-1.402l4-4a.999.999 0 111.413 1.414l-3.305 3.305 3.18 3.293a1 1 0 01-.72 1.695z" fill="#fff"/><defs><linearGradient id="paint0_linear" x1="0" y1="19" x2="74" y2="19" gradientUnits="userSpaceOnUse"><stop stop-color="#0085FF"/><stop offset="1" stop-color="#B900D8"/></linearGradient></defs></svg>