<svg width="1678" height="1028" fill="none" xmlns="http://www.w3.org/2000/svg"><g opacity=".7"><path d="M389.751 69.003l327.642 78.664c38.875 9.384 69.754 38.588 81.015 76.825l93.914 320.284c11.226 37.992 1.011 79.299-26.885 107.943l-233.729 241.62c-27.649 28.609-68.989 40.747-107.865 31.363l-327.677-78.908c-38.875-9.384-69.754-38.589-81.015-76.825L21.237 449.685c-11.226-37.992-1.011-79.3 26.885-107.944l233.729-241.62c27.649-28.608 68.777-40.466 107.9-31.118z" fill="#E3F9FF"/><path d="M389.751 69.003l327.642 78.664c38.875 9.384 69.754 38.588 81.015 76.825l93.914 320.284c11.226 37.992 1.011 79.299-26.885 107.943l-233.729 241.62c-27.649 28.609-68.989 40.747-107.865 31.363l-327.677-78.908c-38.875-9.384-69.754-38.589-81.015-76.825L21.237 449.685c-11.226-37.992-1.011-79.3 26.885-107.944l233.729-241.62c27.649-28.608 68.777-40.466 107.9-31.118z" fill="url(#paint0_linear)"/></g><g opacity=".7"><path d="M1412.11 921.247l-164.76-150.976c-19.53-17.942-28.05-44.537-22.29-69.89l48.53-212.234c5.71-25.203 24.92-45.328 50.31-52.529l213.29-61.257c25.24-7.261 53.13-.732 72.66 17.21l164.71 151.127c19.53 17.942 28.05 44.536 22.29 69.889l-48.53 212.234c-5.71 25.203-24.92 45.328-50.31 52.53l-213.3 61.256c-25.24 7.261-52.91.643-72.6-17.36z" fill="#CDF4FF"/><path d="M1412.11 921.247l-164.76-150.976c-19.53-17.942-28.05-44.537-22.29-69.89l48.53-212.234c5.71-25.203 24.92-45.328 50.31-52.529l213.29-61.257c25.24-7.261 53.13-.732 72.66 17.21l164.71 151.127c19.53 17.942 28.05 44.536 22.29 69.889l-48.53 212.234c-5.71 25.203-24.92 45.328-50.31 52.53l-213.3 61.256c-25.24 7.261-52.91.643-72.6-17.36z" fill="url(#paint1_linear)"/></g><defs><linearGradient id="paint0_linear" x1="35.5" y1="557.559" x2="878.084" y2="437.073" gradientUnits="userSpaceOnUse"><stop stop-color="#ADE0FD"/><stop offset="1" stop-color="#fff" stop-opacity="0"/></linearGradient><linearGradient id="paint1_linear" x1="1774.74" y1="758.976" x2="1247.21" y2="553.888" gradientUnits="userSpaceOnUse"><stop stop-color="#DEF3FF"/><stop offset="1" stop-color="#fff" stop-opacity="0"/></linearGradient></defs></svg>