<svg width="42" height="42" fill="none" xmlns="http://www.w3.org/2000/svg"><g opacity=".7"><path d="M17.773 2.936l13.96 3.253c1.656.388 2.969 1.606 3.444 3.205l3.967 13.388c.474 1.588.034 3.317-1.159 4.519l-9.992 10.135a4.924 4.924 0 01-4.603 1.325L9.43 35.498c-1.657-.388-2.97-1.606-3.445-3.205L2.018 18.905c-.474-1.588-.034-3.317 1.159-4.519L13.17 4.251c1.182-1.2 2.937-1.701 4.603-1.315z" fill="#FF0F0F"/><path d="M17.773 2.936l13.96 3.253c1.656.388 2.969 1.606 3.444 3.205l3.967 13.388c.474 1.588.034 3.317-1.159 4.519l-9.992 10.135a4.924 4.924 0 01-4.603 1.325L9.43 35.498c-1.657-.388-2.97-1.606-3.445-3.205L2.018 18.905c-.474-1.588-.034-3.317 1.159-4.519L13.17 4.251c1.182-1.2 2.937-1.701 4.603-1.315z" fill="url(#paint0_linear)"/></g><path d="M17.378 11.783h6.48l-1.08 10.368h-4.32l-1.08-10.368zm3.24 17.04c-.928 0-1.688-.28-2.28-.84-.592-.56-.888-1.24-.888-2.04 0-.816.296-1.488.888-2.016.592-.544 1.352-.816 2.28-.816.928 0 1.688.272 2.28.816.592.528.888 1.2.888 2.016 0 .8-.296 1.48-.888 2.04-.592.56-1.352.84-2.28.84z" fill="#fff"/><defs><linearGradient id="paint0_linear" x1="0" y1="7.55" x2="41.298" y2="33.317" gradientUnits="userSpaceOnUse"><stop stop-color="#FFF500"/><stop offset="1" stop-color="#fff" stop-opacity="0"/></linearGradient></defs></svg>