<svg width="20" height="21" viewBox="0 0 20 21" fill="none" xmlns="http://www.w3.org/2000/svg">
<path d="M0.312043 10.9208C0.211035 5.8255 4.52072 1.21544 9.50379 1.00747C14.9919 0.764838 19.6719 5.23624 19.7056 10.9901C19.773 16.1894 15.4969 20.7648 10.4802 20.9728C4.92475 21.2154 0.244704 16.6401 0.312043 10.9208ZM10.0088 2.98321C5.73282 2.98321 2.2312 6.5534 2.2312 10.8862C2.2312 15.3922 5.69915 18.9971 10.0088 18.9971C14.2512 19.0317 17.8201 15.3922 17.8201 10.9901C17.8201 6.5534 14.3185 2.98321 10.0088 2.98321Z" fill="#414141"/>
<path d="M10.4129 10.3317C11.5577 9.81174 12.6014 9.32647 13.6788 8.8412C13.8808 8.73721 14.1839 8.63323 14.3522 8.70255C14.5879 8.8412 14.8573 9.11849 14.9246 9.36113C14.9583 9.60376 14.7899 9.98505 14.5879 10.089C13.0728 10.8863 11.5577 11.6142 10.0425 12.3421C9.57116 12.5847 9.06612 12.2381 8.99878 11.6835C8.99878 11.5795 8.99878 11.5102 8.99878 11.4062C8.99878 9.67309 8.99878 7.93999 8.99878 6.24155C8.99878 5.68695 9.26813 5.37499 9.73951 5.34033C10.2109 5.34033 10.4802 5.65229 10.4802 6.24155C10.4129 7.59336 10.4129 8.91052 10.4129 10.3317Z" fill="#414141"/>
</svg>
