<svg width="45" height="51" viewBox="0 0 45 51" fill="none" xmlns="http://www.w3.org/2000/svg">
<path d="M22.6561 0C26.4719 0 30.4193 0 34.2351 0C35.2877 0 35.5509 0.26455 35.5509 1.32275C35.5509 2.24868 35.5509 3.30688 35.5509 4.2328C35.5509 4.76191 35.6824 4.89418 36.2088 4.89418C38.7088 4.89418 41.2088 4.89418 43.5772 4.89418C44.6298 4.89418 45.0245 5.15873 44.893 6.21693C44.7614 7.80423 44.4982 9.39153 44.2351 11.1111C43.7088 13.7566 42.7877 16.2698 41.4719 18.6508C40.0245 21.2963 38.0509 23.545 35.2877 25C35.0245 25.1323 34.7614 25.5291 34.6298 25.9259C33.314 29.7619 30.9456 32.8042 27.2614 34.5238C26.2088 35.0529 26.0772 35.1852 26.3403 36.3757C26.9982 39.6825 28.9719 41.9312 32.1298 43.1217C32.7877 43.3862 33.5772 43.3862 34.3667 43.5185C35.1561 43.6508 35.5509 43.9153 35.5509 44.5767C35.5509 46.0317 35.5509 47.4868 35.5509 48.9418C35.5509 49.7355 35.1561 50.1323 34.4982 50.1323C26.7351 50.1323 18.8403 50.1323 11.0772 50.1323C10.2877 50.1323 9.89297 49.7355 9.89297 49.0741C9.89297 47.619 9.89297 46.164 9.89297 44.709C9.89297 44.0476 10.2877 43.6508 10.9456 43.6508C14.3667 43.6508 17.7877 40.873 18.4456 37.6984C18.5772 37.037 18.7088 36.3757 18.8403 35.7143C18.9719 35.3175 18.7088 35.0529 18.314 34.9206C14.893 33.0688 12.5245 30.4233 11.0772 26.9841C10.814 26.5873 10.814 26.0582 10.5509 25.5291C10.5509 25.3968 10.2877 25.1323 10.1561 25.1323C6.20876 23.1481 3.84034 19.8413 2.26139 15.873C1.34034 13.7566 0.814023 11.5079 0.419286 9.25926C0.287707 8.20106 0.156128 7.14286 0.024549 6.21693C-0.10703 5.29101 0.287707 4.89418 1.20876 4.89418C3.84034 4.89418 6.34034 4.89418 8.97192 4.89418C9.76139 4.89418 9.76139 4.89418 9.76139 4.10053C9.76139 3.1746 9.76139 2.24868 9.76139 1.32275C9.76139 0.26455 10.0245 0 11.0772 0C14.893 0 18.7088 0 22.6561 0ZM22.6561 1.71958C19.1035 1.71958 15.6824 1.71958 12.1298 1.71958C11.3403 1.71958 11.3403 1.71958 11.3403 2.51323C11.3403 8.46561 11.3403 14.418 11.3403 20.2381C11.3403 21.8254 11.6035 23.4127 11.9982 24.8677C12.7877 27.381 14.1035 29.4974 16.0772 31.2169C18.4456 33.2011 21.0772 34.127 24.1035 33.5979C27.1298 33.0688 29.3667 31.3492 31.0772 28.836C32.9193 26.1905 33.7088 23.2804 33.7088 20.1058C33.7088 14.1534 33.7088 8.20106 33.7088 2.38095C33.7088 1.85185 33.5772 1.71958 33.0509 1.71958C29.6298 1.71958 26.2088 1.71958 22.6561 1.71958ZM22.6561 48.1482C26.2088 48.1482 29.6298 48.1482 33.1824 48.1482C33.7088 48.1482 33.8403 48.0159 33.8403 47.4868C33.8403 46.8254 33.8403 46.164 33.8403 45.5027C33.8403 45.1058 33.7088 44.9735 33.314 44.8413C32.9193 44.8413 32.393 44.709 31.9982 44.5767C28.7088 43.6508 26.4719 41.5344 25.2877 38.3598C25.0245 37.5661 24.893 36.6402 24.6298 35.7143C24.6298 35.4497 24.4982 35.1852 24.1035 35.1852C23.0509 35.1852 21.9982 35.1852 20.814 35.1852C20.4193 35.1852 20.4193 35.3175 20.2877 35.582C20.1561 36.5079 20.0245 37.3016 19.7614 38.2275C18.4456 41.9312 15.9456 44.3122 11.9982 44.8413C11.4719 44.9735 11.3403 45.1058 11.3403 45.6349C11.3403 46.164 11.3403 46.8254 11.3403 47.3545C11.3403 48.1482 11.3403 48.1482 12.1298 48.1482C15.6824 48.1482 19.2351 48.1482 22.6561 48.1482ZM9.89297 22.8836C9.89297 22.619 9.89297 22.3545 9.89297 22.2222C9.89297 20.5026 9.76139 18.9153 9.76139 17.1958C9.76139 13.8889 9.76139 10.4497 9.76139 7.14286C9.76139 6.87831 9.76139 6.61376 9.23507 6.61376C6.86665 6.61376 4.49823 6.61376 2.26139 6.61376C1.86665 6.61376 1.73508 6.74603 1.73508 7.01058C1.73508 7.14286 1.73508 7.40741 1.73508 7.53968C2.26139 9.52381 2.65613 11.6402 3.18244 13.6243C3.97192 16.2698 5.15613 18.6508 6.99823 20.6349C7.91929 21.5608 8.70876 22.3545 9.89297 22.8836ZM35.4193 22.7513C35.5509 22.7513 35.6824 22.619 35.6824 22.619C35.814 22.4868 35.9456 22.4868 36.0772 22.3545C39.6298 19.709 41.2088 15.873 42.393 11.7725C42.7877 10.3175 42.9193 8.73016 43.1824 7.27513C43.314 6.74603 43.1824 6.61376 42.6561 6.61376C40.5509 6.61376 38.4456 6.61376 36.3403 6.61376C35.814 6.61376 35.5509 6.74603 35.5509 7.27513C35.5509 11.5079 35.5509 15.6085 35.5509 19.8413C35.5509 20.5026 35.4193 21.164 35.4193 21.9577C35.4193 22.2222 35.4193 22.4868 35.4193 22.7513Z" fill="white"/>
<path d="M16.603 22.3545C16.8661 21.164 16.9977 19.8413 17.2609 18.6508C17.3924 17.9894 17.2609 17.4603 16.7345 16.9312C15.8135 16.1376 14.8924 15.2116 14.103 14.2857C13.7082 13.8889 13.4451 13.3598 13.7082 12.8307C13.9714 12.1693 14.3661 11.9047 15.024 11.7725C16.3398 11.6402 17.6556 11.3756 18.9714 11.2434C19.2345 11.2434 19.4977 10.9788 19.4977 10.8465C20.1556 9.65607 20.6819 8.4656 21.2082 7.27512C21.4714 6.61374 21.8661 6.21692 22.6556 6.21692C23.4451 6.21692 23.7082 6.74602 24.103 7.27512C24.6293 8.4656 25.2872 9.65607 25.8135 10.8465C25.9451 11.1111 26.2082 11.2434 26.4714 11.2434C27.7872 11.5079 29.103 11.6402 30.4188 11.7725C31.0766 11.9047 31.603 12.1693 31.8661 12.8307C32.1293 13.4921 31.8661 13.8889 31.3398 14.418C30.4188 15.3439 29.4977 16.2698 28.4451 17.1958C28.1819 17.4603 28.0503 17.7249 28.1819 18.1217C28.4451 19.3122 28.5766 20.5026 28.8398 21.6931C28.8398 22.0899 28.9714 22.619 28.8398 23.0159C28.5766 23.8095 27.6556 24.0741 26.8661 23.6772C25.6819 23.1481 24.6293 22.4868 23.4451 21.8254C23.0503 21.5608 22.6556 21.5608 22.1293 21.8254C20.9451 22.4868 19.7609 23.0159 18.4451 23.6772C17.7872 24.2063 16.603 23.545 16.603 22.3545ZM15.8135 13.4921C16.0766 13.7566 16.0766 13.8889 16.2082 14.0212C16.9977 14.8148 17.9188 15.7407 18.7082 16.5344C18.9714 16.7989 19.103 17.1958 19.103 17.5926C18.8398 18.7831 18.7082 19.9735 18.4451 21.164C18.4451 21.2963 18.4451 21.5608 18.4451 21.8254C18.7082 21.6931 18.8398 21.6931 18.9714 21.6931C19.8924 21.164 20.8135 20.7672 21.7345 20.2381C22.524 19.709 23.3135 19.5767 24.2345 20.2381C25.024 20.7672 25.9451 21.164 26.7345 21.5608C26.8661 21.6931 26.9977 21.6931 27.2609 21.8254C27.2609 21.5608 27.2609 21.5608 27.2609 21.4286C26.9977 20.2381 26.8661 19.1799 26.603 17.9894C26.4714 17.328 26.4714 16.9312 26.9977 16.4021C27.7872 15.6085 28.5766 14.8148 29.3661 14.0212C29.4977 13.8889 29.6293 13.7566 29.7609 13.4921C28.4451 13.2275 27.3924 12.963 26.2082 12.963C25.2872 12.963 24.7609 12.5661 24.4977 11.6402C24.4977 11.5079 24.3661 11.2434 24.2345 11.1111C23.8398 10.1852 23.3135 9.25925 22.9188 8.33332C22.7872 8.59787 22.6556 8.73015 22.524 8.9947C21.9977 10.0529 21.4714 11.1111 21.0766 12.037C20.8135 12.5661 20.4188 12.8307 19.8924 12.8307C18.5766 13.0952 17.2609 13.3598 15.8135 13.4921Z" fill="white"/>
</svg>
