<svg width="24" height="24" viewBox="0 0 24 24" fill="none" xmlns="http://www.w3.org/2000/svg">
<path fill-rule="evenodd" clip-rule="evenodd" d="M12 24C18.6274 24 24 18.6274 24 12C24 5.37258 18.6274 0 12 0C5.37258 0 0 5.37258 0 12C0 18.6274 5.37258 24 12 24ZM15.3904 10.6796L14.9758 13.3738H12.7968V19.8871C12.3201 19.9618 11.8324 20 11.3356 20C10.8388 20 10.3511 19.9618 9.87443 19.8871V13.3738H7.5V10.6796H9.87443V8.62621C9.87443 6.29066 11.2699 5 13.4068 5C14.4297 5 15.5 5.18204 15.5 5.18204V7.47573H14.3201C13.1584 7.47573 12.7968 8.19478 12.7968 8.93204V10.6796H15.3904Z" fill="white"/>
</svg>
