<svg width="24" height="24" viewBox="0 0 24 24" fill="none" xmlns="http://www.w3.org/2000/svg">
<path d="M14.1523 17.3739C13.5473 17.3699 12.9423 17.5097 12.3536 17.6455C11.7895 17.7773 11.2049 17.9091 10.6367 17.9131C10.5059 17.9131 10.4773 17.8932 10.4486 17.7813C10.3056 17.2102 10.0807 16.6111 9.74553 15.8962C9.55749 15.4928 9.35309 15.0894 9.15279 14.7019C8.85028 14.1108 8.5396 13.4958 8.28207 12.8727C7.90189 11.9501 7.78743 11.2192 7.91007 10.5042C8.04906 9.70145 8.42514 8.96256 8.99745 8.36745C9.56975 7.77634 10.2933 7.36895 11.0945 7.1972C12.7747 6.83375 14.4793 7.50474 15.4277 8.90265C16.0164 9.76535 16.233 10.664 16.0777 11.5746C15.9877 12.0939 15.7752 12.5931 15.5667 13.0764L15.5381 13.1443C15.1824 13.979 14.7573 14.8018 14.3485 15.5966L14.3035 15.6805C14.1073 16.0639 14.2381 16.5032 14.6142 16.695C14.8022 16.7948 15.0271 16.8148 15.2274 16.7549C15.4154 16.695 15.5708 16.5711 15.6607 16.3994C16.3148 15.1493 16.8953 14.019 17.3245 12.7888C17.6229 11.9341 17.721 11.1952 17.6311 10.4603C17.4471 8.96256 16.65 7.62856 15.3909 6.70594C14.1523 5.7993 12.5784 5.41588 11.0782 5.65951C9.38988 5.9351 7.93051 6.92162 7.07205 8.37544C6.23403 9.78932 6.08278 11.4668 6.65917 12.9765C6.96985 13.7873 7.36229 14.5741 7.74246 15.333C7.87328 15.5966 8.01226 15.8682 8.13899 16.1358C8.61318 17.1103 9.0465 18.0769 9.10782 19.1712C9.12008 19.3869 9.23454 19.4309 9.39806 19.4269C10.138 19.4229 10.8247 19.311 11.5524 19.1952L11.675 19.1752C12.0061 19.1073 12.2964 19.0354 12.5784 18.9675C12.9668 18.8717 13.3347 18.7838 13.768 18.7119C13.9847 18.676 14.1482 18.7039 14.2586 18.8038C14.373 18.9076 14.4016 19.0674 14.3935 19.1513C14.3812 19.2751 14.3035 19.351 14.1727 19.3669C14.1482 19.3709 14.0787 19.3949 13.5963 19.5627C12.8278 19.8342 11.5401 20.2896 10.8247 20.4893C10.4037 20.6251 9.81502 20.8807 9.42259 21.32C9.0465 21.7394 8.93613 22.2386 9.09964 22.7659C9.34083 23.5287 10.0072 23.992 10.882 24C10.8901 24 10.8942 24 10.9024 24C11.6955 24 13.1589 23.5367 13.6413 23.3849C13.7026 23.365 13.7558 23.349 13.768 23.345L13.7762 23.341C14.3199 23.1772 14.4221 23.0095 14.4425 22.6181C14.4548 22.4184 14.3975 22.2586 14.279 22.1348C14.14 21.991 13.9111 21.9111 13.6208 21.9111C13.1712 21.9071 12.7256 22.0589 12.2923 22.2027C11.8753 22.3425 11.442 22.4863 11.025 22.4863C10.8125 22.4863 10.6776 22.4543 10.6163 22.3944C10.5795 22.3585 10.5631 22.3105 10.5672 22.2386C10.5672 22.0949 10.6449 22.0549 10.8983 21.9391C10.9269 21.9271 10.9555 21.9151 10.9842 21.8992C11.397 21.7554 11.8958 21.6076 12.4231 21.4518C13.0731 21.2601 13.7435 21.0604 14.2749 20.8647C15.5585 20.4214 15.9509 20.014 15.9428 19.1193C15.9469 18.1528 15.1538 17.3819 14.1523 17.3739Z" fill="white"/>
<path d="M12.4967 7.99601C12.4517 7.99601 12.4067 8 12.3618 8C12.3454 8 12.3332 8.00399 12.3168 8.00399C11.3807 8.05991 10.51 8.45532 9.86817 9.11433C9.23454 9.76136 8.87481 10.6121 8.84619 11.5067C8.83802 11.7224 8.89934 11.9141 9.01789 12.0539C9.14461 12.2017 9.32448 12.2856 9.53705 12.2896C9.54522 12.2896 9.5534 12.2896 9.56157 12.2896C9.97036 12.2896 10.2402 12.014 10.2647 11.5746C10.3015 10.9356 10.5222 10.4284 10.9474 10.025C11.3807 9.61358 11.8998 9.4019 12.5253 9.38592C12.7338 9.38193 12.9218 9.30205 13.0526 9.16226C13.1794 9.03045 13.2448 8.85072 13.2366 8.65901C13.2202 8.28358 12.9096 8.00399 12.4967 7.99601Z" fill="white"/>
<path d="M4.44354 12.5532C4.57844 12.4174 4.65202 12.2376 4.64793 12.0339C4.64384 11.5946 4.31681 11.2991 3.83035 11.2991C3.48697 11.2991 3.14359 11.2991 2.80429 11.2991H1.83546C1.50434 11.2991 1.17731 11.2991 0.846193 11.2991C0.343383 11.2991 0.00408789 11.5946 0 12.03C0 12.2337 0.0694941 12.4134 0.204394 12.5492C0.355646 12.697 0.572305 12.7768 0.83393 12.7768C1.29995 12.7768 1.77006 12.7768 2.24834 12.7768C2.77568 12.7768 3.3071 12.7768 3.83853 12.7728C4.08789 12.7768 4.29637 12.697 4.44354 12.5532Z" fill="white"/>
<path d="M23.1783 11.2991C22.2218 11.2991 21.2121 11.2991 20.1778 11.2991C19.6914 11.2991 19.3602 11.5906 19.348 12.022C19.3439 12.2257 19.4134 12.4054 19.5483 12.5412C19.6995 12.693 19.9162 12.7728 20.1737 12.7768C20.5089 12.7808 20.8482 12.7768 21.1794 12.7768H21.3224C21.4165 12.7768 21.5064 12.7768 21.6004 12.7768C21.7762 12.7768 21.952 12.7768 22.1277 12.7768C22.279 12.7768 22.4303 12.7768 22.5856 12.7768C22.7818 12.7768 22.9821 12.7768 23.1824 12.7768C23.6689 12.7728 23.9959 12.4773 24 12.0379C23.9918 11.6026 23.6566 11.2991 23.1783 11.2991Z" fill="white"/>
<path d="M5.70261 17.1423C5.55135 17.2861 5.4001 17.4338 5.25703 17.5776C5.17118 17.6655 5.08125 17.7494 4.9954 17.8372C4.86868 17.9611 4.74195 18.0849 4.61523 18.2087L4.61114 18.2127C4.38222 18.4363 4.14103 18.668 3.90802 18.8997C3.67093 19.1313 3.61369 19.4269 3.74859 19.7304C3.86714 19.998 4.10015 20.1538 4.40674 20.1658C4.4231 20.1658 4.43945 20.1658 4.4558 20.1658C4.65611 20.1658 4.83189 20.0899 4.9954 19.9261C5.23659 19.6905 5.47368 19.4588 5.71487 19.2232L5.74349 19.1952C6.07869 18.8677 6.42616 18.5282 6.77363 18.1887C6.94124 18.025 7.03526 17.8173 7.03117 17.6136C7.03117 17.4219 6.94532 17.2421 6.79816 17.0984C6.48748 16.8068 6.03781 16.8228 5.70261 17.1423Z" fill="white"/>
<path d="M18.7634 17.5976C18.604 17.4418 18.4446 17.2861 18.281 17.1303C18.1175 16.9705 17.9295 16.8947 17.7006 16.8947C17.6965 16.8947 17.6924 16.8947 17.6883 16.8947H17.6801C17.3735 16.9146 17.1405 17.0784 17.0261 17.362C16.9075 17.6495 16.9647 17.9331 17.1896 18.1488C17.766 18.7159 18.3914 19.327 19.025 19.9421C19.1763 20.0859 19.3684 20.1697 19.5728 20.1697C19.7649 20.1697 19.9489 20.0939 20.092 19.9581C20.2391 19.8183 20.3168 19.6345 20.3209 19.4388C20.3209 19.2351 20.2391 19.0434 20.092 18.8957C19.6464 18.4563 19.1967 18.017 18.7634 17.5976Z" fill="white"/>
<path d="M11.4624 3.83025C11.6014 3.96206 11.7895 4.03395 12.002 4.03395H12.0143C12.4435 4.02596 12.742 3.71842 12.746 3.28707C12.746 2.98752 12.746 2.69196 12.746 2.4004C12.746 2.28457 12.746 2.16475 12.746 2.04893C12.746 1.91712 12.746 1.78532 12.746 1.64953C12.746 1.36196 12.746 1.06241 12.746 0.770844C12.746 0.335497 12.4272 0.00399401 12.0061 0C11.8058 0 11.6178 0.0718921 11.4788 0.207688C11.3316 0.351473 11.2499 0.547179 11.2499 0.758862C11.2458 1.62956 11.2458 2.48427 11.2499 3.29506C11.2458 3.50674 11.3235 3.69845 11.4624 3.83025Z" fill="white"/>
<path d="M18.138 6.78183C18.3383 6.78183 18.5222 6.70594 18.6653 6.57014C19.209 6.04693 19.7527 5.51173 20.28 4.99251L20.4558 4.82077C20.6152 4.66101 20.6847 4.47329 20.6765 4.20569V4.19371C20.6561 4.00599 20.5335 3.76236 20.2473 3.63055C19.9448 3.49076 19.6464 3.5347 19.4216 3.74638C18.7634 4.37743 18.1625 4.96455 17.5861 5.54368C17.2959 5.83525 17.3081 6.27459 17.6106 6.57414C17.7537 6.70594 17.9377 6.78183 18.138 6.78183Z" fill="white"/>
<path d="M5.33878 6.57414C5.47777 6.70994 5.66173 6.78183 5.85386 6.78183C5.96423 6.78183 6.0746 6.75786 6.1768 6.70994C6.47931 6.57014 6.60194 6.31852 6.61012 6.1308V6.12282C6.61829 5.77933 6.47931 5.59561 6.34032 5.45981C6.13592 5.26011 5.93562 5.0644 5.73122 4.8647C5.37149 4.51323 5.00358 4.14978 4.63567 3.79431C4.31681 3.48278 3.86306 3.47079 3.55238 3.75836C3.40112 3.90215 3.31528 4.08587 3.31119 4.27758C3.3071 4.47728 3.39704 4.67299 3.55646 4.83275C4.15738 5.42786 4.76648 6.01897 5.33878 6.57414Z" fill="white"/>
</svg>
