<svg width="12" height="14" viewBox="0 0 12 14" fill="none" xmlns="http://www.w3.org/2000/svg">
<path d="M2.6499 12.3334C2.6499 12.1634 2.6499 12.1634 2.6499 12.1634C2.6499 10.634 2.6499 9.27453 2.6499 7.74512C2.6499 7.57519 2.64991 7.57519 2.82074 7.40525C3.16241 6.72551 3.67491 6.21571 4.18741 5.53597C4.87074 4.51636 5.55407 3.49675 6.06657 2.30721C6.2374 1.96734 6.23741 1.62747 6.23741 1.11767C6.23741 0.607864 6.40824 0.607864 6.74991 0.607864C7.43324 0.777799 7.7749 1.2876 7.7749 1.96734C7.7749 2.47715 7.60407 2.81702 7.60407 3.32682C7.43324 3.83662 7.2624 4.34643 7.2624 4.85623V5.02617C7.2624 5.36604 7.43324 5.53597 7.7749 5.53597C8.2874 5.36603 8.62908 5.36603 9.14158 5.36603C9.65408 5.36603 10.1666 5.36603 10.6791 5.36603C10.8499 5.36603 10.8499 5.36603 11.0207 5.53597C11.7041 5.87584 11.8749 6.38564 11.7041 7.06538V7.23532C12.0457 7.74512 12.0457 8.42486 11.7041 8.93466C11.7041 9.1046 11.5332 9.1046 11.7041 9.27453C11.7041 9.27453 11.7041 9.44447 11.7041 9.6144C11.8749 10.1242 11.7041 10.634 11.1916 10.9739C11.0207 10.9739 11.0207 11.1438 11.0207 11.3137C11.1916 12.1634 10.6791 12.8432 9.65408 13.0131C8.28741 13.183 6.92074 13.0131 5.72491 12.8432C5.04157 12.6732 4.35824 12.5033 3.50407 12.5033C3.33324 12.5033 2.99157 12.5033 2.82074 12.5033C2.99157 12.3334 2.82074 12.3334 2.6499 12.3334Z" fill="white"/>
<path d="M0.0874023 9.95423C0.0874023 9.2745 0.0874023 8.59476 0.0874023 7.91502C0.0874023 7.57515 0.258237 7.57515 0.429071 7.57515C0.770738 7.57515 1.11241 7.57515 1.45408 7.57515C1.79574 7.57515 1.79574 7.74508 1.79574 7.91502C1.79574 9.2745 1.79574 10.634 1.79574 11.9934C1.79574 12.3333 1.62491 12.3333 1.45408 12.3333C1.11241 12.3333 0.770738 12.3333 0.429071 12.3333C0.258237 12.3333 0.0874023 12.1634 0.0874023 11.9934C0.0874023 11.3137 0.0874023 10.634 0.0874023 9.95423Z" fill="white"/>
</svg>
