<svg width="16" height="23" viewBox="0 0 16 23" fill="none" xmlns="http://www.w3.org/2000/svg">
<path d="M8.01362 22.2267C9.1485 22.2267 10.2784 22.2317 11.4133 22.2267C13.978 22.2168 15.9928 20.2205 15.9978 17.6793C16.0028 15.2768 15.9978 12.8743 15.9978 10.4718C15.9978 9.06996 15.1429 8.11391 13.738 7.96035C13.583 7.94549 13.598 7.86128 13.598 7.76221C13.598 6.94486 13.598 6.12752 13.598 5.31017C13.588 3.14049 12.2432 1.1541 10.1934 0.401151C7.90863 -0.440962 5.09393 -0.00504492 3.4691 2.16463C2.77417 3.09096 2.41421 4.14112 2.40421 5.29531C2.39921 6.11266 2.39921 6.93 2.40921 7.74734C2.40921 7.90091 2.36922 7.95044 2.20423 7.96035C0.984363 8.04951 0.00946596 9.065 0.00946596 10.2737C-0.000532989 12.8 -0.00553246 15.3264 0.00946596 17.8527C0.0244644 19.9778 1.77928 21.9047 3.89905 22.1673C4.61398 22.2564 5.3289 22.202 6.04383 22.2119C6.69876 22.2366 7.35869 22.2267 8.01362 22.2267ZM8.00362 9.5455C9.81843 9.5455 11.6332 9.5455 13.453 9.5455C14.093 9.5455 14.3979 9.84767 14.3979 10.4867C14.3979 12.8644 14.3979 15.2421 14.3979 17.6149C14.3979 19.3487 13.1031 20.6366 11.3583 20.6366C9.1335 20.6416 6.90874 20.6366 4.68897 20.6366C4.439 20.6366 4.18902 20.6168 3.94405 20.5623C2.5242 20.2304 1.6093 19.0861 1.6043 17.6248C1.5993 15.2471 1.6043 12.8694 1.6043 10.4966C1.6043 9.84272 1.90926 9.54055 2.5642 9.54055C4.374 9.54055 6.18881 9.5455 8.00362 9.5455ZM7.99362 7.96035C6.73875 7.96035 5.47889 7.96035 4.22402 7.96035C4.09403 7.96035 3.98904 7.97521 3.99404 7.77707C4.00904 6.93495 3.97905 6.09284 4.00404 5.25073C4.04404 4.09159 4.53399 3.13554 5.44889 2.41231C6.2588 1.7733 7.2037 1.59497 8.2136 1.60983C10.3234 1.64451 11.9832 3.27424 11.9982 5.35971C12.0032 6.15228 11.9932 6.94486 12.0032 7.73744C12.0082 7.92567 11.9482 7.97026 11.7682 7.9653C10.5084 7.9554 9.25349 7.96035 7.99362 7.96035Z" fill="#2E2E2E"/>
<path d="M8.00336 12.3595C7.30343 12.3595 6.7085 12.7756 6.48352 13.4295C6.25855 14.0784 6.46852 14.7868 7.02346 15.1979C7.15345 15.2921 7.19845 15.3862 7.19845 15.5447C7.18845 16.3026 7.19345 15.723 7.19845 16.4859C7.19845 17.0159 7.51841 17.3676 7.99336 17.3726C8.46831 17.3775 8.79827 17.0209 8.79827 16.4958C8.79827 15.7379 8.80327 16.3125 8.79327 15.5546C8.79327 15.3911 8.84327 15.2921 8.97825 15.188C9.53319 14.7719 9.73817 14.0586 9.5132 13.4196C9.28322 12.7756 8.69328 12.3645 8.00336 12.3595Z" fill="#2E2E2E"/>
</svg>
