<svg width="25" height="34" viewBox="0 0 25 34" fill="none" xmlns="http://www.w3.org/2000/svg">
<path d="M12.5213 33.9966C14.2945 33.9966 16.06 34.0042 17.8332 33.9966C21.8406 33.9815 24.9887 30.9281 24.9965 27.0412C25.0043 23.3665 24.9965 19.6918 24.9965 16.0171C24.9965 13.8728 23.6607 12.4105 21.4657 12.1757C21.2235 12.1529 21.2469 12.0241 21.2469 11.8726C21.2469 10.6224 21.2469 9.37227 21.2469 8.12211C21.2313 4.8035 19.13 1.76524 15.9272 0.613575C12.3572 -0.674468 7.95926 -0.0077164 5.42047 3.31089C4.33464 4.72774 3.77221 6.334 3.75658 8.09938C3.74877 9.34954 3.74877 10.5997 3.76439 11.8499C3.76439 12.0847 3.7019 12.1605 3.44412 12.1757C1.53807 12.312 0.0147906 13.8653 0.0147906 15.714C-0.000832795 19.5781 -0.00864447 23.4423 0.0147906 27.3064C0.0382256 30.5568 2.78012 33.5041 6.09227 33.9057C7.20934 34.0421 8.32641 33.9587 9.44348 33.9739C10.4668 34.0118 11.498 33.9966 12.5213 33.9966ZM12.5057 14.6002C15.3413 14.6002 18.1769 14.6002 21.0204 14.6002C22.0203 14.6002 22.4968 15.0624 22.4968 16.0398C22.4968 19.6766 22.4968 23.3134 22.4968 26.9427C22.4968 29.5946 20.4736 31.5645 17.7473 31.5645C14.2711 31.5721 10.7949 31.5645 7.32652 31.5645C6.93593 31.5645 6.54535 31.5342 6.16258 31.4509C3.94406 30.9432 2.51453 29.193 2.50671 26.9579C2.4989 23.321 2.50671 19.6842 2.50671 16.0549C2.50671 15.0548 2.98323 14.5926 4.00656 14.5926C6.83438 14.5926 9.67002 14.6002 12.5057 14.6002ZM12.49 12.1757C10.5293 12.1757 8.56076 12.1757 6.60003 12.1757C6.39693 12.1757 6.23288 12.1984 6.24069 11.8953C6.26413 10.6073 6.21726 9.31923 6.25632 8.03119C6.31881 6.25824 7.08435 4.79593 8.51389 3.68973C9.77938 2.71233 11.2558 2.43957 12.8337 2.4623C16.1303 2.51533 18.7238 5.00808 18.7472 8.19788C18.755 9.41016 18.7394 10.6224 18.755 11.8347C18.7628 12.1226 18.6691 12.1908 18.3878 12.1832C16.4193 12.1681 14.4586 12.1757 12.49 12.1757Z" fill="#4F4F4F"/>
<path d="M12.5052 18.9044C11.4116 18.9044 10.482 19.5408 10.1305 20.5409C9.77898 21.5335 10.1071 22.617 10.9742 23.2458C11.1773 23.3898 11.2476 23.5337 11.2476 23.7762C11.2319 24.9354 11.2398 24.049 11.2476 25.2158C11.2476 26.0265 11.7475 26.5644 12.4896 26.572C13.2317 26.5796 13.7473 26.0341 13.7473 25.2309C13.7473 24.0717 13.7551 24.9506 13.7395 23.7914C13.7395 23.5413 13.8176 23.3898 14.0285 23.2307C14.8956 22.5942 15.2159 21.5032 14.8644 20.5258C14.505 19.5408 13.5833 18.9119 12.5052 18.9044Z" fill="#4F4F4F"/>
</svg>
