<svg width="18" height="24" viewBox="0 0 18 24" fill="none" xmlns="http://www.w3.org/2000/svg">
<path d="M0.954931 2.72032C1.26783 2.14084 1.81129 1.81891 2.37122 1.49698C2.91468 1.17505 3.45813 0.837022 4.00159 0.498994C4.38037 0.241449 4.79208 0.0482897 5.26966 0C5.68137 0.0965795 6.07662 0.177062 6.48833 0.273642C6.8177 0.482897 7.08119 0.756539 7.29528 1.07847C10.589 6.21328 13.8991 11.332 17.1763 16.4668C17.2752 16.6278 17.3575 16.837 17.374 17.0302C17.5057 18.3179 17.6375 19.6056 17.7692 20.8934C17.8515 21.6499 17.9339 22.4064 18.0162 23.163C17.9668 23.3561 17.9339 23.5332 17.8845 23.7264C17.7363 23.8229 17.5881 23.9034 17.4398 24C17.2422 23.9517 17.0611 23.9195 16.8634 23.8712C16.7976 23.8229 16.7317 23.7746 16.6658 23.7425C14.9531 22.7284 13.2239 21.6982 11.5112 20.6841C11.3465 20.5875 11.1983 20.4588 11.0995 20.2978C10.6713 19.6539 10.2596 19.0101 9.83142 18.3501C7.4435 14.664 5.07204 10.9779 2.71705 7.30785C2.68412 7.24346 2.63471 7.19517 2.58531 7.13078C1.9101 7.45272 1.48192 8.11268 1.43252 8.80483C1.39958 9.44869 1.63014 9.97988 2.09125 10.4306C2.96408 11.2676 3.83691 12.0885 4.70973 12.9256C5.18732 13.3763 5.59903 13.8592 5.87899 14.4386C6.34011 15.3883 6.48833 16.3863 6.2907 17.4326C6.22483 17.7384 6.01074 17.9477 5.71431 17.996C5.22026 18.0765 4.82501 17.674 4.90736 17.1429C4.97323 16.7082 4.97323 16.2736 4.87442 15.8229C4.70973 15.0181 4.23215 14.4064 3.65576 13.8592C2.7994 13.0704 1.95951 12.2495 1.11962 11.4447C-0.428417 9.94769 -0.362544 7.67807 1.2843 6.29376C1.44898 6.14889 1.63014 6.03622 1.84423 5.89135C1.77835 5.79477 1.71248 5.71429 1.64661 5.6338C1.25136 5.02213 0.773778 4.44266 0.724373 3.67002C0.806715 3.34809 0.872589 3.04225 0.954931 2.72032ZM15.7271 16.9336C13.0757 12.829 10.4243 8.69215 7.77286 4.57143C6.58714 5.31187 5.352 6.06841 4.13334 6.82495C6.76829 10.9296 9.43618 15.0503 12.0876 19.171C13.2898 18.4306 14.5249 17.674 15.7271 16.9336ZM7.32822 3.65392C7.24587 3.54125 7.1306 3.42857 7.03178 3.2837C6.70242 2.78471 6.38952 2.30181 6.07662 1.80282C5.79665 1.35211 5.41788 1.27163 4.95676 1.54527C4.16628 2.02817 3.37579 2.51107 2.58531 2.99396C2.12419 3.26761 2.04185 3.63783 2.33828 4.08853C2.70059 4.66801 3.07936 5.23139 3.44167 5.81086C3.4746 5.85915 3.52401 5.92354 3.55694 5.97183C4.79208 5.21529 6.02721 4.45875 7.32822 3.65392ZM12.8781 19.8632C14.0473 20.5553 15.2166 21.2475 16.4353 21.9718C16.3035 20.5875 16.1718 19.2676 16.04 17.9155C14.9696 18.5755 13.9321 19.2032 12.8781 19.8632Z" fill="#22A2FF"/>
</svg>
