<svg width="20" height="21" viewBox="0 0 20 21" fill="none" xmlns="http://www.w3.org/2000/svg">
<path d="M16.8088 3.90305C14.9214 1.97737 12.4483 0.96386 9.81241 0.997644C4.57323 1.099 0.310303 5.55845 0.310303 11.0314C0.310303 16.572 4.67086 20.9976 10.0077 20.9976C15.3445 20.9976 19.705 16.5382 19.705 10.9976C19.7375 8.29494 18.6962 5.79494 16.8088 3.90305ZM7.24163 9.10575C7.24163 8.32873 7.5345 7.5517 8.05517 7.01116C8.57583 6.47062 9.29174 6.13278 10.0402 6.13278C11.5696 6.13278 12.8062 7.48413 12.8062 9.07197C12.8062 9.849 12.5133 10.5922 11.9927 11.1328C11.472 11.6733 10.7561 11.9774 10.0077 11.9774C8.47821 11.9774 7.24163 10.6936 7.24163 9.10575ZM6.49318 14.8828C7.43688 14.2409 8.60837 13.9031 10.0077 13.8693C11.4069 13.9031 12.5784 14.2071 13.5221 14.849C14.3682 15.4233 14.8563 16.1328 15.0841 17.0112V17.0449C15.1492 17.2139 15.1167 17.2814 14.954 17.4166C13.1642 18.8693 11.2117 19.4436 8.99887 19.1733C7.50196 18.9706 6.10268 18.3287 4.86611 17.2814C5.06135 16.3017 5.58202 15.5247 6.49318 14.8828ZM14.596 9.47738C14.6936 8.12602 14.238 6.77467 13.3269 5.79494C11.5696 3.90305 8.706 3.83548 6.81859 5.65981C5.87489 6.57197 5.35423 7.99089 5.41931 9.37602C5.48439 10.5922 5.97251 11.7071 6.85113 12.5855C5.22406 13.2612 4.11765 14.2747 3.49936 15.6598C1.74213 13.0922 1.44925 8.83548 4.05257 5.72737C5.48439 3.97062 7.50196 2.9571 9.71478 2.88954C11.8951 2.78818 13.9777 3.63278 15.5722 5.2544C18.5986 8.36251 18.4359 12.8558 16.5485 15.6598C15.9302 14.2747 14.7912 13.2612 13.1642 12.5855C14.0103 11.7409 14.5309 10.6598 14.596 9.47738Z" fill="#414141"/>
</svg>
