<svg width="24" height="24" viewBox="0 0 24 24" fill="none" xmlns="http://www.w3.org/2000/svg">
<path fill-rule="evenodd" clip-rule="evenodd" d="M12 24C18.6274 24 24 18.6274 24 12C24 5.37258 18.6274 0 12 0C5.37258 0 0 5.37258 0 12C0 18.6274 5.37258 24 12 24ZM17.7673 8.51334C18.1941 8.51334 18.2905 8.72687 18.1941 9.02046C18.0437 9.69332 16.7947 11.4782 16.4078 12.031C16.3343 12.1361 16.2919 12.1966 16.2941 12.1966C16.1427 12.4368 16.0876 12.5436 16.2941 12.8105C16.3688 12.9092 16.5271 13.0598 16.708 13.2318C16.8941 13.4088 17.1041 13.6086 17.2716 13.798C17.8774 14.4653 18.3455 15.0258 18.4694 15.4128C18.5796 15.7998 18.3868 16 17.9738 16H16.5557C16.1799 16 15.9862 15.7908 15.5733 15.345C15.3963 15.1538 15.179 14.9191 14.8898 14.6388C14.0499 13.8514 13.6782 13.7447 13.4717 13.7447C13.1825 13.7447 13.0999 13.8114 13.0999 14.2117V15.4528C13.0999 15.7865 12.9898 15.9867 12.0811 15.9867C10.5804 15.9867 8.91446 15.1059 7.74418 13.4644C5.98188 11.0623 5.5 9.24733 5.5 8.88701C5.5 8.68683 5.56884 8.5 5.98188 8.5H7.41375C7.77172 8.5 7.9094 8.6468 8.04708 9.03381C8.74925 10.9956 9.91953 12.7171 10.4014 12.7171C10.5804 12.7171 10.663 12.637 10.663 12.1966V10.1681C10.629 9.59158 10.4219 9.34037 10.2684 9.15409C10.1732 9.03855 10.0985 8.948 10.0985 8.82028C10.0985 8.66014 10.2362 8.5 10.4565 8.5H12.6869C12.9898 8.5 13.0999 8.66014 13.0999 9.00712V11.7429C13.0999 12.0365 13.2238 12.1432 13.3202 12.1432C13.4992 12.1432 13.6507 12.0365 13.9811 11.7162C14.9999 10.6085 15.7296 8.90036 15.7296 8.90036C15.826 8.70018 15.9912 8.51334 16.3492 8.51334H17.7673Z" fill="white"/>
</svg>
