<svg width="24" height="24" viewBox="0 0 24 24" fill="none" xmlns="http://www.w3.org/2000/svg">
<path fill-rule="evenodd" clip-rule="evenodd" d="M12 0C5.37258 0 0 5.37258 0 12C0 18.6274 5.37258 24 12 24C18.6274 24 24 18.6274 24 12C24 5.37258 18.6274 0 12 0ZM17.0008 7.87458C17.5516 8.02571 17.9853 8.47102 18.1325 9.03652C18.4 10.0614 18.4 12.1999 18.4 12.1999C18.4 12.1999 18.4 14.3383 18.1325 15.3633C17.9853 15.9288 17.5516 16.3741 17.0008 16.5253C16.0027 16.7999 12 16.7999 12 16.7999C12 16.7999 7.99731 16.7999 6.99913 16.5253C6.44837 16.3741 6.01462 15.9288 5.86742 15.3633C5.60001 14.3383 5.60001 12.1999 5.60001 12.1999C5.60001 12.1999 5.60001 10.0614 5.86742 9.03652C6.01462 8.47102 6.44837 8.02571 6.99913 7.87458C7.99731 7.59991 12 7.59991 12 7.59991C12 7.59991 16.0027 7.59991 17.0008 7.87458Z" fill="white"/>
<path d="M10.8 14.4001V10.4001L14 12.4002L10.8 14.4001Z" fill="white"/>
</svg>
